<svg xmlns="http://www.w3.org/2000/svg" xmlns:xlink="http://www.w3.org/1999/xlink" width="500" zoomAndPan="magnify" viewBox="0 0 375 374.999991" height="500" preserveAspectRatio="xMidYMid meet" version="1.0"><defs><clipPath id="6fdcb284cf"><path d="M 111 111 L 275.648438 111 L 275.648438 269.703125 L 111 269.703125 Z M 111 111 " clip-rule="nonzero"/></clipPath><clipPath id="b1d6ee5274"><path d="M 99.398438 105.453125 L 264 105.453125 L 264 264 L 99.398438 264 Z M 99.398438 105.453125 " clip-rule="nonzero"/></clipPath><clipPath id="bd0f3c16e8"><path d="M 99.398438 239 L 155 239 L 155 269.703125 L 99.398438 269.703125 Z M 99.398438 239 " clip-rule="nonzero"/></clipPath></defs><g clip-path="url(#6fdcb284cf)"><path fill="#ffd33a" d="M 251.335938 269.6875 L 251.335938 263.605469 L 187.523438 263.605469 C 145.546875 263.605469 111.550781 229.582031 111.550781 187.578125 C 111.550781 145.574219 145.546875 111.554688 187.523438 111.554688 C 229.496094 111.554688 263.492188 145.574219 263.492188 187.578125 C 263.492188 202.0625 259.464844 215.59375 252.4375 227.113281 L 229.648438 227.113281 C 239.332031 216.773438 245.257812 202.859375 245.257812 187.578125 C 245.257812 155.6875 219.429688 129.800781 187.523438 129.800781 C 155.613281 129.800781 129.785156 155.6875 129.785156 187.578125 C 129.785156 219.472656 155.652344 245.359375 187.523438 245.359375 L 251.335938 245.359375 L 251.335938 239.277344 L 275.648438 254.480469 Z M 251.335938 269.6875 " fill-opacity="1" fill-rule="nonzero"/></g><path fill="#2978b8" d="M 216.503906 178.457031 C 215.898438 176.554688 215.136719 174.730469 214.1875 173.019531 L 220.949219 166.292969 L 208.792969 154.128906 L 202.070312 160.855469 C 200.359375 159.90625 198.539062 159.144531 196.636719 158.539062 L 196.636719 148.046875 L 178.40625 148.046875 L 178.40625 158.574219 C 176.507812 159.183594 174.683594 159.945312 172.972656 160.894531 L 166.25 154.128906 L 154.09375 166.292969 L 160.820312 173.019531 C 159.867188 174.730469 159.109375 176.554688 158.5 178.457031 L 148.015625 178.457031 L 148.015625 196.703125 L 158.539062 196.703125 C 159.148438 198.601562 159.90625 200.425781 160.855469 202.136719 L 154.09375 208.867188 L 166.25 221.03125 L 172.972656 214.300781 C 174.683594 215.253906 176.507812 216.011719 178.40625 216.621094 L 178.40625 227.113281 L 196.636719 227.113281 L 196.636719 216.582031 C 198.539062 215.972656 200.359375 215.214844 202.070312 214.265625 L 208.792969 221.03125 L 220.949219 208.867188 L 214.226562 202.136719 C 215.175781 200.425781 215.933594 198.601562 216.542969 196.703125 L 227.027344 196.703125 L 227.027344 178.457031 Z M 216.503906 178.457031 " fill-opacity="1" fill-rule="nonzero"/><path fill="#e9eef2" d="M 208.792969 187.578125 C 208.792969 188.277344 208.757812 188.972656 208.691406 189.664062 C 208.621094 190.359375 208.519531 191.046875 208.382812 191.730469 C 208.25 192.414062 208.078125 193.089844 207.878906 193.757812 C 207.675781 194.425781 207.441406 195.082031 207.175781 195.726562 C 206.90625 196.371094 206.609375 197 206.28125 197.613281 C 205.953125 198.230469 205.59375 198.824219 205.207031 199.40625 C 204.820312 199.984375 204.40625 200.542969 203.964844 201.082031 C 203.523438 201.621094 203.054688 202.136719 202.5625 202.632812 C 202.070312 203.125 201.554688 203.59375 201.015625 204.035156 C 200.476562 204.476562 199.917969 204.890625 199.339844 205.277344 C 198.761719 205.664062 198.164062 206.023438 197.550781 206.351562 C 196.933594 206.679688 196.304688 206.980469 195.664062 207.246094 C 195.019531 207.511719 194.363281 207.746094 193.695312 207.949219 C 193.03125 208.152344 192.355469 208.320312 191.671875 208.457031 C 190.988281 208.59375 190.300781 208.695312 189.605469 208.761719 C 188.914062 208.832031 188.21875 208.867188 187.523438 208.867188 C 186.824219 208.867188 186.128906 208.832031 185.4375 208.761719 C 184.742188 208.695312 184.054688 208.59375 183.371094 208.457031 C 182.6875 208.320312 182.015625 208.152344 181.347656 207.949219 C 180.679688 207.746094 180.023438 207.511719 179.382812 207.246094 C 178.738281 206.980469 178.109375 206.679688 177.496094 206.351562 C 176.878906 206.023438 176.285156 205.664062 175.703125 205.277344 C 175.125 204.890625 174.566406 204.476562 174.027344 204.035156 C 173.488281 203.59375 172.972656 203.125 172.480469 202.632812 C 171.988281 202.136719 171.519531 201.621094 171.078125 201.082031 C 170.636719 200.542969 170.222656 199.984375 169.835938 199.40625 C 169.449219 198.824219 169.089844 198.230469 168.761719 197.613281 C 168.433594 197 168.136719 196.371094 167.871094 195.726562 C 167.601562 195.082031 167.367188 194.425781 167.167969 193.757812 C 166.964844 193.089844 166.796875 192.414062 166.660156 191.730469 C 166.523438 191.046875 166.421875 190.359375 166.351562 189.664062 C 166.285156 188.972656 166.25 188.277344 166.25 187.578125 C 166.25 186.882812 166.285156 186.1875 166.351562 185.492188 C 166.421875 184.796875 166.523438 184.109375 166.660156 183.425781 C 166.796875 182.742188 166.964844 182.066406 167.167969 181.398438 C 167.367188 180.734375 167.601562 180.078125 167.871094 179.433594 C 168.136719 178.789062 168.433594 178.160156 168.761719 177.542969 C 169.089844 176.929688 169.449219 176.332031 169.835938 175.753906 C 170.222656 175.171875 170.636719 174.613281 171.078125 174.074219 C 171.519531 173.535156 171.988281 173.019531 172.480469 172.527344 C 172.972656 172.035156 173.488281 171.566406 174.027344 171.125 C 174.566406 170.679688 175.125 170.265625 175.703125 169.878906 C 176.285156 169.492188 176.878906 169.132812 177.496094 168.804688 C 178.109375 168.476562 178.738281 168.179688 179.382812 167.914062 C 180.023438 167.644531 180.679688 167.410156 181.347656 167.207031 C 182.015625 167.007812 182.6875 166.835938 183.371094 166.699219 C 184.054688 166.566406 184.742188 166.460938 185.4375 166.394531 C 186.128906 166.324219 186.824219 166.292969 187.523438 166.292969 C 188.21875 166.292969 188.914062 166.324219 189.605469 166.394531 C 190.300781 166.460938 190.988281 166.566406 191.671875 166.699219 C 192.355469 166.835938 193.03125 167.007812 193.695312 167.207031 C 194.363281 167.410156 195.019531 167.644531 195.664062 167.914062 C 196.304688 168.179688 196.933594 168.476562 197.550781 168.804688 C 198.164062 169.132812 198.761719 169.492188 199.339844 169.878906 C 199.917969 170.265625 200.476562 170.679688 201.015625 171.125 C 201.554688 171.566406 202.070312 172.035156 202.5625 172.527344 C 203.054688 173.019531 203.523438 173.535156 203.964844 174.074219 C 204.40625 174.613281 204.820312 175.171875 205.207031 175.753906 C 205.59375 176.332031 205.953125 176.929688 206.28125 177.542969 C 206.609375 178.160156 206.90625 178.789062 207.175781 179.433594 C 207.441406 180.078125 207.675781 180.734375 207.878906 181.398438 C 208.078125 182.066406 208.25 182.742188 208.382812 183.425781 C 208.519531 184.109375 208.621094 184.796875 208.691406 185.492188 C 208.757812 186.1875 208.792969 186.882812 208.792969 187.578125 Z M 208.792969 187.578125 " fill-opacity="1" fill-rule="nonzero"/><path fill="#2978b8" d="M 196.636719 187.578125 C 196.636719 188.179688 196.578125 188.769531 196.464844 189.359375 C 196.347656 189.945312 196.171875 190.515625 195.945312 191.070312 C 195.714844 191.625 195.433594 192.148438 195.101562 192.648438 C 194.769531 193.144531 194.390625 193.605469 193.96875 194.03125 C 193.542969 194.453125 193.085938 194.832031 192.585938 195.164062 C 192.089844 195.496094 191.5625 195.777344 191.011719 196.007812 C 190.457031 196.238281 189.886719 196.410156 189.300781 196.527344 C 188.714844 196.644531 188.121094 196.703125 187.523438 196.703125 C 186.921875 196.703125 186.332031 196.644531 185.742188 196.527344 C 185.15625 196.410156 184.585938 196.238281 184.03125 196.007812 C 183.480469 195.777344 182.953125 195.496094 182.457031 195.164062 C 181.960938 194.832031 181.5 194.453125 181.074219 194.03125 C 180.652344 193.605469 180.273438 193.144531 179.941406 192.648438 C 179.609375 192.148438 179.328125 191.625 179.097656 191.070312 C 178.871094 190.515625 178.699219 189.945312 178.582031 189.359375 C 178.464844 188.769531 178.40625 188.179688 178.40625 187.578125 C 178.40625 186.980469 178.464844 186.386719 178.582031 185.800781 C 178.699219 185.210938 178.871094 184.640625 179.097656 184.085938 C 179.328125 183.535156 179.609375 183.007812 179.941406 182.511719 C 180.273438 182.011719 180.652344 181.550781 181.074219 181.128906 C 181.5 180.703125 181.960938 180.328125 182.457031 179.992188 C 182.953125 179.660156 183.480469 179.378906 184.03125 179.148438 C 184.585938 178.921875 185.15625 178.75 185.742188 178.632812 C 186.332031 178.515625 186.921875 178.457031 187.523438 178.457031 C 188.121094 178.457031 188.714844 178.515625 189.300781 178.632812 C 189.886719 178.75 190.457031 178.921875 191.011719 179.148438 C 191.5625 179.378906 192.089844 179.660156 192.585938 179.992188 C 193.085938 180.328125 193.542969 180.703125 193.96875 181.128906 C 194.390625 181.550781 194.769531 182.011719 195.101562 182.511719 C 195.433594 183.007812 195.714844 183.535156 195.945312 184.085938 C 196.171875 184.640625 196.347656 185.210938 196.464844 185.800781 C 196.578125 186.386719 196.636719 186.980469 196.636719 187.578125 Z M 196.636719 187.578125 " fill-opacity="1" fill-rule="nonzero"/><g clip-path="url(#b1d6ee5274)"><path fill="#3397e8" d="M 187.523438 111.554688 L 187.523438 105.472656 L 163.210938 120.675781 L 178.824219 130.445312 L 187.523438 135.882812 L 187.523438 129.800781 C 219.429688 129.800781 245.257812 155.6875 245.257812 187.578125 C 245.257812 219.472656 219.429688 245.359375 187.523438 245.359375 L 99.398438 245.359375 L 99.398438 263.605469 L 187.523438 263.605469 C 188.546875 263.605469 189.574219 263.605469 190.5625 263.527344 C 231.128906 261.933594 263.492188 228.519531 263.492188 187.578125 C 263.492188 145.574219 229.496094 111.554688 187.523438 111.554688 Z M 187.523438 111.554688 " fill-opacity="1" fill-rule="nonzero"/></g><g clip-path="url(#bd0f3c16e8)"><path fill="#eb423f" d="M 154.09375 254.480469 L 129.785156 239.277344 L 129.785156 245.359375 L 99.398438 245.359375 L 99.398438 263.605469 L 129.785156 263.605469 L 129.785156 269.6875 Z M 154.09375 254.480469 " fill-opacity="1" fill-rule="nonzero"/></g></svg>