<svg xmlns="http://www.w3.org/2000/svg" xmlns:xlink="http://www.w3.org/1999/xlink" width="500" zoomAndPan="magnify" viewBox="0 0 375 374.999991" height="500" preserveAspectRatio="xMidYMid meet" version="1.0"><path fill="#231f20" d="M 254.71875 203.488281 C 253.988281 203.488281 253.265625 203.550781 252.542969 203.675781 C 251.824219 203.800781 251.121094 203.984375 250.433594 204.230469 C 249.746094 204.472656 249.085938 204.773438 248.449219 205.132812 C 247.8125 205.492188 247.210938 205.902344 246.644531 206.363281 C 246.078125 206.824219 245.554688 207.328125 245.078125 207.878906 C 244.597656 208.429688 244.167969 209.019531 243.785156 209.644531 C 243.40625 210.269531 243.082031 210.921875 242.8125 211.601562 C 242.542969 212.28125 242.335938 212.980469 242.183594 213.695312 L 209.65625 213.695312 L 198.851562 203.882812 C 200.832031 202.5625 202.535156 200.949219 203.957031 199.035156 L 226.785156 199.035156 C 227.648438 199.085938 228.515625 199.089844 229.382812 199.046875 C 230.25 199.007812 231.109375 198.921875 231.96875 198.796875 C 232.828125 198.667969 233.675781 198.496094 234.515625 198.28125 C 235.355469 198.066406 236.183594 197.808594 237 197.511719 C 237.8125 197.210938 238.609375 196.871094 239.390625 196.492188 C 240.167969 196.109375 240.929688 195.691406 241.664062 195.234375 C 242.402344 194.773438 243.113281 194.28125 243.800781 193.75 C 244.488281 193.21875 245.148438 192.65625 245.777344 192.058594 C 246.40625 191.460938 247.007812 190.832031 247.574219 190.171875 C 248.140625 189.511719 248.671875 188.828125 249.167969 188.113281 C 249.664062 187.402344 250.121094 186.664062 250.546875 185.90625 C 250.96875 185.144531 251.347656 184.367188 251.691406 183.566406 C 252.035156 182.765625 252.335938 181.953125 252.597656 181.125 C 252.859375 180.292969 253.074219 179.453125 253.25 178.601562 C 253.425781 177.75 253.558594 176.890625 253.644531 176.023438 C 253.734375 175.160156 253.777344 174.292969 253.777344 173.421875 C 253.777344 172.550781 253.734375 171.683594 253.644531 170.820312 C 253.558594 169.953125 253.425781 169.09375 253.25 168.242188 C 253.074219 167.390625 252.859375 166.550781 252.597656 165.71875 C 252.335938 164.890625 252.035156 164.074219 251.691406 163.277344 C 251.347656 162.476562 250.96875 161.699219 250.546875 160.9375 C 250.121094 160.179688 249.664062 159.441406 249.167969 158.730469 C 248.671875 158.015625 248.140625 157.328125 247.574219 156.671875 C 247.007812 156.011719 246.40625 155.382812 245.777344 154.785156 C 245.148438 154.1875 244.488281 153.625 243.800781 153.09375 C 243.113281 152.5625 242.402344 152.066406 241.664062 151.609375 C 240.929688 151.152344 240.167969 150.734375 239.390625 150.351562 C 238.609375 149.972656 237.8125 149.632812 237 149.332031 C 236.183594 149.035156 235.355469 148.777344 234.515625 148.5625 C 233.675781 148.347656 232.828125 148.175781 231.96875 148.046875 C 231.109375 147.917969 230.25 147.835938 229.382812 147.796875 C 228.515625 147.753906 227.648438 147.757812 226.785156 147.808594 C 225.464844 147.8125 224.15625 147.917969 222.855469 148.121094 C 222.535156 146.296875 222.074219 144.507812 221.46875 142.753906 C 220.863281 141.003906 220.121094 139.308594 219.246094 137.675781 C 218.371094 136.046875 217.367188 134.492188 216.242188 133.019531 C 215.121094 131.550781 213.882812 130.179688 212.539062 128.90625 C 211.195312 127.632812 209.757812 126.476562 208.226562 125.433594 C 206.699219 124.394531 205.097656 123.480469 203.421875 122.699219 C 201.746094 121.917969 200.015625 121.273438 198.238281 120.769531 C 196.460938 120.261719 194.652344 119.902344 192.816406 119.691406 C 190.980469 119.476562 189.136719 119.410156 187.289062 119.496094 C 185.445312 119.578125 183.617188 119.808594 181.804688 120.1875 C 179.996094 120.5625 178.226562 121.085938 176.5 121.746094 C 174.773438 122.410156 173.113281 123.207031 171.511719 124.136719 C 169.914062 125.066406 168.398438 126.117188 166.96875 127.292969 C 165.539062 128.46875 164.210938 129.75 162.984375 131.136719 C 161.757812 132.527344 160.652344 134.003906 159.664062 135.570312 C 158.671875 137.136719 157.816406 138.773438 157.089844 140.476562 C 155.285156 140.121094 153.464844 139.9375 151.628906 139.925781 C 150.664062 139.925781 149.699219 139.972656 148.738281 140.066406 C 147.777344 140.164062 146.824219 140.304688 145.878906 140.492188 C 144.933594 140.683594 143.996094 140.917969 143.074219 141.199219 C 142.152344 141.480469 141.242188 141.804688 140.351562 142.175781 C 139.460938 142.546875 138.589844 142.960938 137.738281 143.414062 C 136.886719 143.871094 136.058594 144.367188 135.257812 144.90625 C 134.453125 145.445312 133.679688 146.019531 132.933594 146.632812 C 132.1875 147.25 131.476562 147.898438 130.792969 148.582031 C 130.109375 149.265625 129.460938 149.984375 128.851562 150.730469 C 128.238281 151.480469 127.664062 152.257812 127.128906 153.0625 C 126.589844 153.867188 126.097656 154.695312 125.640625 155.546875 C 125.1875 156.402344 124.773438 157.277344 124.40625 158.171875 C 124.035156 159.066406 123.710938 159.976562 123.429688 160.902344 C 123.152344 161.828125 122.917969 162.765625 122.726562 163.714844 C 122.539062 164.664062 122.398438 165.621094 122.304688 166.582031 C 122.210938 167.546875 122.160156 168.511719 122.160156 169.480469 C 122.160156 170.449219 122.210938 171.414062 122.304688 172.378906 C 122.398438 173.339844 122.539062 174.296875 122.726562 175.246094 C 122.917969 176.195312 123.152344 177.132812 123.429688 178.058594 C 123.710938 178.988281 124.035156 179.898438 124.40625 180.792969 C 124.773438 181.683594 125.1875 182.558594 125.640625 183.414062 C 126.097656 184.265625 126.589844 185.097656 127.128906 185.902344 C 127.664062 186.707031 128.238281 187.480469 128.851562 188.230469 C 129.460938 188.980469 130.109375 189.695312 130.792969 190.378906 C 131.476562 191.0625 132.1875 191.714844 132.933594 192.328125 C 133.679688 192.941406 134.453125 193.515625 135.257812 194.054688 C 136.058594 194.59375 136.886719 195.089844 137.738281 195.546875 C 138.589844 196.003906 139.460938 196.414062 140.351562 196.785156 C 141.242188 197.15625 142.152344 197.480469 143.074219 197.761719 C 143.996094 198.042969 144.933594 198.277344 145.878906 198.46875 C 146.824219 198.65625 147.777344 198.796875 148.738281 198.894531 C 149.699219 198.988281 150.664062 199.035156 151.628906 199.035156 L 170.523438 199.035156 C 171.949219 200.949219 173.652344 202.5625 175.632812 203.882812 L 164.828125 213.695312 L 132.296875 213.695312 C 132.191406 213.183594 132.054688 212.679688 131.886719 212.183594 C 131.71875 211.6875 131.523438 211.207031 131.296875 210.734375 C 131.070312 210.261719 130.816406 209.808594 130.535156 209.367188 C 130.253906 208.925781 129.945312 208.507812 129.609375 208.105469 C 129.277344 207.703125 128.921875 207.320312 128.539062 206.964844 C 128.160156 206.605469 127.761719 206.273438 127.339844 205.960938 C 126.917969 205.652344 126.480469 205.371094 126.023438 205.117188 C 125.570312 204.859375 125.101562 204.636719 124.617188 204.4375 C 124.136719 204.238281 123.640625 204.074219 123.136719 203.9375 C 122.636719 203.796875 122.125 203.691406 121.609375 203.617188 C 121.09375 203.542969 120.574219 203.503906 120.054688 203.492188 C 119.53125 203.480469 119.011719 203.503906 118.492188 203.554688 C 117.972656 203.609375 117.460938 203.695312 116.953125 203.8125 C 116.445312 203.925781 115.945312 204.074219 115.453125 204.253906 C 114.964844 204.429688 114.484375 204.636719 114.019531 204.875 C 113.554688 205.109375 113.105469 205.375 112.671875 205.667969 C 112.242188 205.957031 111.828125 206.277344 111.433594 206.617188 C 111.039062 206.960938 110.667969 207.328125 110.316406 207.714844 C 109.96875 208.101562 109.644531 208.511719 109.34375 208.9375 C 109.042969 209.367188 108.773438 209.8125 108.527344 210.273438 C 108.28125 210.734375 108.066406 211.210938 107.878906 211.699219 C 107.691406 212.1875 107.535156 212.683594 107.40625 213.191406 C 107.28125 213.699219 107.1875 214.214844 107.121094 214.734375 C 107.058594 215.25 107.027344 215.773438 107.027344 216.296875 C 107.027344 216.820312 107.058594 217.339844 107.121094 217.859375 C 107.1875 218.378906 107.28125 218.890625 107.40625 219.398438 C 107.535156 219.90625 107.691406 220.40625 107.878906 220.894531 C 108.066406 221.382812 108.28125 221.855469 108.527344 222.316406 C 108.773438 222.78125 109.042969 223.222656 109.34375 223.652344 C 109.644531 224.082031 109.96875 224.488281 110.316406 224.878906 C 110.667969 225.265625 111.039062 225.632812 111.433594 225.972656 C 111.828125 226.316406 112.242188 226.632812 112.671875 226.925781 C 113.105469 227.21875 113.554688 227.480469 114.019531 227.71875 C 114.484375 227.953125 114.964844 228.160156 115.453125 228.339844 C 115.945312 228.519531 116.445312 228.664062 116.953125 228.78125 C 117.460938 228.898438 117.972656 228.984375 118.492188 229.035156 C 119.011719 229.089844 119.53125 229.109375 120.054688 229.101562 C 120.574219 229.089844 121.09375 229.046875 121.609375 228.972656 C 122.125 228.898438 122.636719 228.792969 123.136719 228.65625 C 123.640625 228.519531 124.136719 228.351562 124.617188 228.15625 C 125.101562 227.957031 125.570312 227.730469 126.023438 227.476562 C 126.480469 227.21875 126.917969 226.9375 127.339844 226.628906 C 127.761719 226.320312 128.160156 225.988281 128.539062 225.628906 C 128.921875 225.269531 129.277344 224.890625 129.609375 224.488281 C 129.945312 224.085938 130.253906 223.664062 130.535156 223.226562 C 130.816406 222.785156 131.070312 222.328125 131.296875 221.859375 C 131.523438 221.386719 131.71875 220.902344 131.886719 220.410156 C 132.054688 219.914062 132.191406 219.410156 132.296875 218.898438 L 165.96875 218.898438 C 166.628906 218.894531 167.203125 218.671875 167.695312 218.226562 L 180.777344 206.40625 C 182.058594 206.84375 183.367188 207.144531 184.707031 207.3125 L 184.707031 230.957031 L 166.910156 237.65625 C 166.65625 237.214844 166.378906 236.792969 166.074219 236.386719 C 165.773438 235.980469 165.445312 235.59375 165.09375 235.230469 C 164.746094 234.863281 164.375 234.519531 163.984375 234.195312 C 163.59375 233.875 163.183594 233.578125 162.757812 233.304688 C 162.332031 233.035156 161.890625 232.789062 161.433594 232.570312 C 160.976562 232.351562 160.507812 232.160156 160.03125 231.996094 C 159.550781 231.835938 159.066406 231.703125 158.570312 231.597656 C 158.074219 231.492188 157.574219 231.421875 157.070312 231.375 C 156.566406 231.332031 156.0625 231.320312 155.558594 231.335938 C 155.050781 231.355469 154.550781 231.402344 154.050781 231.480469 C 153.550781 231.558594 153.058594 231.667969 152.570312 231.804688 C 152.082031 231.941406 151.605469 232.109375 151.140625 232.300781 C 150.671875 232.496094 150.21875 232.71875 149.777344 232.96875 C 149.339844 233.21875 148.914062 233.496094 148.507812 233.796875 C 148.101562 234.097656 147.714844 234.421875 147.34375 234.769531 C 146.976562 235.117188 146.632812 235.484375 146.308594 235.875 C 145.984375 236.261719 145.683594 236.671875 145.40625 237.097656 C 145.132812 237.523438 144.882812 237.960938 144.660156 238.417969 C 144.4375 238.875 144.246094 239.339844 144.078125 239.820312 C 143.914062 240.300781 143.777344 240.785156 143.667969 241.28125 C 143.558594 241.777344 143.480469 242.277344 143.433594 242.78125 C 143.386719 243.289062 143.367188 243.792969 143.382812 244.300781 C 143.394531 244.808594 143.4375 245.3125 143.511719 245.8125 C 143.585938 246.316406 143.6875 246.8125 143.820312 247.300781 C 143.953125 247.789062 144.113281 248.269531 144.304688 248.742188 C 144.496094 249.210938 144.714844 249.667969 144.957031 250.109375 C 145.203125 250.554688 145.472656 250.980469 145.769531 251.394531 C 146.066406 251.804688 146.386719 252.195312 146.730469 252.566406 C 147.074219 252.941406 147.4375 253.289062 147.824219 253.621094 C 148.207031 253.949219 148.613281 254.25 149.035156 254.53125 C 149.457031 254.8125 149.894531 255.066406 150.34375 255.292969 C 150.796875 255.519531 151.261719 255.71875 151.738281 255.890625 C 152.214844 256.058594 152.699219 256.203125 153.191406 256.3125 C 153.683594 256.425781 154.183594 256.507812 154.683594 256.5625 C 155.1875 256.613281 155.691406 256.636719 156.199219 256.628906 C 156.703125 256.617188 157.207031 256.582031 157.707031 256.511719 C 158.210938 256.441406 158.703125 256.34375 159.191406 256.214844 C 159.683594 256.085938 160.160156 255.925781 160.632812 255.742188 C 161.101562 255.554688 161.558594 255.339844 162.003906 255.097656 C 162.449219 254.855469 162.878906 254.585938 163.289062 254.292969 C 163.703125 254 164.09375 253.683594 164.46875 253.34375 C 164.84375 253 165.195312 252.636719 165.527344 252.253906 C 165.859375 251.871094 166.164062 251.46875 166.445312 251.046875 C 166.730469 250.628906 166.984375 250.191406 167.214844 249.738281 C 167.445312 249.289062 167.648438 248.824219 167.824219 248.347656 C 168 247.871094 168.144531 247.386719 168.261719 246.894531 C 168.378906 246.402344 168.464844 245.902344 168.519531 245.398438 C 168.578125 244.894531 168.605469 244.386719 168.601562 243.878906 C 168.621094 243.460938 168.621094 243.039062 168.601562 242.621094 L 187.417969 235.761719 L 206.199219 242.621094 C 206.175781 243.039062 206.175781 243.460938 206.199219 243.878906 C 206.214844 244.398438 206.261719 244.914062 206.339844 245.425781 C 206.417969 245.9375 206.527344 246.445312 206.667969 246.941406 C 206.804688 247.441406 206.976562 247.929688 207.171875 248.410156 C 207.371094 248.886719 207.597656 249.351562 207.851562 249.804688 C 208.105469 250.253906 208.386719 250.6875 208.691406 251.105469 C 208.996094 251.523438 209.328125 251.921875 209.679688 252.296875 C 210.035156 252.675781 210.410156 253.03125 210.808594 253.363281 C 211.203125 253.695312 211.617188 254 212.050781 254.28125 C 212.484375 254.5625 212.933594 254.820312 213.398438 255.046875 C 213.863281 255.273438 214.339844 255.472656 214.828125 255.640625 C 215.316406 255.8125 215.8125 255.953125 216.316406 256.0625 C 216.820312 256.171875 217.332031 256.25 217.84375 256.296875 C 218.359375 256.347656 218.875 256.363281 219.390625 256.347656 C 219.90625 256.335938 220.421875 256.289062 220.933594 256.214844 C 221.441406 256.136719 221.949219 256.03125 222.445312 255.890625 C 222.945312 255.753906 223.433594 255.589844 223.910156 255.390625 C 224.386719 255.195312 224.851562 254.96875 225.304688 254.71875 C 225.753906 254.464844 226.1875 254.1875 226.605469 253.882812 C 227.023438 253.574219 227.421875 253.246094 227.796875 252.894531 C 228.175781 252.539062 228.53125 252.164062 228.863281 251.769531 C 229.195312 251.371094 229.503906 250.957031 229.789062 250.523438 C 230.070312 250.089844 230.328125 249.640625 230.554688 249.175781 C 230.785156 248.710938 230.984375 248.234375 231.15625 247.746094 C 231.328125 247.257812 231.46875 246.761719 231.582031 246.253906 C 231.691406 245.75 231.773438 245.238281 231.824219 244.722656 C 231.875 244.207031 231.894531 243.691406 231.882812 243.171875 C 231.871094 242.652344 231.828125 242.140625 231.753906 241.625 C 231.679688 241.113281 231.574219 240.605469 231.441406 240.105469 C 231.304688 239.605469 231.140625 239.117188 230.949219 238.636719 C 230.753906 238.15625 230.53125 237.6875 230.28125 237.234375 C 230.03125 236.78125 229.757812 236.34375 229.453125 235.925781 C 229.152344 235.503906 228.824219 235.105469 228.472656 234.722656 C 228.125 234.34375 227.75 233.984375 227.359375 233.648438 C 226.964844 233.3125 226.550781 233.003906 226.121094 232.71875 C 225.691406 232.433594 225.242188 232.171875 224.78125 231.941406 C 224.320312 231.710938 223.84375 231.507812 223.359375 231.332031 C 222.871094 231.160156 222.378906 231.015625 221.875 230.898438 C 221.371094 230.785156 220.859375 230.703125 220.347656 230.648438 C 219.832031 230.597656 219.316406 230.574219 218.800781 230.585938 C 218.285156 230.59375 217.769531 230.632812 217.257812 230.707031 C 216.746094 230.777344 216.242188 230.878906 215.742188 231.011719 C 215.242188 231.144531 214.753906 231.308594 214.273438 231.5 C 213.792969 231.691406 213.328125 231.914062 212.875 232.160156 C 212.421875 232.410156 211.984375 232.683594 211.566406 232.988281 C 211.144531 233.289062 210.742188 233.613281 210.363281 233.964844 C 209.980469 234.3125 209.625 234.683594 209.285156 235.078125 C 208.949219 235.472656 208.640625 235.882812 208.351562 236.316406 C 208.066406 236.746094 207.804688 237.191406 207.574219 237.65625 L 189.816406 231.191406 L 189.816406 207.546875 C 191.15625 207.390625 192.464844 207.085938 193.742188 206.640625 L 206.867188 218.464844 C 207.355469 218.90625 207.933594 219.132812 208.59375 219.132812 L 242.183594 219.132812 C 242.347656 219.921875 242.582031 220.683594 242.886719 221.429688 C 243.195312 222.171875 243.566406 222.878906 244.007812 223.550781 C 244.445312 224.222656 244.945312 224.847656 245.5 225.425781 C 246.054688 226.003906 246.660156 226.527344 247.316406 226.992188 C 247.96875 227.453125 248.664062 227.851562 249.390625 228.1875 C 250.121094 228.519531 250.875 228.78125 251.652344 228.972656 C 252.429688 229.164062 253.222656 229.28125 254.019531 229.320312 C 254.820312 229.363281 255.617188 229.332031 256.414062 229.222656 C 257.207031 229.113281 257.984375 228.929688 258.742188 228.675781 C 259.503906 228.421875 260.234375 228.097656 260.929688 227.703125 C 261.628906 227.308594 262.285156 226.855469 262.898438 226.339844 C 263.515625 225.820312 264.074219 225.25 264.582031 224.628906 C 265.085938 224.003906 265.53125 223.339844 265.914062 222.632812 C 266.292969 221.925781 266.609375 221.191406 266.851562 220.425781 C 267.09375 219.660156 267.265625 218.878906 267.363281 218.082031 C 267.457031 217.28125 267.480469 216.480469 267.425781 215.679688 C 267.375 214.878906 267.246094 214.089844 267.042969 213.308594 C 266.84375 212.53125 266.570312 211.78125 266.226562 211.054688 C 265.886719 210.328125 265.476562 209.640625 265.007812 208.988281 C 264.535156 208.339844 264.003906 207.742188 263.421875 207.191406 C 262.835938 206.640625 262.207031 206.148438 261.53125 205.71875 C 260.851562 205.289062 260.140625 204.925781 259.398438 204.628906 C 258.652344 204.332031 257.886719 204.109375 257.101562 203.957031 C 256.3125 203.804688 255.519531 203.726562 254.71875 203.726562 Z M 218.691406 251.289062 C 218.1875 251.292969 217.691406 251.246094 217.199219 251.148438 C 216.707031 251.054688 216.230469 250.910156 215.765625 250.71875 C 215.300781 250.53125 214.859375 250.296875 214.441406 250.015625 C 214.023438 249.738281 213.636719 249.421875 213.28125 249.070312 C 212.925781 248.714844 212.605469 248.328125 212.328125 247.910156 C 212.046875 247.492188 211.8125 247.050781 211.617188 246.589844 C 211.425781 246.125 211.277344 245.644531 211.179688 245.152344 C 211.082031 244.660156 211.03125 244.160156 211.03125 243.65625 C 211.027344 243.15625 211.078125 242.65625 211.175781 242.164062 C 211.273438 241.667969 211.417969 241.191406 211.609375 240.726562 C 211.800781 240.261719 212.035156 239.816406 212.3125 239.398438 C 212.589844 238.980469 212.90625 238.59375 213.261719 238.238281 C 213.617188 237.882812 214.003906 237.566406 214.421875 237.285156 C 214.835938 237.007812 215.277344 236.769531 215.742188 236.578125 C 216.203125 236.386719 216.683594 236.242188 217.175781 236.144531 C 217.667969 236.046875 218.164062 236 218.664062 236 C 219.167969 236 219.664062 236.050781 220.15625 236.148438 C 220.644531 236.25 221.125 236.394531 221.585938 236.589844 C 222.050781 236.78125 222.488281 237.019531 222.90625 237.300781 C 223.320312 237.582031 223.707031 237.898438 224.058594 238.257812 C 224.414062 238.613281 224.726562 239.003906 225.003906 239.421875 C 225.28125 239.839844 225.515625 240.285156 225.707031 240.75 C 225.894531 241.214844 226.039062 241.695312 226.132812 242.1875 C 226.230469 242.683594 226.277344 243.179688 226.273438 243.683594 C 226.269531 244.183594 226.21875 244.675781 226.121094 245.164062 C 226.023438 245.652344 225.878906 246.128906 225.6875 246.589844 C 225.496094 247.046875 225.261719 247.484375 224.984375 247.898438 C 224.707031 248.3125 224.394531 248.699219 224.042969 249.050781 C 223.691406 249.402344 223.308594 249.71875 222.894531 249.996094 C 222.480469 250.273438 222.046875 250.507812 221.585938 250.699219 C 221.128906 250.890625 220.65625 251.039062 220.167969 251.136719 C 219.679688 251.234375 219.1875 251.285156 218.691406 251.289062 Z M 119.804688 208.691406 C 120.300781 208.691406 120.796875 208.738281 121.285156 208.835938 C 121.773438 208.933594 122.246094 209.078125 122.707031 209.269531 C 123.167969 209.460938 123.601562 209.695312 124.015625 209.972656 C 124.429688 210.25 124.8125 210.566406 125.167969 210.917969 C 125.519531 211.269531 125.832031 211.65625 126.109375 212.070312 C 126.386719 212.484375 126.621094 212.925781 126.808594 213.386719 C 127 213.847656 127.144531 214.324219 127.242188 214.8125 C 127.339844 215.300781 127.386719 215.796875 127.386719 216.296875 C 127.386719 216.796875 127.339844 217.289062 127.242188 217.78125 C 127.144531 218.269531 127 218.746094 126.808594 219.207031 C 126.621094 219.667969 126.386719 220.105469 126.109375 220.519531 C 125.832031 220.9375 125.519531 221.320312 125.167969 221.675781 C 124.8125 222.027344 124.429688 222.34375 124.015625 222.621094 C 123.601562 222.898438 123.167969 223.132812 122.707031 223.324219 C 122.246094 223.515625 121.773438 223.65625 121.285156 223.753906 C 120.796875 223.851562 120.300781 223.902344 119.804688 223.902344 C 119.308594 223.902344 118.8125 223.851562 118.324219 223.753906 C 117.835938 223.65625 117.363281 223.515625 116.902344 223.324219 C 116.441406 223.132812 116.007812 222.898438 115.59375 222.621094 C 115.179688 222.34375 114.796875 222.027344 114.441406 221.675781 C 114.089844 221.320312 113.777344 220.9375 113.5 220.519531 C 113.222656 220.105469 112.988281 219.667969 112.800781 219.207031 C 112.609375 218.746094 112.464844 218.269531 112.367188 217.78125 C 112.269531 217.289062 112.222656 216.796875 112.222656 216.296875 C 112.222656 215.796875 112.269531 215.300781 112.367188 214.8125 C 112.464844 214.324219 112.609375 213.847656 112.800781 213.386719 C 112.988281 212.925781 113.222656 212.484375 113.5 212.070312 C 113.777344 211.65625 114.089844 211.269531 114.441406 210.917969 C 114.796875 210.566406 115.179688 210.25 115.59375 209.972656 C 116.007812 209.695312 116.441406 209.460938 116.902344 209.269531 C 117.363281 209.078125 117.835938 208.933594 118.324219 208.835938 C 118.8125 208.738281 119.308594 208.691406 119.804688 208.691406 Z M 173.824219 194.898438 C 173.472656 194.355469 173.15625 193.789062 172.882812 193.203125 C 172.875 193.097656 172.875 192.992188 172.882812 192.886719 C 172.582031 192.25 172.332031 191.59375 172.136719 190.917969 C 172.121094 190.851562 172.121094 190.785156 172.136719 190.722656 C 171.945312 190.128906 171.8125 189.527344 171.742188 188.910156 C 171.722656 188.738281 171.722656 188.566406 171.742188 188.394531 C 171.683594 187.714844 171.683594 187.03125 171.742188 186.347656 C 171.742188 185.828125 171.769531 185.308594 171.820312 184.789062 C 171.871094 184.273438 171.945312 183.757812 172.046875 183.25 C 172.148438 182.738281 172.273438 182.234375 172.425781 181.738281 C 172.574219 181.238281 172.75 180.75 172.949219 180.269531 C 173.144531 179.789062 173.367188 179.320312 173.613281 178.859375 C 173.855469 178.402344 174.121094 177.957031 174.410156 177.523438 C 174.699219 177.089844 175.007812 176.675781 175.335938 176.273438 C 175.664062 175.871094 176.011719 175.484375 176.378906 175.117188 C 176.746094 174.75 177.128906 174.402344 177.53125 174.070312 C 177.933594 173.742188 178.347656 173.429688 178.777344 173.140625 C 179.210938 172.851562 179.65625 172.585938 180.113281 172.339844 C 180.570312 172.097656 181.039062 171.875 181.515625 171.675781 C 181.996094 171.476562 182.484375 171.300781 182.980469 171.148438 C 183.476562 171 183.976562 170.871094 184.488281 170.769531 C 184.996094 170.667969 185.507812 170.59375 186.023438 170.542969 C 186.539062 170.492188 187.058594 170.464844 187.574219 170.464844 C 188.09375 170.464844 188.609375 170.492188 189.128906 170.542969 C 189.644531 170.59375 190.15625 170.667969 190.664062 170.769531 C 191.171875 170.871094 191.675781 171 192.171875 171.148438 C 192.667969 171.300781 193.15625 171.476562 193.632812 171.675781 C 194.113281 171.875 194.582031 172.097656 195.039062 172.339844 C 195.496094 172.585938 195.941406 172.851562 196.371094 173.140625 C 196.804688 173.429688 197.21875 173.742188 197.621094 174.070312 C 198.019531 174.402344 198.402344 174.75 198.769531 175.117188 C 199.136719 175.484375 199.484375 175.871094 199.8125 176.273438 C 200.144531 176.675781 200.453125 177.089844 200.738281 177.523438 C 201.027344 177.957031 201.292969 178.402344 201.539062 178.859375 C 201.78125 179.320312 202.003906 179.789062 202.203125 180.269531 C 202.402344 180.75 202.574219 181.238281 202.726562 181.738281 C 202.875 182.234375 203.003906 182.738281 203.105469 183.25 C 203.207031 183.757812 203.28125 184.273438 203.332031 184.789062 C 203.382812 185.308594 203.40625 185.828125 203.40625 186.347656 C 203.449219 187.03125 203.449219 187.714844 203.40625 188.394531 C 203.390625 188.566406 203.390625 188.738281 203.40625 188.910156 C 203.40625 189.539062 203.171875 190.128906 203.015625 190.722656 C 202.859375 191.3125 203.015625 190.722656 203.015625 190.917969 C 202.8125 191.585938 202.578125 192.246094 202.308594 192.886719 C 202.285156 192.992188 202.285156 193.097656 202.308594 193.203125 C 201.992188 193.792969 201.71875 194.347656 201.367188 194.898438 C 201.011719 195.460938 200.628906 196 200.207031 196.515625 C 199.789062 197.03125 199.335938 197.515625 198.855469 197.972656 C 198.375 198.429688 197.867188 198.855469 197.332031 199.25 C 196.796875 199.640625 196.238281 200 195.660156 200.320312 C 195.078125 200.644531 194.480469 200.929688 193.863281 201.175781 C 193.25 201.421875 192.621094 201.625 191.976562 201.792969 C 191.335938 201.960938 190.6875 202.085938 190.027344 202.167969 C 189.371094 202.253906 188.710938 202.292969 188.046875 202.292969 C 187.382812 202.292969 186.722656 202.253906 186.066406 202.167969 C 185.40625 202.085938 184.757812 201.960938 184.117188 201.792969 C 183.472656 201.625 182.84375 201.421875 182.230469 201.175781 C 181.613281 200.929688 181.015625 200.644531 180.433594 200.320312 C 179.855469 200 179.296875 199.640625 178.761719 199.25 C 178.226562 198.855469 177.71875 198.429688 177.238281 197.972656 C 176.757812 197.515625 176.304688 197.03125 175.886719 196.515625 C 175.464844 196 175.082031 195.460938 174.726562 194.898438 Z M 151.628906 145.128906 C 153.828125 145.117188 155.988281 145.40625 158.109375 145.996094 C 158.332031 146.03125 158.554688 146.03125 158.777344 145.996094 C 159.328125 146 159.828125 145.839844 160.273438 145.523438 C 160.722656 145.203125 161.035156 144.78125 161.214844 144.261719 C 161.777344 142.699219 162.464844 141.195312 163.28125 139.75 C 164.09375 138.304688 165.027344 136.9375 166.070312 135.652344 C 167.117188 134.363281 168.261719 133.175781 169.507812 132.082031 C 170.753906 130.988281 172.082031 130.007812 173.496094 129.140625 C 174.90625 128.269531 176.378906 127.527344 177.914062 126.910156 C 179.453125 126.292969 181.03125 125.808594 182.648438 125.457031 C 184.265625 125.105469 185.902344 124.894531 187.554688 124.820312 C 189.210938 124.746094 190.855469 124.8125 192.5 125.019531 C 194.140625 125.226562 195.757812 125.570312 197.339844 126.046875 C 198.925781 126.527344 200.460938 127.136719 201.941406 127.875 C 203.425781 128.617188 204.832031 129.476562 206.171875 130.453125 C 207.507812 131.429688 208.753906 132.515625 209.910156 133.707031 C 211.066406 134.894531 212.113281 136.171875 213.050781 137.539062 C 213.992188 138.90625 214.808594 140.34375 215.507812 141.851562 C 216.203125 143.355469 216.769531 144.910156 217.207031 146.511719 C 217.640625 148.113281 217.941406 149.742188 218.101562 151.394531 C 218.179688 152.203125 218.546875 152.84375 219.203125 153.324219 C 219.644531 153.609375 220.128906 153.753906 220.65625 153.757812 C 220.890625 153.796875 221.125 153.796875 221.363281 153.757812 C 223.132812 153.253906 224.941406 153.003906 226.785156 153.007812 C 227.453125 153.007812 228.117188 153.042969 228.78125 153.105469 C 229.449219 153.171875 230.105469 153.269531 230.761719 153.402344 C 231.417969 153.53125 232.0625 153.695312 232.703125 153.890625 C 233.34375 154.082031 233.96875 154.308594 234.585938 154.566406 C 235.203125 154.820312 235.808594 155.109375 236.394531 155.421875 C 236.984375 155.738281 237.558594 156.082031 238.113281 156.457031 C 238.667969 156.828125 239.203125 157.226562 239.71875 157.652344 C 240.234375 158.074219 240.730469 158.527344 241.203125 159 C 241.675781 159.472656 242.121094 159.96875 242.546875 160.484375 C 242.96875 161.003906 243.367188 161.542969 243.738281 162.097656 C 244.109375 162.65625 244.453125 163.230469 244.765625 163.820312 C 245.082031 164.410156 245.367188 165.015625 245.621094 165.632812 C 245.878906 166.253906 246.101562 166.882812 246.296875 167.523438 C 246.488281 168.164062 246.652344 168.8125 246.78125 169.472656 C 246.914062 170.128906 247.011719 170.789062 247.074219 171.457031 C 247.140625 172.121094 247.175781 172.792969 247.175781 173.460938 C 247.175781 174.128906 247.140625 174.800781 247.074219 175.464844 C 247.011719 176.132812 246.914062 176.792969 246.78125 177.449219 C 246.652344 178.109375 246.488281 178.757812 246.296875 179.398438 C 246.101562 180.039062 245.878906 180.667969 245.621094 181.289062 C 245.367188 181.90625 245.082031 182.511719 244.765625 183.101562 C 244.453125 183.691406 244.109375 184.265625 243.738281 184.824219 C 243.367188 185.378906 242.96875 185.917969 242.546875 186.4375 C 242.121094 186.953125 241.675781 187.449219 241.203125 187.921875 C 240.730469 188.394531 240.234375 188.84375 239.71875 189.269531 C 239.203125 189.695312 238.667969 190.09375 238.113281 190.464844 C 237.558594 190.839844 236.984375 191.183594 236.394531 191.5 C 235.808594 191.8125 235.203125 192.101562 234.585938 192.355469 C 233.96875 192.613281 233.34375 192.839844 232.703125 193.03125 C 232.0625 193.226562 231.417969 193.390625 230.761719 193.519531 C 230.105469 193.652344 229.449219 193.75 228.78125 193.816406 C 228.117188 193.878906 227.453125 193.914062 226.785156 193.914062 L 206.867188 193.914062 L 207.0625 193.320312 C 207.183594 193.011719 207.289062 192.699219 207.375 192.375 C 207.375 192.023438 207.574219 191.707031 207.652344 191.390625 C 207.734375 191.078125 207.800781 190.765625 207.847656 190.445312 C 207.847656 190.050781 207.847656 189.65625 208.042969 189.261719 L 208.042969 188.476562 C 208.042969 187.804688 208.042969 187.09375 208.042969 186.425781 C 208.015625 185.753906 207.953125 185.085938 207.863281 184.421875 C 207.769531 183.757812 207.644531 183.097656 207.488281 182.445312 C 207.335938 181.792969 207.148438 181.148438 206.933594 180.511719 C 206.714844 179.875 206.46875 179.253906 206.191406 178.640625 C 205.917969 178.03125 205.613281 177.433594 205.277344 176.851562 C 204.945312 176.269531 204.585938 175.703125 204.199219 175.15625 C 203.8125 174.605469 203.402344 174.078125 202.964844 173.570312 C 202.527344 173.0625 202.066406 172.574219 201.582031 172.109375 C 201.097656 171.644531 200.59375 171.207031 200.070312 170.789062 C 199.542969 170.375 199 169.984375 198.4375 169.621094 C 197.875 169.257812 197.296875 168.917969 196.703125 168.609375 C 196.105469 168.300781 195.5 168.023438 194.878906 167.773438 C 194.257812 167.523438 193.625 167.304688 192.984375 167.113281 C 192.339844 166.921875 191.691406 166.765625 191.035156 166.636719 C 190.375 166.511719 189.714844 166.414062 189.046875 166.351562 C 188.382812 166.285156 187.714844 166.253906 187.046875 166.253906 C 186.375 166.253906 185.707031 166.285156 185.042969 166.351562 C 184.375 166.414062 183.714844 166.511719 183.054688 166.636719 C 182.398438 166.765625 181.75 166.921875 181.105469 167.113281 C 180.464844 167.304688 179.832031 167.523438 179.210938 167.773438 C 178.589844 168.023438 177.984375 168.300781 177.386719 168.609375 C 176.792969 168.917969 176.214844 169.257812 175.652344 169.621094 C 175.089844 169.984375 174.546875 170.375 174.019531 170.789062 C 173.496094 171.207031 172.992188 171.644531 172.507812 172.109375 C 172.023438 172.574219 171.5625 173.0625 171.125 173.570312 C 170.6875 174.078125 170.277344 174.605469 169.890625 175.15625 C 169.503906 175.703125 169.144531 176.269531 168.8125 176.851562 C 168.476562 177.433594 168.171875 178.03125 167.898438 178.640625 C 167.621094 179.253906 167.375 179.875 167.15625 180.511719 C 166.941406 181.148438 166.753906 181.792969 166.601562 182.445312 C 166.445312 183.097656 166.320312 183.757812 166.226562 184.421875 C 166.136719 185.085938 166.074219 185.753906 166.046875 186.425781 C 166.007812 187.109375 166.007812 187.792969 166.046875 188.476562 C 166.03125 188.738281 166.03125 189 166.046875 189.261719 C 166.046875 189.65625 166.046875 190.050781 166.046875 190.445312 L 166.28125 191.351562 L 166.515625 192.375 C 166.515625 192.691406 166.714844 193.007812 166.832031 193.320312 C 166.949219 193.636719 166.832031 193.714844 167.027344 193.914062 L 151.628906 193.914062 C 150.832031 193.914062 150.039062 193.875 149.246094 193.796875 C 148.457031 193.71875 147.671875 193.601562 146.890625 193.445312 C 146.109375 193.289062 145.339844 193.097656 144.578125 192.863281 C 143.820312 192.632812 143.070312 192.363281 142.335938 192.058594 C 141.601562 191.753906 140.882812 191.414062 140.183594 191.039062 C 139.480469 190.660156 138.800781 190.25 138.136719 189.808594 C 137.476562 189.367188 136.839844 188.890625 136.226562 188.386719 C 135.609375 187.878906 135.023438 187.34375 134.460938 186.78125 C 133.898438 186.214844 133.363281 185.625 132.859375 185.007812 C 132.355469 184.394531 131.882812 183.753906 131.441406 183.089844 C 130.996094 182.425781 130.589844 181.742188 130.214844 181.039062 C 129.839844 180.335938 129.5 179.617188 129.195312 178.878906 C 128.890625 178.140625 128.625 177.390625 128.394531 176.628906 C 128.164062 175.867188 127.96875 175.09375 127.816406 174.3125 C 127.660156 173.527344 127.542969 172.742188 127.464844 171.945312 C 127.386719 171.152344 127.347656 170.355469 127.347656 169.558594 C 127.347656 168.761719 127.386719 167.964844 127.464844 167.171875 C 127.542969 166.378906 127.660156 165.589844 127.816406 164.808594 C 127.96875 164.027344 128.164062 163.253906 128.394531 162.488281 C 128.625 161.726562 128.890625 160.976562 129.195312 160.238281 C 129.5 159.503906 129.839844 158.78125 130.214844 158.078125 C 130.589844 157.375 130.996094 156.691406 131.441406 156.03125 C 131.882812 155.367188 132.355469 154.726562 132.859375 154.109375 C 133.363281 153.492188 133.898438 152.902344 134.460938 152.339844 C 135.023438 151.773438 135.609375 151.238281 136.226562 150.734375 C 136.839844 150.226562 137.476562 149.753906 138.136719 149.308594 C 138.800781 148.867188 139.480469 148.457031 140.183594 148.082031 C 140.882812 147.707031 141.601562 147.367188 142.335938 147.058594 C 143.070312 146.753906 143.820312 146.488281 144.578125 146.253906 C 145.339844 146.023438 146.109375 145.828125 146.890625 145.675781 C 147.671875 145.519531 148.457031 145.402344 149.246094 145.324219 C 150.039062 145.246094 150.832031 145.207031 151.628906 145.207031 Z M 155.832031 251.289062 C 155.328125 251.292969 154.832031 251.246094 154.339844 251.148438 C 153.847656 251.054688 153.371094 250.910156 152.90625 250.71875 C 152.441406 250.53125 152 250.296875 151.582031 250.015625 C 151.164062 249.738281 150.777344 249.421875 150.421875 249.070312 C 150.066406 248.714844 149.746094 248.328125 149.46875 247.910156 C 149.1875 247.492188 148.949219 247.050781 148.757812 246.589844 C 148.566406 246.125 148.417969 245.644531 148.320312 245.152344 C 148.222656 244.660156 148.171875 244.160156 148.171875 243.65625 C 148.167969 243.15625 148.21875 242.65625 148.316406 242.164062 C 148.410156 241.667969 148.554688 241.191406 148.746094 240.726562 C 148.941406 240.261719 149.175781 239.816406 149.453125 239.398438 C 149.730469 238.980469 150.046875 238.59375 150.402344 238.238281 C 150.757812 237.882812 151.144531 237.566406 151.558594 237.285156 C 151.976562 237.007812 152.417969 236.769531 152.882812 236.578125 C 153.34375 236.386719 153.824219 236.242188 154.316406 236.144531 C 154.808594 236.046875 155.304688 236 155.804688 236 C 156.308594 236 156.804688 236.050781 157.296875 236.148438 C 157.785156 236.25 158.265625 236.394531 158.726562 236.589844 C 159.191406 236.78125 159.628906 237.019531 160.046875 237.300781 C 160.460938 237.582031 160.847656 237.898438 161.199219 238.257812 C 161.554688 238.613281 161.867188 239.003906 162.144531 239.421875 C 162.421875 239.839844 162.65625 240.285156 162.847656 240.75 C 163.035156 241.214844 163.179688 241.695312 163.273438 242.1875 C 163.371094 242.683594 163.417969 243.179688 163.414062 243.683594 C 163.414062 244.183594 163.363281 244.679688 163.269531 245.167969 C 163.171875 245.65625 163.027344 246.132812 162.835938 246.59375 C 162.644531 247.054688 162.414062 247.492188 162.136719 247.910156 C 161.859375 248.324219 161.542969 248.707031 161.191406 249.0625 C 160.839844 249.414062 160.457031 249.730469 160.042969 250.007812 C 159.628906 250.285156 159.191406 250.519531 158.734375 250.710938 C 158.273438 250.902344 157.796875 251.046875 157.308594 251.144531 C 156.820312 251.242188 156.328125 251.289062 155.832031 251.289062 Z M 254.71875 223.902344 C 254.21875 223.902344 253.726562 223.851562 253.238281 223.753906 C 252.75 223.65625 252.277344 223.515625 251.816406 223.324219 C 251.355469 223.132812 250.917969 222.898438 250.503906 222.621094 C 250.089844 222.34375 249.707031 222.027344 249.355469 221.675781 C 249.003906 221.320312 248.6875 220.9375 248.414062 220.519531 C 248.136719 220.105469 247.902344 219.667969 247.710938 219.207031 C 247.523438 218.746094 247.378906 218.269531 247.28125 217.78125 C 247.183594 217.289062 247.136719 216.796875 247.136719 216.296875 C 247.136719 215.796875 247.183594 215.300781 247.28125 214.8125 C 247.378906 214.324219 247.523438 213.847656 247.710938 213.386719 C 247.902344 212.925781 248.136719 212.484375 248.414062 212.070312 C 248.6875 211.65625 249.003906 211.269531 249.355469 210.917969 C 249.707031 210.566406 250.089844 210.25 250.503906 209.972656 C 250.917969 209.695312 251.355469 209.460938 251.816406 209.269531 C 252.277344 209.078125 252.75 208.933594 253.238281 208.835938 C 253.726562 208.738281 254.21875 208.691406 254.71875 208.691406 C 255.214844 208.691406 255.707031 208.738281 256.195312 208.835938 C 256.683594 208.933594 257.160156 209.078125 257.617188 209.269531 C 258.078125 209.460938 258.515625 209.695312 258.929688 209.972656 C 259.34375 210.25 259.726562 210.566406 260.078125 210.917969 C 260.429688 211.269531 260.746094 211.65625 261.023438 212.070312 C 261.296875 212.484375 261.53125 212.925781 261.722656 213.386719 C 261.914062 213.847656 262.058594 214.324219 262.152344 214.8125 C 262.25 215.300781 262.300781 215.796875 262.300781 216.296875 C 262.296875 216.792969 262.246094 217.289062 262.148438 217.777344 C 262.050781 218.265625 261.902344 218.742188 261.710938 219.199219 C 261.519531 219.660156 261.285156 220.097656 261.011719 220.511719 C 260.734375 220.925781 260.417969 221.308594 260.066406 221.664062 C 259.714844 222.015625 259.332031 222.332031 258.921875 222.609375 C 258.507812 222.886719 258.070312 223.121094 257.613281 223.3125 C 257.152344 223.503906 256.679688 223.648438 256.195312 223.75 C 255.707031 223.847656 255.214844 223.898438 254.71875 223.902344 Z M 254.71875 223.902344 " fill-opacity="1" fill-rule="nonzero"/></svg>