<svg xmlns="http://www.w3.org/2000/svg" xmlns:xlink="http://www.w3.org/1999/xlink" width="500" zoomAndPan="magnify" viewBox="0 0 375 374.999991" height="500" preserveAspectRatio="xMidYMid meet" version="1.0"><defs><clipPath id="fb6917c130"><path d="M 95 146.671875 L 109 146.671875 L 109 199 L 95 199 Z M 95 146.671875 " clip-rule="nonzero"/></clipPath><clipPath id="2fa8cbdd90"><path d="M 81.6875 146.671875 L 96 146.671875 L 96 200 L 81.6875 200 Z M 81.6875 146.671875 " clip-rule="nonzero"/></clipPath><clipPath id="5bf075e366"><path d="M 94 191 L 98 191 L 98 206.5 L 94 206.5 Z M 94 191 " clip-rule="nonzero"/></clipPath><clipPath id="dd7381880f"><path d="M 201 174 L 237.089844 174 L 237.089844 193 L 201 193 Z M 201 174 " clip-rule="nonzero"/></clipPath><clipPath id="e34fde361f"><path d="M 138 197 L 203 197 L 203 228.257812 L 138 228.257812 Z M 138 197 " clip-rule="nonzero"/></clipPath></defs><g clip-path="url(#fb6917c130)"><path fill="#599636" d="M 95.109375 146.898438 L 96.710938 149.898438 C 97.058594 150.441406 97.460938 150.941406 97.917969 151.394531 C 99.257812 152.730469 100.535156 154.132812 101.675781 155.628906 C 104.386719 159.179688 106.21875 163.121094 107.523438 167.390625 C 108.308594 169.996094 108.734375 172.667969 108.765625 175.371094 C 108.898438 183.449219 106.121094 190.386719 100.5 196.152344 C 99.585938 197.070312 98.605469 197.90625 97.558594 198.660156 C 97 198.660156 96.742188 198.222656 96.511719 197.847656 C 96.070312 197.117188 95.824219 196.316406 95.695312 195.503906 C 95.5 194.523438 95.367188 193.546875 95.433594 192.539062 L 95.433594 192.082031 C 95.402344 191.984375 94.910156 147.128906 95.105469 146.902344 Z M 95.109375 146.898438 " fill-opacity="1" fill-rule="nonzero"/></g><g clip-path="url(#2fa8cbdd90)"><path fill="#6cac48" d="M 95.109375 146.804688 C 95.042969 146.671875 94.980469 146.769531 94.914062 146.835938 C 94.945312 147.488281 94.71875 148.074219 94.355469 148.628906 C 93.964844 149.183594 93.441406 149.605469 92.917969 150.0625 C 90.011719 152.570312 87.722656 155.597656 85.890625 158.984375 C 83.472656 163.546875 82.199219 168.433594 81.84375 173.578125 C 81.679688 175.4375 82.429688 181.984375 83.019531 183.871094 C 84.617188 188.890625 87.496094 193.089844 91.238281 196.738281 C 92.152344 197.617188 93.132812 198.433594 94.144531 199.210938 C 94.4375 199.210938 94.472656 198.953125 94.535156 198.757812 C 94.664062 198.339844 94.765625 197.917969 94.832031 197.484375 C 95.125 195.859375 95.289062 194.226562 95.484375 192.601562 L 95.125 146.804688 Z M 95.109375 146.804688 " fill-opacity="1" fill-rule="nonzero"/></g><g clip-path="url(#5bf075e366)"><path fill="#c2bfbf" d="M 96.714844 200.648438 C 96.78125 199.898438 97.15625 199.28125 97.53125 198.660156 C 97.140625 198.5 96.84375 198.171875 96.617188 197.8125 C 96.417969 197.488281 96.257812 197.082031 96.125 196.738281 C 95.667969 195.371094 95.570312 193.9375 95.441406 192.535156 L 95.441406 191.6875 C 95.277344 191.820312 95.242188 192.925781 95.242188 193.089844 C 95.144531 194.585938 94.949219 196.054688 94.65625 197.484375 C 94.558594 198.070312 94.496094 198.660156 94.132812 199.179688 C 94.132812 199.246094 94.132812 199.3125 94.164062 199.40625 C 94.753906 201.132812 94.917969 202.894531 95.015625 204.683594 L 95.015625 205.335938 C 95.015625 206.117188 94.984375 205.953125 95.636719 206.214844 C 95.898438 206.3125 96.195312 206.34375 96.453125 206.539062 C 96.652344 206.539062 96.683594 206.378906 96.683594 206.246094 L 96.585938 205.171875 L 96.585938 202.171875 C 96.554688 201.652344 96.652344 201.128906 96.71875 200.640625 Z M 96.714844 200.648438 " fill-opacity="1" fill-rule="nonzero"/></g><path fill="#47474a" d="M 121.527344 187.023438 L 121.527344 190.125 C 121.523438 190.25 121.53125 190.371094 121.550781 190.492188 C 121.589844 190.859375 121.816406 191.085938 122.148438 191.1875 C 122.460938 191.269531 122.773438 191.332031 123.09375 191.371094 C 123.277344 191.390625 123.339844 191.472656 123.359375 191.671875 C 123.378906 192.363281 123.320312 192.445312 122.644531 192.40625 C 121.066406 192.324219 119.488281 192.304688 117.914062 192.40625 L 117.761719 192.40625 C 117.273438 192.425781 117.230469 192.382812 117.230469 191.894531 C 117.230469 191.8125 117.253906 191.710938 117.253906 191.628906 C 117.253906 191.480469 117.355469 191.402344 117.5 191.402344 C 117.828125 191.363281 118.132812 191.28125 118.441406 191.21875 C 118.871094 191.117188 119.117188 190.851562 119.160156 190.425781 C 119.21875 189.957031 119.21875 189.464844 119.21875 188.996094 L 119.238281 183.527344 C 119.253906 183.171875 119.105469 182.914062 118.789062 182.75 C 118.417969 182.542969 118.027344 182.378906 117.621094 182.257812 C 117.5 182.21875 117.375 182.199219 117.273438 182.136719 C 116.972656 181.992188 116.964844 181.730469 117.253906 181.566406 C 117.355469 181.503906 117.476562 181.464844 117.601562 181.441406 C 118.847656 181.257812 120.058594 180.953125 121.242188 180.523438 C 121.488281 180.441406 121.550781 180.464844 121.574219 180.707031 C 121.59375 180.855469 121.574219 181.035156 121.554688 181.175781 C 121.511719 181.441406 121.511719 181.707031 121.511719 181.953125 C 121.511719 182.054688 121.535156 182.15625 121.636719 182.21875 C 121.738281 182.28125 121.839844 182.21875 121.933594 182.160156 C 122.363281 181.832031 122.792969 181.527344 123.265625 181.261719 C 123.941406 180.894531 124.660156 180.570312 125.4375 180.46875 C 126.382812 180.34375 127.199219 180.589844 127.917969 181.203125 C 128.214844 181.46875 128.472656 181.765625 128.695312 182.097656 C 128.898438 182.398438 128.917969 182.40625 129.1875 182.199219 C 129.964844 181.628906 130.78125 181.121094 131.664062 180.753906 C 132.585938 180.363281 133.527344 180.304688 134.46875 180.628906 C 135.429688 180.976562 136.085938 181.648438 136.476562 182.570312 C 136.804688 183.304688 136.945312 184.0625 136.945312 184.855469 L 136.945312 190.324219 C 136.945312 190.691406 137.097656 190.921875 137.460938 191.097656 C 137.847656 191.25 138.28125 191.324219 138.6875 191.40625 C 138.957031 191.464844 138.957031 191.464844 138.957031 191.734375 C 138.914062 192.40625 138.851562 192.449219 138.195312 192.40625 C 136.550781 192.316406 134.90625 192.316406 133.261719 192.40625 C 132.933594 192.425781 132.933594 192.425781 132.914062 192.101562 L 132.914062 192 C 132.894531 191.445312 132.894531 191.445312 133.425781 191.328125 L 133.960938 191.183594 C 134.144531 191.140625 134.296875 191.042969 134.414062 190.894531 C 134.535156 190.746094 134.59375 190.578125 134.59375 190.386719 L 134.65625 188.855469 L 134.613281 184.855469 C 134.597656 184.496094 134.523438 184.148438 134.390625 183.816406 C 133.878906 182.570312 132.75 182.121094 131.664062 182.246094 C 130.847656 182.328125 130.128906 182.652344 129.453125 183.121094 C 129.308594 183.222656 129.207031 183.347656 129.230469 183.550781 C 129.414062 184.859375 129.289062 186.164062 129.3125 187.46875 L 129.3125 190.308594 C 129.3125 190.820312 129.515625 191.0625 130.007812 191.1875 L 130.953125 191.390625 C 131.097656 191.410156 131.175781 191.472656 131.175781 191.636719 L 131.175781 191.785156 C 131.15625 192.355469 131.117188 192.382812 130.542969 192.375 C 128.902344 192.292969 127.265625 192.316406 125.648438 192.375 C 125.09375 192.398438 125.046875 192.335938 125.074219 191.777344 C 125.09375 191.449219 125.132812 191.433594 125.441406 191.371094 L 126.117188 191.25 C 126.714844 191.125 126.9375 190.902344 126.976562 190.269531 L 127.035156 188.902344 L 126.996094 184.796875 C 126.957031 184.289062 126.847656 183.796875 126.566406 183.328125 C 126.15625 182.574219 125.515625 182.1875 124.640625 182.144531 C 123.761719 182.085938 122.980469 182.410156 122.242188 182.816406 C 121.730469 183.113281 121.507812 183.46875 121.546875 184.0625 L 121.546875 187.042969 Z M 160.109375 187.148438 L 160.109375 190.027344 C 160.109375 190.230469 160.125 190.433594 160.148438 190.636719 C 160.15625 190.777344 160.207031 190.898438 160.296875 191.003906 C 160.390625 191.113281 160.503906 191.179688 160.640625 191.210938 C 160.996094 191.3125 161.355469 191.375 161.726562 191.394531 C 161.929688 191.414062 161.96875 191.496094 161.992188 191.660156 L 161.992188 191.804688 C 161.96875 192.515625 161.890625 192.597656 161.191406 192.558594 C 159.632812 192.457031 158.082031 192.476562 156.523438 192.558594 L 155.925781 192.578125 C 155.800781 192.578125 155.773438 192.519531 155.738281 192.4375 C 155.679688 192.152344 155.679688 191.863281 155.738281 191.578125 C 155.761719 191.457031 155.84375 191.429688 155.964844 191.394531 C 156.265625 191.355469 156.519531 191.292969 156.804688 191.246094 C 157.316406 191.125 157.5 190.917969 157.519531 190.390625 L 157.582031 188.675781 L 157.582031 183.652344 C 157.582031 183.285156 157.4375 183.0625 157.109375 182.898438 C 156.742188 182.691406 156.351562 182.550781 155.941406 182.40625 C 155.816406 182.367188 155.695312 182.324219 155.59375 182.265625 C 155.328125 182.082031 155.292969 181.816406 155.554688 181.609375 C 155.671875 181.511719 155.808594 181.457031 155.960938 181.445312 C 157.273438 181.242188 158.542969 180.957031 159.769531 180.46875 C 159.914062 180.40625 159.976562 180.445312 160.039062 180.570312 C 160.097656 180.691406 160.121094 180.835938 160.097656 180.976562 L 160.039062 181.933594 C 160.039062 182.058594 159.976562 182.234375 160.078125 182.28125 C 160.199219 182.363281 160.285156 182.179688 160.386719 182.132812 C 160.992188 181.625 161.65625 181.203125 162.371094 180.867188 C 163.007812 180.570312 163.660156 180.378906 164.398438 180.417969 C 165.773438 180.5 166.753906 181.195312 167.386719 182.398438 C 167.71875 183.03125 167.859375 183.726562 167.921875 184.441406 L 167.980469 185.933594 L 168 190.445312 C 168.023438 190.792969 168.144531 191.015625 168.492188 191.140625 C 168.855469 191.261719 169.222656 191.347656 169.597656 191.40625 C 169.929688 191.445312 169.945312 191.507812 169.96875 191.8125 L 169.96875 191.914062 C 169.925781 192.609375 169.886719 192.628906 169.1875 192.585938 C 167.660156 192.503906 166.128906 192.503906 164.601562 192.585938 C 164.394531 192.609375 164.191406 192.585938 164.003906 192.609375 C 163.878906 192.609375 163.796875 192.585938 163.777344 192.464844 C 163.738281 192.199219 163.695312 191.933594 163.757812 191.648438 C 163.777344 191.523438 163.839844 191.464844 163.980469 191.441406 L 164.925781 191.292969 C 165.253906 191.210938 165.4375 190.996094 165.480469 190.695312 L 165.519531 190.125 L 165.5 185.859375 C 165.5 185.367188 165.476562 184.878906 165.375 184.390625 C 165.128906 183.34375 164.332031 182.597656 163.25 182.492188 C 162.304688 182.390625 161.449219 182.636719 160.667969 183.144531 C 160.277344 183.390625 160.113281 183.738281 160.113281 184.164062 L 160.113281 187.246094 C 160.113281 187.1875 160.113281 187.1875 160.136719 187.1875 Z M 160.109375 187.148438 " fill-opacity="1" fill-rule="nonzero"/><g clip-path="url(#dd7381880f)"><path fill="#c2bfbf" d="M 220.078125 181.371094 C 219.851562 179.878906 219.300781 178.554688 218.335938 177.390625 C 217.484375 176.347656 216.433594 175.570312 215.183594 175.0625 C 213.894531 174.53125 212.519531 174.367188 211.128906 174.328125 C 210.554688 174.308594 202.734375 174.429688 202.160156 174.328125 C 202.015625 174.308594 201.914062 174.347656 201.828125 174.472656 C 201.726562 174.621094 201.625 174.777344 201.5625 174.941406 C 201.316406 175.492188 201.316406 175.453125 201.910156 175.53125 C 202.402344 175.613281 202.871094 175.65625 203.34375 175.796875 C 203.773438 175.941406 204.082031 176.1875 204.183594 176.65625 C 204.222656 176.878906 204.265625 184.0625 204.265625 187.410156 L 204.183594 189.800781 C 204.164062 189.984375 204.144531 190.167969 204.082031 190.332031 C 204 190.578125 203.855469 190.78125 203.609375 190.882812 C 203.339844 191.011719 203.050781 191.085938 202.75 191.109375 C 202.195312 191.167969 202.117188 191.191406 201.929688 191.804688 L 201.871094 192.027344 C 201.832031 192.292969 201.851562 192.332031 202.117188 192.332031 L 208.238281 192.394531 L 210.636719 192.351562 L 212.296875 192.148438 C 214.179688 191.800781 215.859375 191.023438 217.292969 189.78125 C 218.117188 189.054688 218.773438 188.195312 219.257812 187.207031 C 219.832031 186.066406 220.078125 184.820312 220.136719 183.554688 C 220.238281 182.839844 220.199219 182.105469 220.078125 181.371094 Z M 217.109375 184.269531 C 217.027344 185.574219 216.761719 186.839844 216.085938 187.984375 C 215.226562 189.472656 213.996094 190.515625 212.296875 190.878906 C 211.558594 191.03125 210.824219 191.105469 210.050781 191.003906 C 209.496094 190.941406 208.964844 190.878906 208.453125 190.695312 C 207.53125 190.367188 207.203125 189.800781 207.183594 188.902344 L 207.160156 176.597656 C 207.160156 175.863281 207.492188 175.699219 208.023438 175.679688 C 208.820312 175.617188 209.640625 175.636719 210.4375 175.71875 C 211.292969 175.800781 212.121094 176 212.917969 176.316406 C 213.511719 176.5625 214.050781 176.898438 214.535156 177.316406 C 215.640625 178.257812 216.378906 179.4375 216.785156 180.828125 C 217.113281 181.949219 217.171875 183.09375 217.113281 184.234375 Z M 237.097656 186.269531 C 237.097656 186.148438 237.097656 186.046875 237.074219 185.921875 C 236.890625 184.800781 236.296875 183.941406 235.375 183.289062 C 234.785156 182.859375 234.109375 182.574219 233.410156 182.371094 C 233.289062 182.332031 233.1875 182.289062 233.0625 182.269531 C 233.085938 182.167969 233.144531 182.148438 233.207031 182.125 C 233.617188 181.921875 234.003906 181.699219 234.351562 181.390625 C 234.988281 180.863281 235.402344 180.207031 235.621094 179.410156 C 235.746094 178.984375 235.746094 178.554688 235.703125 178.105469 C 235.671875 177.570312 235.523438 177.074219 235.261719 176.605469 C 235 176.140625 234.648438 175.757812 234.210938 175.449219 C 233.265625 174.753906 232.160156 174.46875 231.015625 174.449219 C 228.804688 174.410156 226.574219 174.449219 224.363281 174.449219 C 223.726562 174.449219 223.09375 174.488281 222.4375 174.390625 C 222.3125 174.367188 222.136719 174.328125 222.046875 174.472656 C 221.898438 174.738281 221.71875 175.003906 221.65625 175.308594 C 221.636719 175.453125 221.679688 175.53125 221.84375 175.554688 L 223.253906 175.757812 C 223.808594 175.839844 224.199219 176.144531 224.238281 176.636719 C 224.277344 176.976562 224.296875 177.316406 224.296875 177.65625 L 224.257812 181.472656 L 224.234375 189.023438 C 224.234375 189.472656 224.175781 189.902344 224.09375 190.351562 C 224.046875 190.667969 223.871094 190.871094 223.558594 190.960938 C 223.152344 191.085938 222.761719 191.207031 222.332031 191.207031 C 222.214844 191.195312 222.105469 191.222656 222.003906 191.289062 C 221.90625 191.351562 221.835938 191.441406 221.800781 191.554688 C 221.71875 191.738281 221.648438 191.941406 221.617188 192.125 C 221.574219 192.371094 221.636719 192.453125 221.882812 192.425781 C 222.066406 192.402344 228.824219 192.566406 230.09375 192.445312 C 230.851562 192.363281 231.59375 192.261719 232.34375 192.039062 C 233.632812 191.628906 234.824219 191.035156 235.765625 190.035156 C 236.542969 189.21875 236.992188 188.238281 237.035156 187.097656 C 237.09375 186.832031 237.09375 186.566406 237.09375 186.28125 Z M 227.164062 177.90625 L 227.226562 176.273438 C 227.226562 175.96875 227.347656 175.824219 227.65625 175.761719 C 228.148438 175.660156 228.636719 175.703125 229.128906 175.722656 C 229.621094 175.761719 230.09375 175.824219 230.582031 175.96875 C 231.484375 176.234375 232.179688 176.742188 232.589844 177.597656 C 232.78125 177.992188 232.875 178.410156 232.878906 178.84375 C 232.898438 179.417969 232.855469 179.96875 232.632812 180.519531 C 232.285156 181.273438 231.734375 181.761719 230.933594 181.90625 C 230.132812 182.050781 227.859375 181.988281 227.511719 181.988281 C 227.207031 181.988281 227.183594 181.949219 227.183594 181.640625 L 227.183594 179.71875 C 227.136719 179.121094 227.128906 178.523438 227.164062 177.921875 Z M 233.820312 188.886719 C 233.472656 189.804688 232.835938 190.441406 231.933594 190.78125 C 231.445312 190.964844 230.953125 191.082031 230.4375 191.046875 C 229.800781 191.027344 229.167969 191.046875 228.535156 190.925781 C 227.671875 190.742188 227.285156 189.925781 227.222656 189.335938 C 227.121094 188.292969 227.183594 187.230469 227.164062 186.457031 L 227.164062 183.761719 C 227.164062 183.433594 227.203125 183.332031 227.550781 183.332031 L 229.476562 183.355469 L 230.789062 183.503906 C 231.710938 183.707031 232.550781 184.054688 233.207031 184.769531 C 233.738281 185.339844 234.023438 186.035156 234.085938 186.789062 C 234.148438 187.503906 234.109375 188.199219 233.839844 188.871094 Z M 233.820312 188.886719 " fill-opacity="1" fill-rule="nonzero"/></g><path fill="#47474a" d="M 181.792969 182.738281 L 182.324219 182.820312 C 182.898438 182.839844 183.574219 182.636719 183.78125 181.839844 C 183.894531 181.453125 183.894531 181.0625 183.78125 180.675781 C 183.65625 180.675781 183.59375 180.777344 183.535156 180.816406 C 183.226562 181.0625 182.878906 181.207031 182.511719 181.246094 C 181.773438 181.328125 181.035156 181.285156 180.320312 181.023438 L 179.316406 180.675781 C 178.609375 180.445312 177.886719 180.351562 177.144531 180.390625 C 176.097656 180.472656 175.117188 180.820312 174.195312 181.3125 C 173.210938 181.839844 172.515625 182.636719 172.1875 183.71875 C 172.003906 184.351562 171.980469 185.003906 172.0625 185.660156 C 172.269531 187.148438 173.046875 188.191406 174.4375 188.742188 C 174.519531 188.761719 174.582031 188.800781 174.664062 188.824219 C 174.847656 188.925781 174.867188 189.027344 174.703125 189.171875 L 174.191406 189.515625 L 172.960938 190.273438 C 172.65625 190.457031 172.613281 190.601562 172.71875 190.925781 C 172.839844 191.3125 173.058594 191.640625 173.371094 191.90625 C 173.65625 192.148438 173.96875 192.335938 174.3125 192.476562 C 174.539062 192.578125 174.539062 192.625 174.335938 192.804688 L 173.167969 193.640625 C 172.777344 193.941406 172.386719 194.238281 172.0625 194.621094 C 171.828125 194.867188 171.671875 195.152344 171.585938 195.480469 C 171.496094 195.804688 171.492188 196.128906 171.570312 196.457031 C 171.726562 197.183594 172.078125 197.796875 172.632812 198.296875 C 173.175781 198.792969 173.800781 199.136719 174.515625 199.316406 C 175.664062 199.644531 176.851562 199.660156 178.019531 199.4375 C 179.695312 199.132812 181.164062 198.394531 182.320312 197.132812 C 183.117188 196.296875 183.585938 195.316406 183.628906 194.144531 C 183.652344 193.804688 183.617188 193.472656 183.519531 193.148438 C 183.421875 192.824219 183.273438 192.523438 183.070312 192.25 C 182.871094 191.976562 182.625 191.75 182.339844 191.5625 C 182.058594 191.375 181.75 191.242188 181.417969 191.164062 L 180.3125 190.960938 L 176.933594 190.660156 C 176.566406 190.640625 176.195312 190.578125 175.890625 190.394531 C 175.5 190.152344 175.398438 189.683594 175.644531 189.375 C 175.828125 189.152344 176.050781 189.007812 176.339844 188.988281 L 176.996094 188.929688 C 178.324219 188.792969 179.480469 188.269531 180.453125 187.355469 C 180.972656 186.878906 181.320312 186.300781 181.5 185.621094 C 181.746094 184.742188 181.746094 183.828125 181.539062 182.933594 C 181.480469 182.707031 181.5 182.6875 181.785156 182.726562 Z M 176.773438 192.902344 C 176.898438 192.925781 177.019531 192.902344 177.144531 192.902344 C 178.003906 192.945312 178.882812 193.003906 179.722656 193.230469 C 179.996094 193.3125 180.265625 193.414062 180.523438 193.539062 C 181.339844 193.988281 181.648438 194.761719 181.546875 195.601562 C 181.421875 196.519531 180.910156 197.171875 180.113281 197.601562 C 179.578125 197.898438 178.984375 198.03125 178.371094 198.089844 C 178.144531 198.113281 177.941406 198.089844 177.714844 198.089844 C 177 198.113281 176.300781 198.03125 175.625 197.746094 C 175.15625 197.5625 174.765625 197.296875 174.417969 196.925781 C 173.703125 196.214844 173.371094 194.90625 174.441406 193.84375 C 175.09375 193.246094 175.832031 192.824219 176.773438 192.902344 Z M 179.109375 186.535156 C 178.679688 187.617188 177.738281 187.945312 176.796875 187.800781 C 175.933594 187.679688 175.300781 187.207031 174.894531 186.433594 C 174.359375 185.390625 174.21875 184.3125 174.523438 183.1875 C 174.75 182.351562 175.261719 181.71875 176.160156 181.574219 C 177.308594 181.371094 178.410156 181.777344 178.988281 182.921875 C 179.289062 183.472656 179.417969 184.144531 179.417969 185.105469 C 179.398438 185.492188 179.316406 186.023438 179.109375 186.535156 Z M 153.308594 185.144531 C 153.125 184.042969 152.714844 183.042969 151.957031 182.207031 C 150.832031 180.960938 149.398438 180.414062 147.78125 180.410156 C 146.367188 180.390625 145.039062 180.796875 143.847656 181.535156 C 142.632812 182.257812 141.835938 183.296875 141.453125 184.65625 C 141.105469 185.839844 141.125 187.046875 141.394531 188.25 C 142.109375 191.472656 144.609375 192.859375 147.597656 192.65625 C 148.476562 192.597656 149.316406 192.3125 150.113281 191.921875 C 151.300781 191.371094 152.160156 190.492188 152.753906 189.328125 C 153.226562 188.371094 153.429688 187.347656 153.410156 186.1875 Z M 150.402344 189.679688 C 150.253906 190.148438 149.988281 190.539062 149.605469 190.847656 C 149.222656 191.160156 148.785156 191.339844 148.292969 191.390625 C 147.394531 191.515625 146.550781 191.289062 145.796875 190.757812 C 145.242188 190.351562 144.8125 189.84375 144.503906 189.226562 C 143.667969 187.511719 143.523438 185.71875 143.949219 183.882812 C 144.089844 183.300781 144.378906 182.804688 144.8125 182.390625 C 145.570312 181.695312 146.449219 181.535156 147.433594 181.738281 C 148.378906 181.941406 149.089844 182.453125 149.679688 183.230469 C 150.269531 184.003906 150.539062 184.902344 150.703125 185.84375 C 150.785156 186.3125 150.785156 186.800781 150.804688 187.105469 C 150.804688 188.085938 150.722656 188.898438 150.417969 189.679688 Z M 198.050781 185.3125 C 197.902344 184.125 197.457031 183.042969 196.617188 182.148438 C 195.511719 180.945312 194.078125 180.433594 192.480469 180.410156 C 191.109375 180.390625 189.839844 180.777344 188.671875 181.453125 C 187.363281 182.230469 186.460938 183.332031 186.113281 184.820312 C 185.6875 186.5 185.847656 188.117188 186.605469 189.679688 C 187.28125 191.105469 188.425781 192.027344 189.945312 192.433594 C 191.621094 192.882812 193.222656 192.679688 194.777344 191.921875 C 196.128906 191.269531 197.089844 190.25 197.644531 188.859375 C 197.972656 188.042969 198.09375 187.167969 198.113281 186.144531 C 198.132812 185.960938 198.09375 185.632812 198.054688 185.308594 Z M 195.226562 189.414062 C 194.894531 190.515625 194.203125 191.230469 193.035156 191.394531 C 192.175781 191.515625 191.355469 191.3125 190.617188 190.820312 C 189.984375 190.394531 189.535156 189.820312 189.207031 189.148438 C 188.835938 188.433594 188.632812 187.679688 188.550781 186.902344 C 188.425781 185.945312 188.425781 185.007812 188.652344 184.046875 C 188.695312 183.855469 188.757812 183.671875 188.835938 183.496094 C 189.410156 182.066406 190.679688 181.414062 192.175781 181.742188 C 193.179688 181.964844 193.9375 182.519531 194.507812 183.355469 C 195.0625 184.171875 195.328125 185.070312 195.453125 186.042969 C 195.511719 186.429688 195.535156 186.839844 195.511719 187.183594 C 195.511719 187.980469 195.453125 188.714844 195.214844 189.429688 Z M 195.226562 189.414062 " fill-opacity="1" fill-rule="nonzero"/><g clip-path="url(#e34fde361f)"><path fill="#00618a" d="M 138.484375 221.207031 L 143.566406 221.207031 L 143.566406 201.164062 L 151.433594 218.644531 C 152.359375 220.75 153.632812 221.507812 156.125 221.507812 C 158.617188 221.507812 159.835938 220.757812 160.765625 218.644531 L 168.632812 201.164062 L 168.632812 221.214844 L 173.71875 221.214844 L 173.71875 201.195312 C 173.71875 199.242188 172.933594 198.296875 171.320312 197.808594 C 167.460938 196.605469 164.871094 197.648438 163.699219 200.25 L 155.980469 217.503906 L 148.5 200.246094 C 147.378906 197.640625 144.738281 196.597656 140.878906 197.804688 C 139.265625 198.292969 138.484375 199.234375 138.484375 201.1875 Z M 177.941406 204.886719 L 183.019531 204.886719 L 183.019531 215.933594 C 182.972656 216.535156 183.214844 217.945312 185.996094 217.988281 C 187.417969 218.011719 196.960938 217.988281 197.046875 217.988281 L 197.046875 204.832031 L 202.140625 204.832031 C 202.164062 204.832031 202.136719 222.769531 202.136719 222.847656 C 202.164062 227.269531 196.640625 228.230469 194.097656 228.304688 L 178.050781 228.304688 L 178.050781 224.890625 L 194.125 224.890625 C 197.398438 224.542969 197.011719 222.917969 197.011719 222.371094 L 197.011719 221.039062 L 186.210938 221.039062 C 181.183594 220.996094 177.984375 218.800781 177.945312 216.28125 C 177.941406 216.054688 178.054688 204.996094 177.941406 204.886719 Z M 177.941406 204.886719 " fill-opacity="1" fill-rule="nonzero"/></g><path fill="#e48e00" d="M 206.058594 221.207031 L 220.667969 221.207031 C 222.378906 221.207031 224.039062 220.851562 225.359375 220.230469 C 227.558594 219.222656 228.632812 217.855469 228.632812 216.066406 L 228.632812 212.355469 C 228.632812 210.890625 227.414062 209.523438 225.019531 208.609375 C 223.75 208.121094 222.183594 207.863281 220.671875 207.863281 L 214.511719 207.863281 C 212.460938 207.863281 211.484375 207.242188 211.238281 205.875 C 211.191406 205.714844 211.191406 205.574219 211.191406 205.421875 L 211.191406 203.109375 C 211.191406 202.980469 211.191406 202.847656 211.238281 202.6875 C 211.484375 201.644531 212.019531 201.351562 213.828125 201.179688 C 213.976562 201.179688 214.171875 201.148438 214.320312 201.148438 L 228.832031 201.148438 L 228.832031 197.761719 L 214.5625 197.761719 C 212.511719 197.761719 211.433594 197.894531 210.457031 198.1875 C 207.425781 199.128906 206.105469 200.636719 206.105469 203.238281 L 206.105469 206.203125 C 206.105469 208.480469 208.695312 210.433594 213.042969 210.890625 C 213.53125 210.921875 214.019531 210.953125 214.507812 210.953125 L 219.785156 210.953125 C 219.980469 210.953125 220.179688 210.953125 220.324219 210.988281 C 221.9375 211.117188 222.621094 211.410156 223.109375 211.996094 C 223.410156 212.296875 223.5 212.582031 223.5 212.898438 L 223.5 215.863281 C 223.5 216.21875 223.257812 216.675781 222.769531 217.066406 C 222.328125 217.457031 221.59375 217.71875 220.617188 217.78125 C 220.421875 217.78125 220.277344 217.816406 220.082031 217.816406 L 206.054688 217.816406 L 206.054688 221.199219 Z M 260.335938 215.316406 C 260.335938 218.800781 262.925781 220.753906 268.152344 221.144531 C 268.640625 221.179688 269.128906 221.203125 269.621094 221.207031 L 282.863281 221.207031 L 282.863281 217.824219 L 269.523438 217.824219 C 266.542969 217.824219 265.417969 217.074219 265.417969 215.285156 L 265.417969 197.769531 L 260.335938 197.769531 Z M 231.875 215.492188 L 231.875 203.425781 C 231.875 200.359375 234.03125 198.5 238.289062 197.910156 C 238.746094 197.847656 239.203125 197.8125 239.664062 197.8125 L 249.308594 197.8125 C 249.785156 197.8125 250.257812 197.847656 250.730469 197.910156 C 254.988281 198.5 257.144531 200.355469 257.144531 203.425781 L 257.144531 215.492188 C 257.144531 217.980469 256.226562 219.3125 254.117188 220.179688 L 259.125 224.695312 L 253.222656 224.695312 L 249.175781 221.042969 L 245.097656 221.300781 L 239.664062 221.300781 C 238.730469 221.300781 237.753906 221.167969 236.675781 220.875 C 233.4375 219.996094 231.878906 218.296875 231.878906 215.492188 Z M 237.363281 215.191406 C 237.363281 215.355469 237.410156 215.519531 237.460938 215.714844 C 237.761719 217.117188 239.074219 217.898438 241.074219 217.898438 L 245.691406 217.898438 L 241.453125 214.074219 L 247.351562 214.074219 L 251.042969 217.410156 C 251.722656 217.046875 252.171875 216.492188 252.324219 215.78125 C 252.371094 215.617188 252.371094 215.453125 252.371094 215.289062 L 252.371094 203.71875 C 252.371094 203.589844 252.371094 203.417969 252.324219 203.261719 C 252.023438 201.957031 250.707031 201.207031 248.75 201.207031 L 241.089844 201.207031 C 238.828125 201.207031 237.367188 202.183594 237.367188 203.71875 L 237.367188 215.199219 Z M 237.363281 215.191406 " fill-opacity="1" fill-rule="nonzero"/><path fill="#00618a" d="M 287.332031 192.152344 C 284.207031 192.070312 281.820312 192.359375 279.78125 193.21875 C 279.199219 193.464844 278.277344 193.46875 278.179688 194.195312 C 278.5 194.527344 278.550781 195.027344 278.800781 195.4375 C 279.289062 196.226562 280.113281 197.28125 280.847656 197.832031 C 281.648438 198.4375 282.472656 199.085938 283.332031 199.609375 C 284.863281 200.542969 286.570312 201.074219 288.042969 202.007812 C 288.910156 202.554688 289.769531 203.25 290.617188 203.871094 C 291.035156 204.175781 291.316406 204.652344 291.859375 204.847656 L 291.859375 204.757812 C 291.574219 204.394531 291.5 203.894531 291.238281 203.515625 L 290.085938 202.363281 C 288.953125 200.855469 287.523438 199.550781 285.996094 198.457031 C 284.78125 197.582031 282.0625 196.40625 281.554688 194.992188 L 281.46875 194.90625 C 282.328125 194.804688 283.335938 194.496094 284.132812 194.285156 C 285.46875 193.925781 286.664062 194.019531 288.042969 193.664062 L 289.910156 193.128906 L 289.910156 192.773438 C 289.210938 192.058594 288.714844 191.113281 287.953125 190.46875 C 285.964844 188.773438 283.792969 187.082031 281.558594 185.671875 C 280.320312 184.890625 278.789062 184.382812 277.472656 183.71875 C 277.03125 183.496094 276.253906 183.382812 275.964844 183.007812 C 275.273438 182.128906 274.898438 181.015625 274.363281 180 C 273.25 177.855469 272.15625 175.511719 271.167969 173.253906 C 270.492188 171.714844 270.050781 170.195312 269.214844 168.8125 C 265.179688 162.1875 260.835938 158.1875 254.113281 154.257812 C 252.683594 153.421875 250.960938 153.09375 249.136719 152.660156 L 246.207031 152.484375 C 245.609375 152.234375 244.988281 151.503906 244.429688 151.152344 C 242.203125 149.742188 236.488281 146.683594 234.835938 150.699219 C 233.792969 153.238281 236.394531 155.714844 237.324219 157 C 237.976562 157.90625 238.8125 158.914062 239.277344 159.929688 C 239.582031 160.597656 239.636719 161.265625 239.898438 161.972656 C 240.542969 163.703125 241.105469 165.601562 241.941406 167.210938 C 242.363281 168.023438 242.828125 168.878906 243.363281 169.605469 C 243.691406 170.050781 244.253906 170.25 244.339844 170.9375 C 243.792969 171.707031 243.761719 172.894531 243.453125 173.867188 C 242.0625 178.242188 242.585938 183.679688 244.605469 186.914062 C 245.226562 187.910156 246.683594 190.039062 248.691406 189.222656 C 250.445312 188.507812 250.046875 186.296875 250.558594 184.34375 C 250.671875 183.898438 250.601562 183.574219 250.824219 183.277344 L 250.824219 183.367188 L 252.421875 186.5625 C 253.605469 188.464844 255.707031 190.457031 257.488281 191.800781 C 258.410156 192.496094 259.144531 193.699219 260.328125 194.105469 L 260.328125 194.019531 L 260.238281 194.019531 C 260.007812 193.65625 259.648438 193.507812 259.351562 193.21875 C 258.65625 192.539062 257.882812 191.691406 257.308594 190.914062 C 255.6875 188.714844 254.257812 186.3125 252.957031 183.8125 C 252.332031 182.617188 251.792969 181.300781 251.269531 180.082031 C 251.066406 179.613281 251.070312 178.90625 250.648438 178.664062 C 250.074219 179.554688 249.226562 180.273438 248.78125 181.328125 C 248.070312 183.007812 247.980469 185.058594 247.714844 187.183594 C 247.558594 187.242188 247.628906 187.203125 247.539062 187.273438 C 246.300781 186.976562 245.867188 185.703125 245.40625 184.609375 C 244.242188 181.847656 244.027344 177.402344 245.050781 174.226562 C 245.316406 173.402344 246.511719 170.8125 246.027344 170.054688 C 245.796875 169.296875 245.035156 168.851562 244.605469 168.277344 C 244.078125 167.5625 243.550781 166.617188 243.1875 165.792969 C 242.234375 163.640625 241.789062 161.222656 240.789062 159.046875 C 240.308594 158.007812 239.5 156.953125 238.832031 156.035156 C 238.097656 155.011719 237.273438 154.257812 236.703125 153.027344 C 236.5 152.585938 236.222656 151.882812 236.523438 151.429688 C 236.589844 151.136719 236.765625 150.960938 237.058594 150.894531 C 237.574219 150.5 239.007812 151.027344 239.542969 151.25 C 240.96875 151.839844 242.160156 152.40625 243.363281 153.203125 C 243.945312 153.578125 244.53125 154.328125 245.230469 154.535156 L 246.027344 154.535156 C 247.277344 154.824219 248.679688 154.625 249.847656 154.980469 C 251.914062 155.605469 253.761719 156.582031 255.441406 157.640625 C 260.5625 160.871094 264.75 165.472656 267.613281 170.964844 C 268.074219 171.847656 268.273438 172.691406 268.679688 173.625 C 269.496094 175.507812 270.527344 177.460938 271.34375 179.308594 C 272.15625 181.152344 272.949219 183.011719 274.097656 184.542969 C 274.699219 185.347656 277.035156 185.78125 278.09375 186.230469 C 278.835938 186.542969 280.054688 186.871094 280.757812 187.292969 C 282.101562 188.105469 283.40625 189.070312 284.667969 189.957031 C 285.296875 190.402344 287.234375 191.375 287.332031 192.175781 Z M 287.332031 192.152344 " fill-opacity="1" fill-rule="nonzero"/><path fill="#00618a" d="M 247.628906 158.335938 C 246.976562 158.324219 246.519531 158.40625 246.03125 158.515625 L 246.03125 158.601562 L 246.121094 158.601562 C 246.429688 159.242188 246.976562 159.652344 247.363281 160.199219 L 248.25 162.0625 L 248.339844 161.976562 C 248.890625 161.585938 249.140625 160.96875 249.136719 160.023438 C 248.917969 159.789062 248.886719 159.5 248.695312 159.222656 C 248.441406 158.855469 247.941406 158.644531 247.628906 158.335938 Z M 247.628906 158.335938 " fill-opacity="1" fill-rule="evenodd"/><path fill="#e48e00" d="M 285.25 217.726562 C 285.25 219.960938 287.019531 221.46875 288.996094 221.46875 C 290.972656 221.46875 292.742188 219.960938 292.742188 217.726562 C 292.742188 215.492188 290.972656 213.984375 288.996094 213.984375 C 287.019531 213.984375 285.25 215.492188 285.25 217.726562 Z M 291.902344 217.726562 C 291.902344 219.421875 290.605469 220.691406 288.996094 220.691406 C 287.367188 220.691406 286.085938 219.421875 286.085938 217.726562 C 286.085938 216.03125 287.367188 214.761719 288.996094 214.761719 C 290.601562 214.761719 291.902344 216.03125 291.902344 217.726562 Z M 290.003906 219.863281 L 290.84375 219.863281 L 289.613281 217.988281 C 290.273438 217.917969 290.773438 217.597656 290.773438 216.820312 C 290.773438 215.949219 290.222656 215.59375 289.164062 215.59375 L 287.496094 215.59375 L 287.496094 219.863281 L 288.214844 219.863281 L 288.214844 218.015625 L 288.886719 218.015625 Z M 288.214844 217.417969 L 288.214844 216.191406 L 289.042969 216.191406 C 289.472656 216.191406 289.992188 216.269531 289.992188 216.769531 C 289.992188 217.367188 289.523438 217.417969 288.984375 217.417969 Z M 288.214844 217.417969 " fill-opacity="1" fill-rule="evenodd"/></svg>