<svg xmlns="http://www.w3.org/2000/svg" xmlns:xlink="http://www.w3.org/1999/xlink" width="500" zoomAndPan="magnify" viewBox="0 0 375 374.999991" height="500" preserveAspectRatio="xMidYMid meet" version="1.0"><defs><clipPath id="993b3e3ad0"><path d="M 110 107.621094 L 267 107.621094 L 267 267.371094 L 110 267.371094 Z M 110 107.621094 " clip-rule="nonzero"/></clipPath></defs><path fill="#99415b" d="M 216.230469 183.351562 C 216.230469 183.335938 216.230469 183.316406 216.230469 183.289062 C 216.230469 173.984375 222.65625 166.15625 231.339844 163.960938 L 231.480469 163.925781 L 231.480469 163.914062 C 231.875 163.832031 232.199219 163.753906 232.605469 163.6875 L 232.839844 163.6875 C 233.171875 163.59375 233.484375 163.59375 233.8125 163.515625 L 234.128906 163.515625 C 234.457031 163.515625 234.695312 163.433594 235.007812 163.433594 L 238.136719 163.433594 C 238.457031 163.433594 238.703125 163.515625 238.941406 163.515625 C 239.101562 163.515625 239.175781 163.515625 239.347656 163.59375 C 239.660156 163.675781 239.902344 163.675781 240.226562 163.753906 C 240.308594 163.753906 240.386719 163.753906 240.554688 163.832031 L 241.671875 164.058594 L 241.753906 164.058594 C 242.078125 164.152344 242.398438 164.234375 242.710938 164.394531 C 242.789062 164.394531 242.871094 164.472656 243.03125 164.472656 C 243.277344 164.554688 243.597656 164.632812 243.84375 164.777344 C 243.921875 164.777344 244 164.859375 244.074219 164.859375 C 244.402344 165.019531 244.722656 165.097656 245.046875 165.257812 L 245.125 165.257812 C 245.519531 165.40625 245.867188 165.605469 246.179688 165.832031 L 246.164062 165.816406 L 246.246094 165.816406 C 246.570312 165.976562 246.890625 166.210938 247.214844 166.371094 C 247.296875 166.371094 247.296875 166.449219 247.363281 166.449219 C 247.6875 166.609375 247.941406 166.847656 248.253906 167.007812 L 248.335938 167.089844 C 249.292969 167.800781 250.183594 168.601562 251.0625 169.390625 L 251.144531 169.472656 C 254.570312 173.058594 256.6875 177.90625 256.6875 183.257812 C 256.6875 183.285156 256.6875 183.304688 256.6875 183.335938 C 256.308594 194.132812 247.402344 202.738281 236.460938 202.738281 C 225.515625 202.738281 216.613281 194.132812 216.230469 183.371094 Z M 216.230469 183.351562 " fill-opacity="1" fill-rule="nonzero"/><path fill="#99415b" d="M 182.320312 160.652344 L 182.476562 160.613281 L 182.476562 160.597656 C 182.9375 160.503906 183.308594 160.414062 183.777344 160.332031 L 184.042969 160.332031 C 184.429688 160.226562 184.792969 160.226562 185.167969 160.132812 L 185.539062 160.132812 C 185.914062 160.132812 186.199219 160.039062 186.558594 160.039062 L 190.179688 160.039062 C 190.550781 160.039062 190.832031 160.132812 191.109375 160.132812 C 191.296875 160.132812 191.378906 160.132812 191.578125 160.226562 C 191.9375 160.320312 192.214844 160.320312 192.589844 160.414062 C 192.683594 160.414062 192.773438 160.414062 192.960938 160.503906 L 194.253906 160.773438 L 194.347656 160.773438 C 194.6875 160.867188 195.023438 160.964844 195.359375 161.125 L 212.058594 129.226562 L 228.679688 161.296875 C 229.296875 161.085938 229.898438 160.820312 230.535156 160.660156 L 230.695312 160.617188 L 230.695312 160.597656 C 231.15625 160.503906 231.519531 160.414062 231.992188 160.332031 L 232.261719 160.332031 C 232.644531 160.226562 233.011719 160.226562 233.386719 160.132812 L 233.757812 160.132812 C 234.128906 160.132812 234.417969 160.039062 234.777344 160.039062 L 238.398438 160.039062 C 238.769531 160.039062 239.050781 160.132812 239.335938 160.132812 C 239.523438 160.132812 239.601562 160.132812 239.800781 160.226562 C 240.160156 160.320312 240.441406 160.320312 240.8125 160.414062 C 240.90625 160.414062 241 160.414062 241.1875 160.503906 L 242.476562 160.773438 L 242.515625 160.773438 L 261.714844 112.613281 L 162.355469 112.613281 L 181.578125 160.90625 C 181.824219 160.832031 182.058594 160.710938 182.320312 160.652344 Z M 182.320312 160.652344 " fill-opacity="1" fill-rule="nonzero"/><path fill="#99415b" d="M 236.460938 205.507812 C 223.808594 205.507812 213.507812 195.558594 213.070312 183.109375 L 213.070312 183.089844 L 211.59375 183.34375 C 211.007812 195.699219 200.796875 205.507812 188.234375 205.507812 C 183.316406 205.507812 178.777344 203.972656 175.011719 201.402344 C 173.121094 203.851562 171.136719 206.113281 168.964844 208.144531 L 168.9375 208.171875 C 164.125 212.722656 158.449219 216.425781 152.191406 219 L 151.832031 219.132812 C 146.234375 215.386719 143.8125 208.777344 146 202.851562 L 125.0625 197.628906 C 124.742188 198.273438 124.410156 198.925781 124.082031 199.617188 C 120.949219 206 117.40625 213.214844 116.046875 221.3125 C 113.347656 237.5 117.773438 248.828125 128.457031 256.183594 C 133.941406 260.058594 140.769531 262.378906 148.152344 262.378906 C 148.171875 262.378906 148.191406 262.378906 148.210938 262.378906 C 160.472656 262.378906 172.917969 256.277344 184.953125 250.351562 C 193.535156 246.144531 202.394531 243.417969 211.113281 241.285156 C 214.335938 240.5 217.691406 240.042969 221.230469 239.527344 C 228.414062 238.511719 235.828125 237.453125 242.492188 233.605469 C 250.066406 229.246094 255.476562 221.890625 257.109375 213.214844 L 257.132812 213.03125 C 258.152344 207.253906 257.308594 201.480469 255.109375 196.214844 C 250.835938 201.839844 244.101562 205.507812 236.460938 205.507812 Z M 236.460938 205.507812 " fill-opacity="1" fill-rule="nonzero"/><path fill="#99415b" d="M 139.773438 168.554688 C 148.949219 168.554688 156.414062 176.023438 156.414062 185.195312 C 156.414062 194.367188 148.949219 201.835938 139.777344 201.835938 C 130.605469 201.835938 123.132812 194.371094 123.132812 185.199219 C 123.132812 176.035156 130.597656 168.554688 139.773438 168.554688 Z M 139.773438 168.554688 " fill-opacity="1" fill-rule="nonzero"/><path fill="#99415b" d="M 168.007812 183.03125 C 168.007812 183.015625 168.007812 182.996094 168.007812 182.96875 C 168.007812 173.664062 174.429688 165.835938 183.117188 163.640625 L 183.257812 163.609375 L 183.257812 163.59375 C 183.648438 163.515625 183.976562 163.433594 184.382812 163.367188 L 184.613281 163.367188 C 184.949219 163.273438 185.261719 163.273438 185.585938 163.195312 L 185.90625 163.195312 C 186.230469 163.195312 186.472656 163.113281 186.785156 163.113281 L 189.914062 163.113281 C 190.234375 163.113281 190.480469 163.195312 190.71875 163.195312 C 190.878906 163.195312 190.953125 163.195312 191.125 163.273438 C 191.4375 163.355469 191.675781 163.355469 192.003906 163.433594 C 192.082031 163.433594 192.164062 163.433594 192.328125 163.515625 L 193.449219 163.742188 L 193.527344 163.742188 C 193.855469 163.832031 194.171875 163.914062 194.484375 164.074219 C 194.566406 164.074219 194.644531 164.152344 194.804688 164.152344 C 195.050781 164.234375 195.371094 164.3125 195.617188 164.460938 C 195.699219 164.460938 195.777344 164.539062 195.851562 164.539062 C 196.175781 164.699219 196.496094 164.777344 196.824219 164.9375 L 196.902344 164.9375 C 197.296875 165.085938 197.640625 165.285156 197.953125 165.511719 L 197.941406 165.5 L 198.019531 165.5 C 198.347656 165.65625 198.667969 165.890625 198.992188 166.050781 C 199.070312 166.050781 199.070312 166.128906 199.140625 166.128906 C 199.464844 166.289062 199.71875 166.53125 200.03125 166.691406 L 200.109375 166.769531 C 201.070312 167.480469 201.960938 168.28125 202.839844 169.074219 L 202.917969 169.152344 C 206.347656 172.753906 208.464844 177.597656 208.464844 182.949219 C 208.464844 182.976562 208.464844 182.996094 208.464844 183.03125 C 208.085938 193.828125 199.179688 202.433594 188.234375 202.433594 C 177.292969 202.433594 168.386719 193.828125 168.007812 183.0625 Z M 168.007812 183.03125 " fill-opacity="1" fill-rule="nonzero"/><g clip-path="url(#993b3e3ad0)"><path fill="#ffffff" d="M 148.210938 267.371094 C 139.972656 267.371094 132.164062 264.910156 125.582031 260.257812 C 113.039062 251.628906 108.160156 238.230469 111.128906 220.484375 C 112.601562 211.726562 116.28125 204.183594 119.535156 197.542969 L 120.449219 195.675781 C 121.671875 193.214844 124.742188 192.070312 127.210938 193.292969 C 129.679688 194.527344 130.753906 197.382812 129.527344 199.84375 L 129.386719 200.125 L 128.589844 201.746094 C 125.554688 207.957031 122.210938 214.792969 120.980469 222.128906 C 118.644531 236.101562 121.925781 245.613281 131.296875 252.0625 C 136.230469 255.5625 142.042969 257.386719 148.152344 257.386719 C 159.367188 257.386719 171.25 251.535156 182.746094 245.871094 C 190.511719 242.066406 199.152344 239.070312 209.921875 236.441406 C 213.128906 235.65625 216.324219 235.195312 219.714844 234.703125 L 220.511719 234.589844 C 227.222656 233.636719 234.144531 232.660156 239.996094 229.285156 C 246.410156 225.589844 250.859375 219.398438 252.195312 212.296875 C 253.160156 206.785156 252.296875 201.269531 249.699219 196.203125 C 248.902344 194.640625 248.980469 192.773438 249.914062 191.285156 C 251.484375 188.78125 252.277344 185.980469 252.277344 182.964844 C 252.277344 182.863281 252.277344 182.765625 252.28125 182.664062 C 252.128906 175.695312 247.328125 169.613281 240.519531 167.792969 C 239.136719 167.429688 237.910156 166.46875 237.273438 165.199219 C 236.632812 163.921875 236.492188 162.417969 237.019531 161.089844 L 254.351562 117.605469 L 169.71875 117.605469 L 187.097656 161.277344 C 187.617188 162.582031 187.5625 164.046875 186.949219 165.304688 C 186.339844 166.5625 185.21875 167.515625 183.875 167.914062 C 177.019531 169.945312 172.402344 176.023438 172.394531 183.023438 C 172.394531 188.042969 174.902344 192.835938 179.109375 195.832031 C 180.195312 196.601562 180.921875 197.773438 181.140625 199.078125 C 181.359375 200.390625 181.046875 201.726562 180.269531 202.8125 C 177.890625 206.121094 175.300781 209.0625 172.375 211.800781 C 167.042969 216.851562 160.886719 220.824219 154.089844 223.621094 C 152.550781 224.257812 150.433594 224.207031 149.050781 223.28125 C 141.542969 218.25 138.359375 209.136719 141.316406 201.121094 C 142.273438 198.53125 145.167969 197.214844 147.726562 198.167969 C 150.316406 199.125 151.632812 201.996094 150.679688 204.578125 C 149.578125 207.566406 150.375 210.847656 152.652344 213.316406 C 157.449219 211.046875 161.722656 208.117188 165.503906 204.535156 C 166.890625 203.238281 168.175781 201.90625 169.378906 200.503906 C 164.945312 195.769531 162.410156 189.515625 162.410156 183.003906 C 162.421875 173.371094 167.714844 164.832031 176 160.394531 L 157.71875 114.457031 C 157.105469 112.921875 157.289062 111.183594 158.222656 109.8125 C 159.15625 108.441406 160.699219 107.621094 162.355469 107.621094 L 261.714844 107.621094 C 263.371094 107.621094 264.914062 108.441406 265.847656 109.8125 C 266.78125 111.183594 266.964844 112.921875 266.355469 114.464844 L 248.15625 160.132812 C 256.75 164.539062 262.261719 173.257812 262.28125 182.964844 C 262.28125 183.105469 262.273438 183.242188 262.265625 183.375 C 262.207031 187.125 261.347656 190.777344 259.75 194.113281 C 262.433594 200.449219 263.230469 207.234375 262.058594 213.902344 C 260.144531 224.113281 253.941406 232.785156 244.992188 237.9375 C 237.472656 242.277344 229.226562 243.441406 221.941406 244.472656 L 221.15625 244.585938 C 218.015625 245.039062 215.054688 245.464844 212.304688 246.136719 C 202.246094 248.59375 194.257812 251.355469 187.164062 254.839844 C 174.636719 260.996094 161.699219 267.371094 148.210938 267.371094 Z M 148.210938 267.371094 " fill-opacity="1" fill-rule="nonzero"/></g><path fill="#ffffff" d="M 229.785156 168.394531 C 227.980469 168.394531 226.234375 167.414062 225.34375 165.699219 L 212.039062 140.03125 L 198.710938 165.484375 C 197.433594 167.933594 194.417969 168.878906 191.976562 167.59375 C 189.535156 166.316406 188.589844 163.292969 189.867188 160.859375 L 207.640625 126.910156 C 208.496094 125.261719 210.207031 124.234375 212.066406 124.234375 C 212.066406 124.234375 212.070312 124.234375 212.070312 124.234375 C 213.9375 124.234375 215.640625 125.28125 216.5 126.933594 L 234.210938 161.113281 C 235.476562 163.5625 234.523438 166.570312 232.074219 167.839844 C 231.339844 168.214844 230.554688 168.394531 229.785156 168.394531 Z M 229.785156 168.394531 " fill-opacity="1" fill-rule="nonzero"/><path fill="#ffffff" d="M 215.972656 183.9375 L 208.695312 183.9375 C 205.941406 183.9375 203.703125 181.699219 203.703125 178.945312 C 203.703125 176.1875 205.941406 173.953125 208.695312 173.953125 L 215.972656 173.953125 C 218.726562 173.953125 220.964844 176.1875 220.964844 178.945312 C 220.964844 181.699219 218.726562 183.9375 215.972656 183.9375 Z M 215.972656 183.9375 " fill-opacity="1" fill-rule="nonzero"/><path fill="#ffffff" d="M 188.234375 207.425781 C 174.578125 207.425781 163.496094 196.800781 163.015625 183.242188 C 163.015625 183.183594 163.015625 183.089844 163.015625 183.03125 L 163.015625 182.976562 C 163.015625 171.5625 170.777344 161.625 181.886719 158.800781 C 182.722656 158.601562 183.105469 158.523438 183.550781 158.441406 C 183.714844 158.414062 183.890625 158.394531 184.0625 158.382812 C 184.195312 158.363281 184.328125 158.34375 184.453125 158.324219 C 184.855469 158.222656 185.167969 158.195312 185.574219 158.195312 C 185.992188 158.15625 186.367188 158.117188 186.769531 158.117188 L 189.90625 158.117188 C 190.167969 158.117188 190.878906 158.183594 191.136719 158.222656 C 191.605469 158.222656 192.0625 158.316406 192.503906 158.457031 C 192.515625 158.457031 192.535156 158.460938 192.554688 158.460938 C 192.949219 158.496094 193.328125 158.574219 193.699219 158.695312 L 194.1875 158.796875 C 194.425781 158.828125 194.664062 158.875 194.878906 158.933594 C 195.3125 159.054688 195.710938 159.179688 196.089844 159.328125 C 196.191406 159.355469 196.285156 159.382812 196.375 159.414062 C 196.675781 159.507812 197.109375 159.640625 197.59375 159.867188 C 197.742188 159.921875 197.886719 159.988281 198.035156 160.058594 L 198.214844 160.140625 C 198.378906 160.179688 198.546875 160.238281 198.707031 160.292969 C 199.199219 160.484375 199.679688 160.710938 200.125 160.984375 C 200.171875 161.003906 200.222656 161.03125 200.261719 161.058594 C 200.375 161.113281 200.96875 161.449219 201.074219 161.519531 L 201.074219 161.53125 C 201.195312 161.585938 201.316406 161.644531 201.429688 161.703125 C 201.800781 161.898438 202.132812 162.117188 202.46875 162.34375 C 202.933594 162.582031 203.1875 162.800781 203.558594 163.175781 C 204.15625 163.566406 205.167969 164.464844 206.15625 165.359375 C 210.992188 170.398438 213.457031 176.515625 213.457031 182.957031 C 212.976562 196.789062 201.902344 207.425781 188.234375 207.425781 Z M 186.039062 168.1875 C 185.953125 168.199219 185.867188 168.207031 185.78125 168.21875 C 185.355469 168.339844 185.046875 168.359375 184.601562 168.359375 C 177.660156 170.171875 172.992188 176.132812 172.992188 182.976562 L 172.992188 183.070312 C 173.277344 191.050781 179.96875 197.449219 188.230469 197.449219 C 196.488281 197.449219 203.179688 191.042969 203.472656 182.863281 C 203.472656 179.101562 201.988281 175.429688 199.3125 172.621094 C 198.726562 172.101562 197.96875 171.410156 197.140625 170.804688 C 197.101562 170.777344 197.0625 170.742188 197.027344 170.714844 C 196.902344 170.636719 196.789062 170.570312 196.730469 170.523438 C 196.515625 170.410156 196.296875 170.289062 196.078125 170.15625 C 195.75 170.023438 195.429688 169.859375 195.125 169.644531 C 194.953125 169.585938 194.785156 169.511719 194.617188 169.433594 C 194.398438 169.351562 194.191406 169.277344 193.988281 169.1875 C 193.808594 169.125 193.628906 169.050781 193.453125 168.964844 C 193.382812 168.953125 193.316406 168.933594 193.242188 168.914062 C 192.96875 168.847656 192.707031 168.753906 192.449219 168.640625 L 191.332031 168.414062 C 191.199219 168.386719 191.066406 168.355469 190.9375 168.320312 C 190.890625 168.3125 190.839844 168.300781 190.792969 168.285156 C 190.644531 168.265625 190.21875 168.195312 189.992188 168.148438 C 189.839844 168.132812 189.695312 168.113281 189.601562 168.101562 L 186.777344 168.113281 C 186.703125 168.140625 186.40625 168.179688 186.039062 168.1875 Z M 190.464844 168.175781 C 190.492188 168.175781 190.519531 168.179688 190.546875 168.179688 C 190.519531 168.179688 190.492188 168.179688 190.464844 168.175781 Z M 190.464844 168.175781 " fill-opacity="1" fill-rule="nonzero"/><path fill="#ffffff" d="M 236.460938 207.425781 C 222.800781 207.425781 211.71875 196.800781 211.238281 183.242188 C 211.238281 183.183594 211.238281 183.089844 211.238281 183.03125 L 211.238281 182.976562 C 211.238281 171.5625 219 161.625 230.109375 158.800781 C 230.960938 158.601562 231.335938 158.523438 231.773438 158.441406 C 231.941406 158.414062 232.113281 158.394531 232.285156 158.382812 C 232.421875 158.363281 232.554688 158.34375 232.679688 158.324219 C 233.078125 158.222656 233.390625 158.195312 233.796875 158.195312 C 234.222656 158.15625 234.589844 158.117188 235.003906 158.117188 L 238.132812 158.117188 C 238.390625 158.117188 239.101562 158.183594 239.355469 158.222656 C 239.820312 158.222656 240.28125 158.308594 240.726562 158.457031 C 240.746094 158.457031 240.765625 158.460938 240.792969 158.460938 C 241.179688 158.503906 241.550781 158.582031 241.925781 158.695312 L 242.417969 158.796875 C 242.65625 158.828125 242.898438 158.875 243.109375 158.933594 C 243.542969 159.054688 243.941406 159.179688 244.320312 159.328125 C 244.421875 159.355469 244.515625 159.382812 244.613281 159.414062 C 244.914062 159.507812 245.347656 159.640625 245.824219 159.859375 C 245.980469 159.921875 246.125 159.988281 246.273438 160.054688 C 246.273438 160.054688 246.34375 160.078125 246.445312 160.125 C 246.617188 160.171875 246.789062 160.226562 246.949219 160.285156 C 247.441406 160.480469 247.914062 160.707031 248.363281 160.976562 C 248.402344 161.011719 248.433594 161.023438 248.476562 161.046875 C 248.59375 161.105469 249.195312 161.445312 249.308594 161.511719 L 249.300781 161.523438 C 249.421875 161.578125 249.539062 161.636719 249.660156 161.699219 C 250.027344 161.882812 250.359375 162.101562 250.683594 162.328125 C 251.152344 162.570312 251.417969 162.796875 251.789062 163.160156 C 252.367188 163.542969 253.359375 164.425781 254.339844 165.296875 C 259.226562 170.378906 261.6875 176.5 261.6875 182.9375 C 261.195312 196.789062 250.117188 207.425781 236.460938 207.425781 Z M 234.265625 168.1875 C 234.175781 168.199219 234.097656 168.207031 234.003906 168.21875 C 233.585938 168.332031 233.265625 168.359375 232.824219 168.359375 C 225.882812 170.171875 221.21875 176.132812 221.21875 182.976562 L 221.21875 183.070312 C 221.503906 191.050781 228.191406 197.449219 236.453125 197.449219 C 244.707031 197.449219 251.402344 191.039062 251.695312 182.859375 C 251.695312 179.097656 250.210938 175.429688 247.53125 172.621094 C 246.910156 172.074219 246.171875 171.394531 245.367188 170.804688 C 245.328125 170.777344 245.292969 170.75 245.253906 170.714844 C 245.125 170.636719 245.019531 170.5625 244.953125 170.523438 C 244.734375 170.410156 244.515625 170.289062 244.292969 170.15625 C 243.96875 170.023438 243.648438 169.859375 243.347656 169.644531 C 243.167969 169.585938 242.988281 169.503906 242.824219 169.425781 C 242.75 169.398438 242.550781 169.320312 242.363281 169.238281 C 242.332031 169.230469 242.304688 169.21875 242.269531 169.210938 C 242.070312 169.144531 241.871094 169.066406 241.683594 168.972656 C 241.613281 168.960938 241.539062 168.9375 241.464844 168.917969 C 241.199219 168.851562 240.933594 168.757812 240.679688 168.644531 L 239.5625 168.421875 C 239.429688 168.394531 239.300781 168.367188 239.175781 168.328125 C 239.121094 168.3125 239.070312 168.300781 239.015625 168.285156 C 238.871094 168.265625 238.4375 168.195312 238.21875 168.148438 C 238.0625 168.132812 237.925781 168.121094 237.832031 168.105469 L 235.007812 168.121094 C 234.929688 168.140625 234.628906 168.179688 234.265625 168.1875 Z M 238.691406 168.175781 C 238.714844 168.175781 238.742188 168.179688 238.769531 168.179688 C 238.742188 168.179688 238.714844 168.179688 238.691406 168.175781 Z M 238.691406 168.175781 " fill-opacity="1" fill-rule="nonzero"/><path fill="#ffffff" d="M 139.777344 206.828125 C 127.84375 206.828125 118.140625 197.121094 118.140625 185.199219 C 118.140625 173.265625 127.84375 163.5625 139.773438 163.5625 C 151.699219 163.5625 161.40625 173.265625 161.40625 185.195312 C 161.40625 197.121094 151.699219 206.828125 139.777344 206.828125 Z M 139.773438 173.546875 C 133.347656 173.546875 128.125 178.777344 128.125 185.199219 C 128.125 191.617188 133.355469 196.84375 139.777344 196.84375 C 146.195312 196.84375 151.421875 191.617188 151.421875 185.195312 C 151.421875 178.769531 146.195312 173.546875 139.773438 173.546875 Z M 139.773438 173.546875 " fill-opacity="1" fill-rule="nonzero"/></svg>