<svg xmlns="http://www.w3.org/2000/svg" xmlns:xlink="http://www.w3.org/1999/xlink" width="500" zoomAndPan="magnify" viewBox="0 0 375 374.999991" height="500" preserveAspectRatio="xMidYMid meet" version="1.0"><path fill="#000000" d="M 188.644531 103.601562 C 150.320312 107.839844 119.089844 138.6875 114.46875 176.863281 C 114.167969 179.261719 113.972656 181.667969 113.878906 184.082031 C 113.789062 186.496094 113.796875 188.910156 113.914062 191.324219 C 114.027344 193.738281 114.246094 196.140625 114.570312 198.535156 C 114.890625 200.929688 115.316406 203.308594 115.839844 205.667969 C 116.367188 208.023438 116.992188 210.355469 117.71875 212.664062 C 118.449219 214.96875 119.269531 217.238281 120.191406 219.472656 C 121.113281 221.707031 122.128906 223.898438 123.242188 226.046875 C 124.351562 228.191406 125.550781 230.289062 126.839844 232.332031 C 128.132812 234.378906 129.507812 236.363281 130.96875 238.292969 C 132.429688 240.21875 133.96875 242.082031 135.589844 243.875 C 137.210938 245.671875 138.90625 247.394531 140.675781 249.046875 C 142.445312 250.695312 144.28125 252.269531 146.1875 253.761719 C 148.089844 255.253906 150.054688 256.664062 152.078125 257.988281 C 154.105469 259.316406 156.183594 260.550781 158.316406 261.699219 C 160.445312 262.847656 162.625 263.898438 164.847656 264.863281 C 167.070312 265.824219 169.328125 266.6875 171.625 267.457031 C 175.855469 268.128906 177.207031 265.515625 177.207031 263.242188 L 177.207031 248.988281 C 153.796875 254.0625 148.8125 237.699219 148.8125 237.699219 C 144.9375 227.914062 139.433594 225.300781 139.433594 225.300781 C 131.738281 220.074219 140.03125 220.246094 140.03125 220.246094 C 148.476562 220.84375 152.957031 228.929688 152.957031 228.929688 C 160.3125 241.742188 172.730469 237.949219 177.546875 235.925781 C 178.308594 230.445312 180.539062 226.734375 182.871094 224.625 C 164.082031 222.519531 144.414062 215.269531 144.414062 183.152344 C 144.414062 173.792969 147.628906 166.292969 153.121094 160.304688 C 152.277344 158.199219 149.316406 149.433594 153.964844 138.050781 C 153.964844 138.050781 161.066406 135.769531 177.207031 146.652344 C 184.125 144.792969 191.164062 143.863281 198.332031 143.863281 C 205.496094 143.863281 212.535156 144.792969 219.453125 146.652344 C 235.609375 135.769531 242.699219 138.050781 242.699219 138.050781 C 247.339844 149.433594 244.382812 158.199219 243.539062 160.304688 C 249.03125 166.273438 252.246094 173.792969 252.246094 183.152344 C 252.246094 215.351562 232.46875 222.4375 213.628906 224.542969 C 216.667969 227.15625 219.453125 232.300781 219.453125 240.136719 L 219.453125 263.242188 C 219.453125 265.515625 220.808594 268.214844 225.121094 267.457031 C 227.570312 266.636719 229.980469 265.707031 232.347656 264.667969 C 234.710938 263.625 237.023438 262.480469 239.285156 261.230469 C 241.546875 259.976562 243.746094 258.625 245.882812 257.175781 C 248.015625 255.722656 250.082031 254.175781 252.078125 252.535156 C 254.070312 250.890625 255.984375 249.164062 257.820312 247.347656 C 259.65625 245.53125 261.40625 243.632812 263.066406 241.65625 C 264.726562 239.679688 266.292969 237.632812 267.765625 235.511719 C 269.238281 233.394531 270.609375 231.210938 271.882812 228.964844 C 273.15625 226.71875 274.320312 224.421875 275.382812 222.070312 C 276.445312 219.71875 277.394531 217.324219 278.234375 214.882812 C 279.074219 212.445312 279.800781 209.972656 280.417969 207.46875 C 281.03125 204.960938 281.527344 202.433594 281.90625 199.882812 C 282.289062 197.332031 282.550781 194.769531 282.699219 192.195312 C 282.84375 189.617188 282.871094 187.042969 282.78125 184.464844 C 282.6875 181.886719 282.480469 179.320312 282.152344 176.761719 C 281.824219 174.203125 281.382812 171.664062 280.820312 169.148438 C 280.261719 166.628906 279.585938 164.144531 278.796875 161.6875 C 278.007812 159.230469 277.105469 156.816406 276.097656 154.441406 C 275.085938 152.066406 273.96875 149.746094 272.742188 147.472656 C 271.519531 145.203125 270.191406 142.992188 268.765625 140.839844 C 267.335938 138.691406 265.8125 136.609375 264.195312 134.601562 C 262.578125 132.589844 260.867188 130.65625 259.070312 128.800781 C 257.277344 126.949219 255.398438 125.179688 253.4375 123.496094 C 251.480469 121.8125 249.449219 120.222656 247.34375 118.726562 C 245.238281 117.230469 243.066406 115.832031 240.835938 114.53125 C 238.601562 113.234375 236.3125 112.039062 233.96875 110.949219 C 231.625 109.863281 229.238281 108.882812 226.804688 108.011719 C 224.371094 107.140625 221.902344 106.382812 219.398438 105.738281 C 216.894531 105.09375 214.367188 104.5625 211.816406 104.148438 C 209.265625 103.734375 206.699219 103.4375 204.121094 103.261719 C 201.539062 103.082031 198.960938 103.019531 196.375 103.078125 C 193.789062 103.132812 191.214844 103.308594 188.644531 103.601562 Z M 188.644531 103.601562 " fill-opacity="1" fill-rule="nonzero"/></svg>