<svg xmlns="http://www.w3.org/2000/svg" xmlns:xlink="http://www.w3.org/1999/xlink" width="500" zoomAndPan="magnify" viewBox="0 0 375 374.999991" height="500" preserveAspectRatio="xMidYMid meet" version="1.0"><path fill="#ffffff" d="M 177.425781 90.191406 C 132.316406 95.191406 95.558594 131.585938 90.117188 176.625 C 89.765625 179.453125 89.535156 182.292969 89.425781 185.140625 C 89.316406 187.992188 89.332031 190.839844 89.464844 193.6875 C 89.601562 196.535156 89.859375 199.371094 90.238281 202.195312 C 90.617188 205.023438 91.117188 207.828125 91.734375 210.609375 C 92.355469 213.390625 93.089844 216.144531 93.945312 218.863281 C 94.800781 221.582031 95.773438 224.261719 96.855469 226.898438 C 97.941406 229.53125 99.136719 232.117188 100.445312 234.652344 C 101.75 237.1875 103.164062 239.660156 104.679688 242.070312 C 106.199219 244.484375 107.820312 246.828125 109.539062 249.101562 C 111.257812 251.375 113.070312 253.570312 114.980469 255.691406 C 116.886719 257.808594 118.882812 259.839844 120.964844 261.789062 C 123.046875 263.734375 125.210938 265.589844 127.449219 267.351562 C 129.691406 269.113281 132.003906 270.777344 134.386719 272.339844 C 136.773438 273.90625 139.21875 275.363281 141.726562 276.71875 C 144.234375 278.070312 146.796875 279.316406 149.414062 280.449219 C 152.03125 281.582031 154.6875 282.601562 157.390625 283.507812 C 162.371094 284.304688 163.960938 281.21875 163.960938 278.539062 L 163.960938 261.722656 C 136.40625 267.707031 130.542969 248.398438 130.542969 248.398438 C 125.980469 236.859375 119.5 233.773438 119.5 233.773438 C 110.445312 227.605469 120.207031 227.808594 120.207031 227.808594 C 130.148438 228.515625 135.421875 238.054688 135.421875 238.054688 C 144.078125 253.175781 158.695312 248.695312 164.363281 246.308594 C 165.257812 239.84375 167.882812 235.464844 170.628906 232.980469 C 148.511719 230.492188 125.367188 221.9375 125.367188 184.046875 C 125.367188 173.007812 129.148438 164.15625 135.613281 157.09375 C 134.621094 154.605469 131.132812 144.261719 136.605469 130.832031 C 136.605469 130.832031 144.964844 128.144531 163.960938 140.980469 C 172.105469 138.789062 180.390625 137.691406 188.824219 137.691406 C 197.257812 137.691406 205.546875 138.789062 213.6875 140.980469 C 232.703125 128.144531 241.046875 130.832031 241.046875 130.832031 C 246.511719 144.261719 243.03125 154.605469 242.039062 157.09375 C 248.503906 164.132812 252.285156 173.007812 252.285156 184.046875 C 252.285156 222.035156 229.003906 230.394531 206.832031 232.878906 C 210.40625 235.964844 213.6875 242.035156 213.6875 251.28125 L 213.6875 278.539062 C 213.6875 281.21875 215.28125 284.402344 220.359375 283.507812 C 221.800781 283.027344 223.230469 282.511719 224.648438 281.960938 C 226.066406 281.414062 227.472656 280.832031 228.863281 280.21875 C 230.253906 279.605469 231.628906 278.960938 232.992188 278.285156 C 234.355469 277.609375 235.699219 276.902344 237.03125 276.164062 C 238.359375 275.425781 239.671875 274.660156 240.964844 273.859375 C 242.261719 273.0625 243.535156 272.234375 244.792969 271.378906 C 246.050781 270.523438 247.285156 269.636719 248.503906 268.726562 C 249.71875 267.8125 250.914062 266.871094 252.085938 265.902344 C 253.257812 264.9375 254.410156 263.941406 255.535156 262.921875 C 256.664062 261.902344 257.765625 260.855469 258.847656 259.785156 C 259.925781 258.714844 260.980469 257.617188 262.007812 256.5 C 263.039062 255.378906 264.042969 254.238281 265.019531 253.070312 C 265.996094 251.90625 266.945312 250.71875 267.867188 249.511719 C 268.789062 248.300781 269.683594 247.074219 270.550781 245.824219 C 271.417969 244.574219 272.253906 243.304688 273.0625 242.015625 C 273.871094 240.726562 274.648438 239.421875 275.398438 238.097656 C 276.144531 236.773438 276.863281 235.433594 277.550781 234.078125 C 278.238281 232.722656 278.894531 231.347656 279.515625 229.960938 C 280.140625 228.574219 280.734375 227.175781 281.292969 225.761719 C 281.851562 224.347656 282.378906 222.921875 282.875 221.484375 C 283.367188 220.046875 283.828125 218.597656 284.257812 217.136719 C 284.6875 215.679688 285.082031 214.210938 285.441406 212.734375 C 285.800781 211.257812 286.128906 209.773438 286.421875 208.28125 C 286.714844 206.789062 286.972656 205.289062 287.199219 203.785156 C 287.421875 202.28125 287.609375 200.773438 287.765625 199.261719 C 287.921875 197.746094 288.042969 196.230469 288.128906 194.714844 C 288.210938 193.195312 288.265625 191.675781 288.28125 190.15625 C 288.296875 188.636719 288.277344 187.113281 288.222656 185.59375 C 288.167969 184.074219 288.082031 182.558594 287.957031 181.042969 C 287.835938 179.527344 287.675781 178.015625 287.484375 176.507812 C 287.292969 174.996094 287.066406 173.496094 286.804688 171.996094 C 286.542969 170.5 286.246094 169.007812 285.917969 167.523438 C 285.585938 166.039062 285.222656 164.5625 284.828125 163.09375 C 284.429688 161.625 284 160.167969 283.535156 158.71875 C 283.070312 157.273438 282.574219 155.835938 282.042969 154.410156 C 281.515625 152.984375 280.953125 151.574219 280.355469 150.171875 C 279.761719 148.773438 279.136719 147.386719 278.476562 146.015625 C 277.820312 144.648438 277.128906 143.292969 276.410156 141.953125 C 275.691406 140.613281 274.9375 139.292969 274.160156 137.984375 C 273.378906 136.679688 272.566406 135.394531 271.726562 134.128906 C 270.886719 132.859375 270.019531 131.613281 269.121094 130.382812 C 268.226562 129.15625 267.300781 127.949219 266.347656 126.761719 C 265.398438 125.578125 264.417969 124.414062 263.414062 123.273438 C 262.40625 122.132812 261.375 121.015625 260.320312 119.921875 C 259.261719 118.828125 258.179688 117.761719 257.074219 116.714844 C 255.96875 115.671875 254.839844 114.652344 253.6875 113.660156 C 252.535156 112.667969 251.363281 111.703125 250.164062 110.765625 C 248.96875 109.828125 247.75 108.917969 246.511719 108.035156 C 245.273438 107.152344 244.015625 106.296875 242.738281 105.472656 C 241.460938 104.648438 240.167969 103.851562 238.851562 103.085938 C 237.539062 102.320312 236.207031 101.585938 234.859375 100.882812 C 233.511719 100.175781 232.148438 99.503906 230.773438 98.863281 C 229.394531 98.21875 228 97.609375 226.59375 97.03125 C 225.1875 96.453125 223.769531 95.90625 222.339844 95.394531 C 220.90625 94.878906 219.464844 94.398438 218.011719 93.953125 C 216.558594 93.503906 215.09375 93.089844 213.621094 92.710938 C 212.148438 92.328125 210.671875 91.984375 209.183594 91.671875 C 207.695312 91.359375 206.199219 91.082031 204.699219 90.835938 C 203.195312 90.59375 201.691406 90.382812 200.179688 90.207031 C 198.671875 90.03125 197.15625 89.894531 195.640625 89.789062 C 194.121094 89.679688 192.605469 89.609375 191.082031 89.574219 C 189.5625 89.539062 188.042969 89.539062 186.523438 89.570312 C 185.003906 89.605469 183.484375 89.671875 181.96875 89.777344 C 180.449219 89.878906 178.9375 90.015625 177.425781 90.191406 Z M 177.425781 90.191406 " fill-opacity="1" fill-rule="nonzero"/></svg>