<svg xmlns="http://www.w3.org/2000/svg" xmlns:xlink="http://www.w3.org/1999/xlink" width="500" zoomAndPan="magnify" viewBox="0 0 375 374.999991" height="500" preserveAspectRatio="xMidYMid meet" version="1.0"><path fill="#000000" d="M 176.003906 99.921875 C 137.042969 104.25 105.292969 135.785156 100.59375 174.800781 C 100.289062 177.253906 100.089844 179.710938 99.996094 182.179688 C 99.902344 184.648438 99.914062 187.117188 100.03125 189.582031 C 100.148438 192.050781 100.371094 194.507812 100.699219 196.957031 C 101.023438 199.402344 101.457031 201.832031 101.992188 204.242188 C 102.527344 206.652344 103.164062 209.039062 103.902344 211.394531 C 104.640625 213.75 105.476562 216.070312 106.414062 218.355469 C 107.351562 220.636719 108.382812 222.878906 109.511719 225.074219 C 110.640625 227.269531 111.863281 229.410156 113.171875 231.5 C 114.484375 233.589844 115.882812 235.621094 117.367188 237.589844 C 118.855469 239.5625 120.421875 241.464844 122.066406 243.296875 C 123.714844 245.132812 125.4375 246.894531 127.238281 248.582031 C 129.035156 250.269531 130.902344 251.875 132.839844 253.402344 C 134.773438 254.929688 136.773438 256.367188 138.832031 257.722656 C 140.890625 259.078125 143.003906 260.34375 145.171875 261.515625 C 147.335938 262.6875 149.550781 263.765625 151.808594 264.746094 C 154.066406 265.730469 156.363281 266.613281 158.699219 267.398438 C 163 268.089844 164.375 265.417969 164.375 263.09375 L 164.375 248.523438 C 140.574219 253.710938 135.507812 236.984375 135.507812 236.984375 C 131.570312 226.984375 125.972656 224.3125 125.972656 224.3125 C 118.152344 218.96875 126.582031 219.144531 126.582031 219.144531 C 135.167969 219.753906 139.722656 228.019531 139.722656 228.019531 C 147.199219 241.117188 159.824219 237.238281 164.722656 235.171875 C 165.492188 229.570312 167.761719 225.777344 170.132812 223.621094 C 151.03125 221.46875 131.039062 214.058594 131.039062 181.230469 C 131.039062 171.667969 134.304688 164 139.886719 157.878906 C 139.03125 155.726562 136.019531 146.765625 140.746094 135.132812 C 140.746094 135.132812 147.964844 132.800781 164.375 143.921875 C 171.40625 142.023438 178.566406 141.074219 185.847656 141.074219 C 193.132812 141.074219 200.292969 142.023438 207.324219 143.921875 C 223.746094 132.800781 230.953125 135.132812 230.953125 135.132812 C 235.671875 146.765625 232.667969 155.726562 231.8125 157.878906 C 237.394531 163.980469 240.660156 171.667969 240.660156 181.230469 C 240.660156 214.144531 220.554688 221.382812 201.402344 223.539062 C 204.492188 226.210938 207.324219 231.46875 207.324219 239.476562 L 207.324219 263.09375 C 207.324219 265.417969 208.699219 268.175781 213.085938 267.398438 C 215.578125 266.5625 218.023438 265.613281 220.429688 264.546875 C 222.835938 263.484375 225.1875 262.316406 227.484375 261.035156 C 229.78125 259.757812 232.019531 258.375 234.191406 256.890625 C 236.363281 255.40625 238.460938 253.824219 240.488281 252.148438 C 242.515625 250.46875 244.460938 248.703125 246.328125 246.84375 C 248.195312 244.988281 249.972656 243.050781 251.660156 241.03125 C 253.347656 239.011719 254.941406 236.917969 256.4375 234.75 C 257.933594 232.582031 259.332031 230.351562 260.625 228.058594 C 261.917969 225.761719 263.101562 223.414062 264.179688 221.011719 C 265.257812 218.605469 266.226562 216.15625 267.082031 213.664062 C 267.933594 211.171875 268.675781 208.644531 269.296875 206.082031 C 269.921875 203.523438 270.425781 200.9375 270.816406 198.332031 C 271.203125 195.722656 271.46875 193.105469 271.617188 190.472656 C 271.765625 187.839844 271.792969 185.207031 271.699219 182.574219 C 271.609375 179.9375 271.394531 177.3125 271.0625 174.699219 C 270.730469 172.082031 270.277344 169.488281 269.710938 166.917969 C 269.140625 164.34375 268.453125 161.800781 267.652344 159.289062 C 266.847656 156.78125 265.933594 154.3125 264.90625 151.886719 C 263.878906 149.460938 262.742188 147.085938 261.496094 144.761719 C 260.253906 142.441406 258.90625 140.183594 257.453125 137.984375 C 256.003906 135.785156 254.453125 133.660156 252.808594 131.605469 C 251.164062 129.550781 249.425781 127.574219 247.601562 125.679688 C 245.773438 123.78125 243.863281 121.976562 241.871094 120.253906 C 239.882812 118.535156 237.816406 116.910156 235.675781 115.378906 C 233.535156 113.847656 231.328125 112.421875 229.058594 111.09375 C 226.789062 109.765625 224.460938 108.546875 222.078125 107.433594 C 219.695312 106.320312 217.269531 105.316406 214.796875 104.425781 C 212.320312 103.539062 209.8125 102.761719 207.265625 102.101562 C 204.722656 101.445312 202.152344 100.902344 199.558594 100.480469 C 196.964844 100.058594 194.355469 99.753906 191.734375 99.570312 C 189.113281 99.386719 186.488281 99.324219 183.859375 99.382812 C 181.234375 99.441406 178.613281 99.621094 176.003906 99.921875 Z M 176.003906 99.921875 " fill-opacity="1" fill-rule="nonzero"/></svg>