<svg xmlns="http://www.w3.org/2000/svg" xmlns:xlink="http://www.w3.org/1999/xlink" width="500" zoomAndPan="magnify" viewBox="0 0 375 374.999991" height="500" preserveAspectRatio="xMidYMid meet" version="1.0"><defs><clipPath id="2872e79a16"><path d="M 101 89.742188 L 273.109375 89.742188 L 273.109375 262 L 101 262 Z M 101 89.742188 " clip-rule="nonzero"/></clipPath><clipPath id="4b3cf08a58"><path d="M 101 89.742188 L 188 89.742188 L 188 262 L 101 262 Z M 101 89.742188 " clip-rule="nonzero"/></clipPath></defs><g clip-path="url(#2872e79a16)"><path fill="#ffc44d" d="M 107.027344 89.34375 C 105.300781 89.34375 103.660156 90.082031 102.515625 91.378906 C 101.375 92.671875 100.84375 94.394531 101.058594 96.105469 L 117.105469 224.476562 C 117.351562 226.476562 118.585938 228.214844 120.382812 229.113281 L 184.570312 261.207031 C 186.261719 262.054688 188.257812 262.054688 189.953125 261.207031 L 254.136719 229.113281 C 255.9375 228.214844 257.167969 226.476562 257.417969 224.476562 L 273.464844 96.105469 C 273.679688 94.394531 273.148438 92.671875 272.003906 91.378906 C 270.863281 90.082031 269.21875 89.34375 267.492188 89.34375 Z M 107.027344 89.34375 " fill-opacity="1" fill-rule="nonzero"/></g><g clip-path="url(#4b3cf08a58)"><path fill="#e5b045" d="M 187.261719 89.34375 L 187.261719 261.84375 C 186.339844 261.84375 185.417969 261.632812 184.570312 261.207031 L 120.382812 229.113281 C 118.585938 228.214844 117.351562 226.476562 117.105469 224.476562 L 101.058594 96.105469 C 100.84375 94.394531 101.375 92.671875 102.515625 91.378906 C 103.660156 90.082031 105.300781 89.34375 107.027344 89.34375 Z M 187.261719 89.34375 " fill-opacity="1" fill-rule="evenodd"/></g><path fill="#cfd8dc" d="M 175.226562 113.414062 C 178.550781 113.414062 181.246094 116.105469 181.246094 119.429688 L 181.246094 223.730469 C 181.246094 225.878906 180.101562 227.859375 178.246094 228.9375 C 176.390625 230.011719 174.105469 230.019531 172.242188 228.957031 L 144.160156 212.910156 C 141.273438 211.261719 140.273438 207.585938 141.921875 204.699219 C 143.570312 201.816406 147.246094 200.8125 150.132812 202.460938 L 169.210938 213.363281 L 169.210938 119.429688 C 169.210938 116.105469 171.902344 113.414062 175.226562 113.414062 Z M 175.226562 113.414062 " fill-opacity="1" fill-rule="evenodd"/><path fill="#eceff1" d="M 193.28125 119.429688 C 193.28125 116.105469 195.972656 113.414062 199.296875 113.414062 L 239.414062 113.414062 C 242.738281 113.414062 245.429688 116.105469 245.429688 119.429688 C 245.429688 122.753906 242.738281 125.449219 239.414062 125.449219 L 205.316406 125.449219 L 205.316406 164.078125 L 234.097656 157.683594 C 235.972656 157.265625 237.933594 157.769531 239.375 159.039062 C 240.820312 160.308594 241.570312 162.1875 241.394531 164.101562 L 237.382812 208.230469 C 237.195312 210.304688 235.945312 212.136719 234.082031 213.066406 L 201.988281 229.113281 C 199.015625 230.601562 195.402344 229.394531 193.914062 226.421875 C 192.429688 223.449219 193.632812 219.835938 196.605469 218.351562 L 225.699219 203.800781 L 228.664062 171.21875 L 200.601562 177.453125 C 198.820312 177.851562 196.957031 177.417969 195.53125 176.273438 C 194.109375 175.132812 193.28125 173.40625 193.28125 171.582031 Z M 193.28125 119.429688 " fill-opacity="1" fill-rule="evenodd"/></svg>