<svg xmlns="http://www.w3.org/2000/svg" xmlns:xlink="http://www.w3.org/1999/xlink" width="500" zoomAndPan="magnify" viewBox="0 0 375 374.999991" height="500" preserveAspectRatio="xMidYMid meet" version="1.0"><defs><clipPath id="6ca016fef3"><path d="M 88.417969 88.417969 L 286.417969 88.417969 L 286.417969 286.417969 L 88.417969 286.417969 Z M 88.417969 88.417969 " clip-rule="nonzero"/></clipPath></defs><g clip-path="url(#6ca016fef3)"><path fill="#ffffff" d="M 88.417969 187.417969 C 88.417969 132.742188 132.742188 88.417969 187.417969 88.417969 C 242.09375 88.417969 286.417969 132.742188 286.417969 187.417969 C 286.417969 242.09375 242.09375 286.417969 187.417969 286.417969 C 132.742188 286.417969 88.417969 242.09375 88.417969 187.417969 Z M 139.15625 170.710938 L 139.15625 236.917969 L 160.195312 236.917969 L 160.195312 170.710938 Z M 137.917969 149.675781 C 137.917969 156.480469 142.867188 161.429688 149.675781 161.429688 C 156.480469 161.429688 161.429688 156.480469 161.429688 149.675781 C 161.429688 142.867188 156.480469 137.917969 149.675781 137.917969 C 143.488281 137.917969 137.917969 142.867188 137.917969 149.675781 Z M 215.882812 236.917969 L 235.679688 236.917969 L 235.679688 196.082031 C 235.679688 175.664062 223.304688 168.855469 211.550781 168.855469 C 201.03125 168.855469 193.605469 175.664062 191.75 179.992188 L 191.75 170.710938 L 171.949219 170.710938 L 171.949219 236.917969 L 192.988281 236.917969 L 192.988281 201.648438 C 192.988281 192.367188 199.175781 187.417969 205.363281 187.417969 C 211.550781 187.417969 215.882812 190.511719 215.882812 201.03125 Z M 215.882812 236.917969 " fill-opacity="1" fill-rule="evenodd"/></g></svg>