<svg xmlns="http://www.w3.org/2000/svg" xmlns:xlink="http://www.w3.org/1999/xlink" width="500" zoomAndPan="magnify" viewBox="0 0 375 374.999991" height="500" preserveAspectRatio="xMidYMid meet" version="1.0"><defs><clipPath id="3535c33415"><path d="M 108.230469 88.71875 L 258.230469 88.71875 L 258.230469 238.71875 L 108.230469 238.71875 Z M 108.230469 88.71875 " clip-rule="nonzero"/></clipPath></defs><g clip-path="url(#3535c33415)"><path fill="#000000" d="M 245.699219 88.71875 L 120.839844 88.71875 C 113.933594 88.71875 108.382812 94.347656 108.382812 101.175781 L 108.382812 226.261719 C 108.382812 233.167969 114.007812 238.71875 120.839844 238.71875 L 245.625 238.71875 C 252.527344 238.71875 258.082031 233.089844 258.082031 226.261719 L 258.082031 101.175781 C 258.15625 94.347656 252.605469 88.71875 245.699219 88.71875 Z M 152.730469 212.457031 L 130.59375 212.457031 L 130.59375 145.972656 L 152.730469 145.972656 Z M 141.625 137.945312 C 134.644531 137.945312 129.015625 132.316406 129.015625 125.335938 C 129.015625 118.359375 134.644531 112.730469 141.625 112.730469 C 148.601562 112.730469 154.230469 118.359375 154.230469 125.335938 C 154.230469 132.316406 148.601562 137.945312 141.625 137.945312 Z M 236.019531 212.457031 L 213.808594 212.457031 L 213.285156 172.988281 C 213.285156 172.988281 213.808594 162.480469 202.328125 162.554688 C 190.847656 162.632812 189.273438 172.988281 189.273438 172.988281 L 189.273438 212.457031 L 166.910156 212.457031 L 166.910156 145.972656 L 188.371094 145.972656 L 188.371094 155.128906 C 188.371094 155.128906 189.273438 152.125 194.226562 148.597656 C 199.175781 145.074219 207.355469 144.324219 210.882812 144.472656 C 214.410156 144.621094 219.210938 144.023438 227.242188 149.574219 C 235.871094 155.503906 236.09375 171.035156 236.09375 171.035156 Z M 236.019531 212.457031 " fill-opacity="1" fill-rule="nonzero"/></g></svg>