<svg xmlns="http://www.w3.org/2000/svg" xmlns:xlink="http://www.w3.org/1999/xlink" width="500" zoomAndPan="magnify" viewBox="0 0 375 374.999991" height="500" preserveAspectRatio="xMidYMid meet" version="1.0"><defs><g/></defs><g fill="#ffffff" fill-opacity="1"><g transform="translate(79.433342, 206.999986)"><g><path d="M 2.148438 -31.253906 L 2.148438 -26.621094 L 25.960938 -13.890625 L 25.960938 -22.324219 L 6.449219 -28.9375 L 25.960938 -35.550781 L 25.960938 -43.902344 Z M 2.148438 -31.253906 "/></g></g></g><g fill="#ffffff" fill-opacity="1"><g transform="translate(102.664688, 206.999986)"><g><path d="M 2.148438 4.132812 L 6.285156 4.132812 L 29.847656 -62.011719 L 25.714844 -62.011719 Z M 2.148438 4.132812 "/></g></g></g><g fill="#ffffff" fill-opacity="1"><g transform="translate(129.7818, 206.999986)"><g><path d="M 25.960938 -26.621094 L 25.960938 -31.253906 L 2.148438 -43.902344 L 2.148438 -35.550781 L 21.746094 -28.9375 L 2.148438 -22.324219 L 2.148438 -13.890625 Z M 25.960938 -26.621094 "/></g></g></g><g fill="#ffffff" fill-opacity="1"><g transform="translate(164.669901, 206.999986)"><g><path d="M 1.984375 -57.875 C 3.472656 -55.230469 3.804688 -52.832031 3.804688 -47.292969 L 3.804688 -10.664062 C 3.804688 -5.125 3.472656 -2.644531 1.984375 0 C 7.277344 0 11.988281 0 17.28125 0 C 26.871094 0 34.644531 -6.449219 34.644531 -20.007812 C 34.644531 -30.675781 30.34375 -36.214844 23.5625 -36.214844 C 22.570312 -36.214844 21.578125 -36.132812 20.671875 -35.882812 C 26.125 -39.355469 32.078125 -41.917969 32.078125 -48.367188 C 32.078125 -55.5625 26.292969 -57.875 18.023438 -57.875 Z M 13.558594 -23.152344 C 13.558594 -30.34375 15.957031 -33.652344 18.6875 -33.652344 C 22.902344 -33.652344 24.886719 -28.441406 24.886719 -17.941406 C 24.886719 -9.589844 22.902344 -3.140625 16.703125 -3.140625 L 13.640625 -3.140625 L 13.558594 -10.664062 Z M 13.558594 -33.734375 L 13.558594 -54.980469 L 17.527344 -54.980469 C 21.578125 -54.980469 23.234375 -52.089844 23.234375 -48.121094 C 23.234375 -42.25 18.023438 -38.03125 13.558594 -33.734375 Z M 13.558594 -33.734375 "/></g></g></g><g fill="#ffffff" fill-opacity="1"><g transform="translate(196.334173, 206.999986)"><g><path d="M 1.984375 -5.789062 C 1.984375 -1.984375 3.96875 0.578125 6.945312 0.578125 C 9.839844 0.578125 11.824219 -1.984375 11.824219 -5.789062 C 11.824219 -9.671875 9.839844 -12.238281 6.945312 -12.238281 C 3.96875 -12.238281 1.984375 -9.671875 1.984375 -5.789062 Z M 1.984375 -5.789062 "/></g></g></g><g fill="#ffffff" fill-opacity="1"><g transform="translate(216.836708, 206.999986)"><g><path d="M 3.804688 -47.789062 L 3.804688 -10.085938 C 3.804688 -4.546875 3.472656 -2.644531 1.984375 0 L 29.847656 0 L 29.847656 -18.6875 L 28.855469 -18.6875 C 27.285156 -7.359375 25.132812 -2.5625 13.558594 -2.976562 L 13.558594 -31.335938 L 14.964844 -31.335938 C 18.4375 -31.335938 23.152344 -28.277344 23.152344 -20.917969 L 24.140625 -20.917969 L 24.140625 -44.648438 L 23.152344 -44.648438 C 23.152344 -37.289062 18.4375 -34.230469 14.964844 -34.230469 L 13.558594 -34.230469 L 13.558594 -54.898438 L 16.703125 -54.898438 C 25.132812 -54.898438 28.855469 -47.707031 28.855469 -39.191406 L 29.847656 -39.191406 L 29.847656 -57.875 L 1.984375 -57.875 C 3.472656 -55.230469 3.804688 -53.328125 3.804688 -47.789062 Z M 3.804688 -47.789062 "/></g></g></g><g fill="#ffffff" fill-opacity="1"><g transform="translate(244.532541, 206.999986)"><g><path d="M 1.984375 -5.789062 C 1.984375 -1.984375 3.96875 0.578125 6.945312 0.578125 C 9.839844 0.578125 11.824219 -1.984375 11.824219 -5.789062 C 11.824219 -9.671875 9.839844 -12.238281 6.945312 -12.238281 C 3.96875 -12.238281 1.984375 -9.671875 1.984375 -5.789062 Z M 1.984375 -5.789062 "/></g></g></g><g fill="#ffffff" fill-opacity="1"><g transform="translate(265.035077, 206.999986)"><g><path d="M 22.242188 -10.5 C 22.242188 -5.703125 19.429688 -2.316406 15.625 -2.316406 C 8.019531 -2.316406 3.472656 -12.898438 3.472656 -20.753906 L 2.480469 -20.753906 L 2.5625 0.578125 C 2.5625 0.496094 4.464844 -0.496094 6.695312 -0.496094 C 11.078125 -0.496094 11.988281 0.578125 17.199219 0.578125 C 24.472656 0.578125 29.683594 -6.53125 29.683594 -14.386719 C 29.683594 -32.164062 8.929688 -34.644531 8.929688 -47.210938 C 8.929688 -52.417969 12.238281 -55.394531 16.453125 -55.394531 C 19.347656 -55.394531 24.140625 -52.914062 25.714844 -39.191406 L 26.707031 -39.191406 L 26.707031 -58.371094 C 25.132812 -58.125 24.636719 -58.125 22.242188 -58.125 C 20.089844 -58.125 17.941406 -58.371094 15.214844 -58.371094 C 7.855469 -58.371094 1.734375 -52.003906 1.734375 -43.902344 C 1.734375 -25.960938 22.160156 -22.902344 22.242188 -10.5 Z M 22.242188 -10.5 "/></g></g></g><g fill="#ffffff" fill-opacity="1"><g transform="translate(143.165605, 220.398912)"><g><path d="M 1.734375 -5.828125 L 1.734375 -3.84375 L 4.09375 -3.84375 C 4.226562 -3.84375 4.335938 -3.800781 4.421875 -3.71875 C 4.503906 -3.632812 4.546875 -3.523438 4.546875 -3.390625 C 4.546875 -3.273438 4.503906 -3.175781 4.421875 -3.09375 C 4.335938 -3.007812 4.226562 -2.96875 4.09375 -2.96875 L 1.734375 -2.96875 L 1.734375 -0.453125 C 1.734375 -0.328125 1.6875 -0.21875 1.59375 -0.125 C 1.5 -0.0390625 1.390625 0 1.265625 0 C 1.128906 0 1.015625 -0.0390625 0.921875 -0.125 C 0.835938 -0.21875 0.796875 -0.328125 0.796875 -0.453125 L 0.796875 -6.25 C 0.796875 -6.375 0.835938 -6.476562 0.921875 -6.5625 C 1.015625 -6.65625 1.125 -6.703125 1.25 -6.703125 L 4.515625 -6.703125 C 4.648438 -6.703125 4.757812 -6.660156 4.84375 -6.578125 C 4.9375 -6.492188 4.984375 -6.382812 4.984375 -6.25 C 4.984375 -6.132812 4.9375 -6.035156 4.84375 -5.953125 C 4.757812 -5.867188 4.648438 -5.828125 4.515625 -5.828125 Z M 1.734375 -5.828125 "/></g></g></g><g fill="#ffffff" fill-opacity="1"><g transform="translate(150.693146, 220.398912)"><g><path d="M 5.546875 -6.71875 C 5.679688 -6.71875 5.785156 -6.671875 5.859375 -6.578125 C 5.941406 -6.492188 5.984375 -6.382812 5.984375 -6.25 L 5.984375 -2.578125 C 5.984375 -2.066406 5.867188 -1.609375 5.640625 -1.203125 C 5.421875 -0.804688 5.113281 -0.492188 4.71875 -0.265625 C 4.332031 -0.046875 3.894531 0.0625 3.40625 0.0625 C 2.90625 0.0625 2.457031 -0.046875 2.0625 -0.265625 C 1.664062 -0.492188 1.351562 -0.804688 1.125 -1.203125 C 0.90625 -1.609375 0.796875 -2.066406 0.796875 -2.578125 L 0.796875 -6.25 C 0.796875 -6.382812 0.835938 -6.492188 0.921875 -6.578125 C 1.015625 -6.671875 1.132812 -6.71875 1.28125 -6.71875 C 1.394531 -6.71875 1.5 -6.671875 1.59375 -6.578125 C 1.6875 -6.492188 1.734375 -6.382812 1.734375 -6.25 L 1.734375 -2.578125 C 1.734375 -2.242188 1.804688 -1.941406 1.953125 -1.671875 C 2.109375 -1.410156 2.3125 -1.207031 2.5625 -1.0625 C 2.820312 -0.914062 3.101562 -0.84375 3.40625 -0.84375 C 3.707031 -0.84375 3.988281 -0.914062 4.25 -1.0625 C 4.507812 -1.207031 4.71875 -1.410156 4.875 -1.671875 C 5.03125 -1.941406 5.109375 -2.242188 5.109375 -2.578125 L 5.109375 -6.25 C 5.109375 -6.382812 5.144531 -6.492188 5.21875 -6.578125 C 5.300781 -6.671875 5.410156 -6.71875 5.546875 -6.71875 Z M 5.546875 -6.71875 "/></g></g></g><g fill="#ffffff" fill-opacity="1"><g transform="translate(159.599369, 220.398912)"><g><path d="M 4.5 -0.890625 C 4.625 -0.890625 4.726562 -0.847656 4.8125 -0.765625 C 4.90625 -0.679688 4.953125 -0.570312 4.953125 -0.4375 C 4.953125 -0.3125 4.90625 -0.207031 4.8125 -0.125 C 4.726562 -0.0390625 4.625 0 4.5 0 L 1.25 0 C 1.113281 0 1.003906 -0.0390625 0.921875 -0.125 C 0.835938 -0.21875 0.796875 -0.328125 0.796875 -0.453125 L 0.796875 -6.25 C 0.796875 -6.375 0.835938 -6.476562 0.921875 -6.5625 C 1.015625 -6.65625 1.132812 -6.703125 1.28125 -6.703125 C 1.40625 -6.703125 1.515625 -6.65625 1.609375 -6.5625 C 1.703125 -6.476562 1.75 -6.375 1.75 -6.25 L 1.75 -0.890625 Z M 4.5 -0.890625 "/></g></g></g><g fill="#ffffff" fill-opacity="1"><g transform="translate(166.992865, 220.398912)"><g><path d="M 4.5 -0.890625 C 4.625 -0.890625 4.726562 -0.847656 4.8125 -0.765625 C 4.90625 -0.679688 4.953125 -0.570312 4.953125 -0.4375 C 4.953125 -0.3125 4.90625 -0.207031 4.8125 -0.125 C 4.726562 -0.0390625 4.625 0 4.5 0 L 1.25 0 C 1.113281 0 1.003906 -0.0390625 0.921875 -0.125 C 0.835938 -0.21875 0.796875 -0.328125 0.796875 -0.453125 L 0.796875 -6.25 C 0.796875 -6.375 0.835938 -6.476562 0.921875 -6.5625 C 1.015625 -6.65625 1.132812 -6.703125 1.28125 -6.703125 C 1.40625 -6.703125 1.515625 -6.65625 1.609375 -6.5625 C 1.703125 -6.476562 1.75 -6.375 1.75 -6.25 L 1.75 -0.890625 Z M 4.5 -0.890625 "/></g></g></g><g fill="#ffffff" fill-opacity="1"><g transform="translate(174.386362, 220.398912)"><g/></g></g><g fill="#ffffff" fill-opacity="1"><g transform="translate(179.166098, 220.398912)"><g><path d="M 2.828125 0.09375 C 2.359375 0.09375 1.941406 0.03125 1.578125 -0.09375 C 1.222656 -0.226562 0.882812 -0.441406 0.5625 -0.734375 C 0.425781 -0.847656 0.359375 -0.976562 0.359375 -1.125 C 0.359375 -1.238281 0.398438 -1.34375 0.484375 -1.4375 C 0.578125 -1.53125 0.6875 -1.578125 0.8125 -1.578125 C 0.925781 -1.578125 1.019531 -1.539062 1.09375 -1.46875 C 1.34375 -1.238281 1.601562 -1.066406 1.875 -0.953125 C 2.15625 -0.835938 2.46875 -0.78125 2.8125 -0.78125 C 3.207031 -0.78125 3.546875 -0.875 3.828125 -1.0625 C 4.109375 -1.25 4.25 -1.484375 4.25 -1.765625 C 4.238281 -2.097656 4.097656 -2.351562 3.828125 -2.53125 C 3.554688 -2.71875 3.144531 -2.867188 2.59375 -2.984375 C 1.925781 -3.117188 1.414062 -3.335938 1.0625 -3.640625 C 0.707031 -3.953125 0.53125 -4.378906 0.53125 -4.921875 C 0.53125 -5.296875 0.628906 -5.625 0.828125 -5.90625 C 1.023438 -6.195312 1.300781 -6.414062 1.65625 -6.5625 C 2.007812 -6.71875 2.40625 -6.796875 2.84375 -6.796875 C 3.238281 -6.796875 3.613281 -6.734375 3.96875 -6.609375 C 4.320312 -6.484375 4.601562 -6.3125 4.8125 -6.09375 C 4.957031 -5.96875 5.03125 -5.832031 5.03125 -5.6875 C 5.03125 -5.570312 4.988281 -5.46875 4.90625 -5.375 C 4.820312 -5.289062 4.71875 -5.25 4.59375 -5.25 C 4.507812 -5.25 4.4375 -5.273438 4.375 -5.328125 C 4.207031 -5.492188 3.976562 -5.632812 3.6875 -5.75 C 3.394531 -5.863281 3.113281 -5.921875 2.84375 -5.921875 C 2.414062 -5.921875 2.078125 -5.832031 1.828125 -5.65625 C 1.578125 -5.476562 1.453125 -5.25 1.453125 -4.96875 C 1.453125 -4.65625 1.578125 -4.414062 1.828125 -4.25 C 2.078125 -4.082031 2.453125 -3.941406 2.953125 -3.828125 C 3.453125 -3.710938 3.859375 -3.582031 4.171875 -3.4375 C 4.484375 -3.289062 4.722656 -3.085938 4.890625 -2.828125 C 5.066406 -2.566406 5.15625 -2.222656 5.15625 -1.796875 C 5.15625 -1.429688 5.050781 -1.101562 4.84375 -0.8125 C 4.644531 -0.53125 4.363281 -0.304688 4 -0.140625 C 3.644531 0.015625 3.253906 0.09375 2.828125 0.09375 Z M 2.828125 0.09375 "/></g></g></g><g fill="#ffffff" fill-opacity="1"><g transform="translate(186.865977, 220.398912)"><g><path d="M 5.140625 -6.703125 C 5.273438 -6.703125 5.382812 -6.660156 5.46875 -6.578125 C 5.5625 -6.503906 5.609375 -6.398438 5.609375 -6.265625 C 5.609375 -6.128906 5.5625 -6.019531 5.46875 -5.9375 C 5.382812 -5.863281 5.273438 -5.828125 5.140625 -5.828125 L 3.4375 -5.828125 L 3.4375 -0.453125 C 3.4375 -0.328125 3.390625 -0.21875 3.296875 -0.125 C 3.203125 -0.0390625 3.085938 0 2.953125 0 C 2.804688 0 2.6875 -0.0390625 2.59375 -0.125 C 2.507812 -0.21875 2.46875 -0.328125 2.46875 -0.453125 L 2.46875 -5.828125 L 0.765625 -5.828125 C 0.628906 -5.828125 0.519531 -5.867188 0.4375 -5.953125 C 0.351562 -6.035156 0.3125 -6.144531 0.3125 -6.28125 C 0.3125 -6.40625 0.351562 -6.503906 0.4375 -6.578125 C 0.519531 -6.660156 0.628906 -6.703125 0.765625 -6.703125 Z M 5.140625 -6.703125 "/></g></g></g><g fill="#ffffff" fill-opacity="1"><g transform="translate(194.900948, 220.398912)"><g><path d="M 5.953125 -0.59375 C 5.972656 -0.53125 5.984375 -0.46875 5.984375 -0.40625 C 5.984375 -0.28125 5.9375 -0.175781 5.84375 -0.09375 C 5.757812 -0.0078125 5.660156 0.03125 5.546875 0.03125 C 5.453125 0.03125 5.367188 0.00390625 5.296875 -0.046875 C 5.222656 -0.109375 5.164062 -0.1875 5.125 -0.28125 L 4.53125 -1.6875 L 1.578125 -1.6875 L 0.984375 -0.265625 C 0.953125 -0.171875 0.898438 -0.0976562 0.828125 -0.046875 C 0.753906 0.00390625 0.671875 0.03125 0.578125 0.03125 C 0.453125 0.03125 0.351562 -0.00390625 0.28125 -0.078125 C 0.207031 -0.148438 0.171875 -0.242188 0.171875 -0.359375 C 0.171875 -0.390625 0.175781 -0.441406 0.1875 -0.515625 L 2.640625 -6.4375 C 2.679688 -6.539062 2.738281 -6.617188 2.8125 -6.671875 C 2.894531 -6.722656 2.988281 -6.742188 3.09375 -6.734375 C 3.1875 -6.734375 3.269531 -6.707031 3.34375 -6.65625 C 3.425781 -6.601562 3.484375 -6.53125 3.515625 -6.4375 Z M 1.9375 -2.5625 L 4.171875 -2.5625 L 3.046875 -5.234375 Z M 1.9375 -2.5625 "/></g></g></g><g fill="#ffffff" fill-opacity="1"><g transform="translate(203.175272, 220.398912)"><g><path d="M 5.578125 -6.3125 C 5.722656 -6.226562 5.796875 -6.097656 5.796875 -5.921875 C 5.796875 -5.804688 5.757812 -5.703125 5.6875 -5.609375 C 5.613281 -5.503906 5.507812 -5.453125 5.375 -5.453125 C 5.28125 -5.453125 5.191406 -5.476562 5.109375 -5.53125 C 4.710938 -5.75 4.285156 -5.859375 3.828125 -5.859375 C 3.347656 -5.859375 2.925781 -5.753906 2.5625 -5.546875 C 2.195312 -5.335938 1.910156 -5.039062 1.703125 -4.65625 C 1.492188 -4.28125 1.390625 -3.847656 1.390625 -3.359375 C 1.390625 -2.828125 1.492188 -2.367188 1.703125 -1.984375 C 1.921875 -1.597656 2.210938 -1.300781 2.578125 -1.09375 C 2.953125 -0.894531 3.367188 -0.796875 3.828125 -0.796875 C 4.304688 -0.796875 4.734375 -0.914062 5.109375 -1.15625 C 5.191406 -1.1875 5.273438 -1.203125 5.359375 -1.203125 C 5.503906 -1.203125 5.617188 -1.148438 5.703125 -1.046875 C 5.773438 -0.953125 5.8125 -0.847656 5.8125 -0.734375 C 5.8125 -0.660156 5.789062 -0.585938 5.75 -0.515625 C 5.707031 -0.453125 5.648438 -0.398438 5.578125 -0.359375 C 5.328125 -0.222656 5.046875 -0.113281 4.734375 -0.03125 C 4.429688 0.0507812 4.128906 0.09375 3.828125 0.09375 C 3.210938 0.09375 2.644531 -0.0390625 2.125 -0.3125 C 1.601562 -0.59375 1.1875 -0.992188 0.875 -1.515625 C 0.5625 -2.035156 0.40625 -2.648438 0.40625 -3.359375 C 0.40625 -3.992188 0.550781 -4.570312 0.84375 -5.09375 C 1.144531 -5.613281 1.554688 -6.019531 2.078125 -6.3125 C 2.597656 -6.613281 3.179688 -6.765625 3.828125 -6.765625 C 4.453125 -6.765625 5.035156 -6.613281 5.578125 -6.3125 Z M 5.578125 -6.3125 "/></g></g></g><g fill="#ffffff" fill-opacity="1"><g transform="translate(211.411303, 220.398912)"><g><path d="M 5.890625 -0.78125 C 5.960938 -0.6875 6 -0.578125 6 -0.453125 C 6 -0.316406 5.945312 -0.203125 5.84375 -0.109375 C 5.738281 -0.0234375 5.617188 0.015625 5.484375 0.015625 C 5.347656 0.015625 5.234375 -0.0390625 5.140625 -0.15625 L 2.8125 -3.15625 L 1.75 -2.140625 L 1.75 -0.46875 C 1.75 -0.332031 1.703125 -0.21875 1.609375 -0.125 C 1.515625 -0.0390625 1.398438 0 1.265625 0 C 1.117188 0 1.003906 -0.0390625 0.921875 -0.125 C 0.835938 -0.21875 0.796875 -0.332031 0.796875 -0.46875 L 0.796875 -6.25 C 0.796875 -6.375 0.835938 -6.476562 0.921875 -6.5625 C 1.015625 -6.65625 1.132812 -6.703125 1.28125 -6.703125 C 1.414062 -6.703125 1.523438 -6.660156 1.609375 -6.578125 C 1.703125 -6.492188 1.75 -6.382812 1.75 -6.25 L 1.75 -3.265625 L 5.140625 -6.5625 C 5.265625 -6.664062 5.382812 -6.71875 5.5 -6.71875 C 5.625 -6.71875 5.722656 -6.671875 5.796875 -6.578125 C 5.878906 -6.484375 5.921875 -6.382812 5.921875 -6.28125 C 5.921875 -6.175781 5.878906 -6.078125 5.796875 -5.984375 L 3.53125 -3.828125 Z M 5.890625 -0.78125 "/></g></g></g><g fill="#ffffff" fill-opacity="1"><g transform="translate(219.886689, 220.398912)"><g/></g></g><g fill="#ffffff" fill-opacity="1"><g transform="translate(224.666422, 220.398912)"><g><path d="M 3.609375 -6.703125 C 4.210938 -6.703125 4.726562 -6.550781 5.15625 -6.25 C 5.582031 -5.945312 5.90625 -5.539062 6.125 -5.03125 C 6.34375 -4.53125 6.453125 -3.972656 6.453125 -3.359375 C 6.453125 -2.722656 6.34375 -2.148438 6.125 -1.640625 C 5.90625 -1.140625 5.582031 -0.738281 5.15625 -0.4375 C 4.726562 -0.144531 4.210938 0 3.609375 0 L 1.25 0 C 1.125 0 1.015625 -0.0390625 0.921875 -0.125 C 0.835938 -0.21875 0.796875 -0.328125 0.796875 -0.453125 L 0.796875 -6.25 C 0.796875 -6.375 0.835938 -6.476562 0.921875 -6.5625 C 1.015625 -6.65625 1.125 -6.703125 1.25 -6.703125 Z M 3.515625 -0.875 C 4.171875 -0.875 4.660156 -1.101562 4.984375 -1.5625 C 5.304688 -2.03125 5.46875 -2.628906 5.46875 -3.359375 C 5.46875 -4.066406 5.300781 -4.65625 4.96875 -5.125 C 4.644531 -5.59375 4.160156 -5.828125 3.515625 -5.828125 L 1.75 -5.828125 L 1.75 -0.875 Z M 3.515625 -0.875 "/></g></g></g><g fill="#ffffff" fill-opacity="1"><g transform="translate(233.658817, 220.398912)"><g><path d="M 4.59375 -0.875 C 4.726562 -0.875 4.835938 -0.828125 4.921875 -0.734375 C 5.003906 -0.648438 5.046875 -0.550781 5.046875 -0.4375 C 5.046875 -0.300781 5.003906 -0.191406 4.921875 -0.109375 C 4.835938 -0.0351562 4.726562 0 4.59375 0 L 1.25 0 C 1.125 0 1.015625 -0.0390625 0.921875 -0.125 C 0.835938 -0.21875 0.796875 -0.328125 0.796875 -0.453125 L 0.796875 -6.25 C 0.796875 -6.375 0.835938 -6.476562 0.921875 -6.5625 C 1.015625 -6.65625 1.125 -6.703125 1.25 -6.703125 L 4.59375 -6.703125 C 4.726562 -6.703125 4.835938 -6.660156 4.921875 -6.578125 C 5.003906 -6.492188 5.046875 -6.382812 5.046875 -6.25 C 5.046875 -6.125 5.003906 -6.019531 4.921875 -5.9375 C 4.835938 -5.863281 4.726562 -5.828125 4.59375 -5.828125 L 1.75 -5.828125 L 1.75 -3.875 L 4.15625 -3.875 C 4.289062 -3.875 4.398438 -3.832031 4.484375 -3.75 C 4.566406 -3.664062 4.609375 -3.554688 4.609375 -3.421875 C 4.609375 -3.296875 4.566406 -3.191406 4.484375 -3.109375 C 4.398438 -3.035156 4.289062 -3 4.15625 -3 L 1.75 -3 L 1.75 -0.875 Z M 4.59375 -0.875 "/></g></g></g><g fill="#ffffff" fill-opacity="1"><g transform="translate(241.2438, 220.398912)"><g><path d="M 5.671875 -6.71875 C 5.796875 -6.71875 5.90625 -6.675781 6 -6.59375 C 6.09375 -6.507812 6.140625 -6.40625 6.140625 -6.28125 C 6.140625 -6.21875 6.125 -6.148438 6.09375 -6.078125 L 3.65625 -0.296875 C 3.601562 -0.203125 3.535156 -0.128906 3.453125 -0.078125 C 3.367188 -0.0234375 3.285156 0 3.203125 0 C 3.117188 -0.0078125 3.039062 -0.0351562 2.96875 -0.078125 C 2.894531 -0.128906 2.832031 -0.195312 2.78125 -0.28125 L 0.34375 -6.078125 C 0.320312 -6.128906 0.3125 -6.195312 0.3125 -6.28125 C 0.3125 -6.40625 0.359375 -6.507812 0.453125 -6.59375 C 0.546875 -6.675781 0.648438 -6.71875 0.765625 -6.71875 C 0.953125 -6.71875 1.09375 -6.617188 1.1875 -6.421875 L 3.28125 -1.484375 L 5.25 -6.421875 C 5.289062 -6.515625 5.347656 -6.585938 5.421875 -6.640625 C 5.492188 -6.691406 5.578125 -6.71875 5.671875 -6.71875 Z M 5.671875 -6.71875 "/></g></g></g></svg>