<svg xmlns="http://www.w3.org/2000/svg" xmlns:xlink="http://www.w3.org/1999/xlink" width="1600" zoomAndPan="magnify" viewBox="0 0 1200 1199.999942" height="1600" preserveAspectRatio="xMidYMid meet" version="1.0"><defs><g/></defs><g fill="#e6e6dd" fill-opacity="1"><g transform="translate(4.561796, 659.323018)"><g><path d="M 11.378906 -165.433594 L 11.378906 -140.925781 L 137.421875 -73.527344 L 137.421875 -118.167969 L 34.136719 -153.179688 L 137.421875 -188.191406 L 137.421875 -232.394531 Z M 11.378906 -165.433594 "/></g></g></g><g fill="#e6e6dd" fill-opacity="1"><g transform="translate(127.542445, 659.323018)"><g><path d="M 11.378906 21.882812 L 33.261719 21.882812 L 157.992188 -328.242188 L 136.109375 -328.242188 Z M 11.378906 21.882812 "/></g></g></g><g fill="#e6e6dd" fill-opacity="1"><g transform="translate(271.09286, 659.323018)"><g><path d="M 137.421875 -140.925781 L 137.421875 -165.433594 L 11.378906 -232.394531 L 11.378906 -188.191406 L 115.101562 -153.179688 L 11.378906 -118.167969 L 11.378906 -73.527344 Z M 137.421875 -140.925781 "/></g></g></g><g fill="#e6e6dd" fill-opacity="1"><g transform="translate(394.073508, 659.323018)"><g/></g></g><g fill="#e6e6dd" fill-opacity="1"><g transform="translate(455.782518, 659.323018)"><g><path d="M 10.503906 -306.359375 C 18.382812 -292.355469 20.132812 -279.660156 20.132812 -250.339844 L 20.132812 -56.457031 C 20.132812 -27.132812 18.382812 -14.003906 10.503906 0 C 38.511719 0 63.460938 0 91.46875 0 C 142.238281 0 183.378906 -34.136719 183.378906 -105.914062 C 183.378906 -162.371094 160.621094 -191.691406 124.730469 -191.691406 C 119.480469 -191.691406 114.226562 -191.253906 109.414062 -189.941406 C 138.300781 -208.324219 169.808594 -221.890625 169.808594 -256.027344 C 169.808594 -294.105469 139.175781 -306.359375 95.410156 -306.359375 Z M 71.777344 -122.542969 C 71.777344 -160.621094 84.46875 -178.125 98.910156 -178.125 C 121.230469 -178.125 131.734375 -150.554688 131.734375 -94.972656 C 131.734375 -50.769531 121.230469 -16.632812 88.40625 -16.632812 L 72.214844 -16.632812 L 71.777344 -56.457031 Z M 71.777344 -178.5625 L 71.777344 -291.039062 L 92.78125 -291.039062 C 114.226562 -291.039062 122.980469 -275.722656 122.980469 -254.714844 C 122.980469 -223.640625 95.410156 -201.320312 71.777344 -178.5625 Z M 71.777344 -178.5625 "/></g></g></g><g fill="#e6e6dd" fill-opacity="1"><g transform="translate(623.403843, 659.323018)"><g><path d="M 10.503906 -30.636719 C 10.503906 -10.503906 21.007812 3.0625 36.761719 3.0625 C 52.082031 3.0625 62.585938 -10.503906 62.585938 -30.636719 C 62.585938 -51.207031 52.082031 -64.773438 36.761719 -64.773438 C 21.007812 -64.773438 10.503906 -51.207031 10.503906 -30.636719 Z M 10.503906 -30.636719 "/></g></g></g><g fill="#e6e6dd" fill-opacity="1"><g transform="translate(670.232651, 659.323018)"><g/></g></g><g fill="#e6e6dd" fill-opacity="1"><g transform="translate(731.941661, 659.323018)"><g><path d="M 20.132812 -252.964844 L 20.132812 -53.394531 C 20.132812 -24.070312 18.382812 -14.003906 10.503906 0 L 157.992188 0 L 157.992188 -98.910156 L 152.742188 -98.910156 C 144.425781 -38.953125 133.046875 -13.566406 71.777344 -15.753906 L 71.777344 -165.871094 L 79.214844 -165.871094 C 97.597656 -165.871094 122.542969 -149.679688 122.542969 -110.726562 L 127.796875 -110.726562 L 127.796875 -236.332031 L 122.542969 -236.332031 C 122.542969 -197.382812 97.597656 -181.1875 79.214844 -181.1875 L 71.777344 -181.1875 L 71.777344 -290.601562 L 88.40625 -290.601562 C 133.046875 -290.601562 152.742188 -252.527344 152.742188 -207.449219 L 157.992188 -207.449219 L 157.992188 -306.359375 L 10.503906 -306.359375 C 18.382812 -292.355469 20.132812 -282.289062 20.132812 -252.964844 Z M 20.132812 -252.964844 "/></g></g></g><g fill="#e6e6dd" fill-opacity="1"><g transform="translate(878.555615, 659.323018)"><g><path d="M 10.503906 -30.636719 C 10.503906 -10.503906 21.007812 3.0625 36.761719 3.0625 C 52.082031 3.0625 62.585938 -10.503906 62.585938 -30.636719 C 62.585938 -51.207031 52.082031 -64.773438 36.761719 -64.773438 C 21.007812 -64.773438 10.503906 -51.207031 10.503906 -30.636719 Z M 10.503906 -30.636719 "/></g></g></g><g fill="#e6e6dd" fill-opacity="1"><g transform="translate(925.384376, 659.323018)"><g/></g></g><g fill="#e6e6dd" fill-opacity="1"><g transform="translate(987.093386, 659.323018)"><g><path d="M 117.730469 -55.582031 C 117.730469 -30.199219 102.847656 -12.253906 82.714844 -12.253906 C 42.453125 -12.253906 18.382812 -68.273438 18.382812 -109.851562 L 13.128906 -109.851562 L 13.566406 3.0625 C 13.566406 2.625 23.632812 -2.625 35.449219 -2.625 C 58.644531 -2.625 63.460938 3.0625 91.03125 3.0625 C 129.546875 3.0625 157.117188 -34.574219 157.117188 -76.152344 C 157.117188 -170.246094 47.265625 -183.378906 47.265625 -249.902344 C 47.265625 -277.472656 64.773438 -293.230469 87.09375 -293.230469 C 102.410156 -293.230469 127.796875 -280.097656 136.109375 -207.449219 L 141.363281 -207.449219 L 141.363281 -308.984375 C 133.046875 -307.671875 130.421875 -307.671875 117.730469 -307.671875 C 106.351562 -307.671875 94.972656 -308.984375 80.527344 -308.984375 C 41.578125 -308.984375 9.191406 -275.285156 9.191406 -232.394531 C 9.191406 -137.421875 117.292969 -121.230469 117.730469 -55.582031 Z M 117.730469 -55.582031 "/></g></g></g><g fill="#e6e6dd" fill-opacity="1"><g transform="translate(1122.766101, 659.323018)"><g><path d="M 10.503906 -30.636719 C 10.503906 -10.503906 21.007812 3.0625 36.761719 3.0625 C 52.082031 3.0625 62.585938 -10.503906 62.585938 -30.636719 C 62.585938 -51.207031 52.082031 -64.773438 36.761719 -64.773438 C 21.007812 -64.773438 10.503906 -51.207031 10.503906 -30.636719 Z M 10.503906 -30.636719 "/></g></g></g><g fill="#e6e6dd" fill-opacity="1"><g transform="translate(193.576589, 777.545886)"><g><path d="M 15 -50.40625 L 15 -33.25 L 35.40625 -33.25 C 36.5625 -33.25 37.507812 -32.890625 38.25 -32.171875 C 39 -31.453125 39.375 -30.507812 39.375 -29.34375 C 39.375 -28.351562 39 -27.5 38.25 -26.78125 C 37.507812 -26.0625 36.5625 -25.703125 35.40625 -25.703125 L 15 -25.703125 L 15 -3.984375 C 15 -2.878906 14.597656 -1.9375 13.796875 -1.15625 C 13.003906 -0.382812 12.050781 0 10.9375 0 C 9.78125 0 8.8125 -0.382812 8.03125 -1.15625 C 7.257812 -1.9375 6.875 -2.878906 6.875 -3.984375 L 6.875 -54.0625 C 6.875 -55.164062 7.257812 -56.101562 8.03125 -56.875 C 8.8125 -57.644531 9.753906 -58.03125 10.859375 -58.03125 L 39.125 -58.03125 C 40.289062 -58.03125 41.242188 -57.671875 41.984375 -56.953125 C 42.734375 -56.234375 43.109375 -55.296875 43.109375 -54.140625 C 43.109375 -53.140625 42.722656 -52.265625 41.953125 -51.515625 C 41.179688 -50.773438 40.238281 -50.40625 39.125 -50.40625 Z M 15 -50.40625 "/></g></g></g><g fill="#e6e6dd" fill-opacity="1"><g transform="translate(258.736581, 777.545886)"><g><path d="M 48 -58.125 C 49.164062 -58.125 50.09375 -57.75 50.78125 -57 C 51.46875 -56.25 51.8125 -55.296875 51.8125 -54.140625 L 51.8125 -22.296875 C 51.8125 -17.929688 50.84375 -14.007812 48.90625 -10.53125 C 46.976562 -7.050781 44.3125 -4.328125 40.90625 -2.359375 C 37.507812 -0.398438 33.6875 0.578125 29.4375 0.578125 C 25.125 0.578125 21.253906 -0.398438 17.828125 -2.359375 C 14.398438 -4.328125 11.71875 -7.050781 9.78125 -10.53125 C 7.84375 -14.007812 6.875 -17.929688 6.875 -22.296875 L 6.875 -54.140625 C 6.875 -55.296875 7.257812 -56.25 8.03125 -57 C 8.8125 -57.75 9.8125 -58.125 11.03125 -58.125 C 12.082031 -58.125 13.003906 -57.734375 13.796875 -56.953125 C 14.597656 -56.179688 15 -55.242188 15 -54.140625 L 15 -22.296875 C 15 -19.421875 15.660156 -16.835938 16.984375 -14.546875 C 18.316406 -12.253906 20.085938 -10.472656 22.296875 -9.203125 C 24.515625 -7.929688 26.894531 -7.296875 29.4375 -7.296875 C 32.082031 -7.296875 34.535156 -7.929688 36.796875 -9.203125 C 39.066406 -10.472656 40.878906 -12.253906 42.234375 -14.546875 C 43.585938 -16.835938 44.265625 -19.421875 44.265625 -22.296875 L 44.265625 -54.140625 C 44.265625 -55.296875 44.597656 -56.25 45.265625 -57 C 45.929688 -57.75 46.84375 -58.125 48 -58.125 Z M 48 -58.125 "/></g></g></g><g fill="#e6e6dd" fill-opacity="1"><g transform="translate(335.83395, 777.545886)"><g><path d="M 38.890625 -7.703125 C 40.046875 -7.703125 40.992188 -7.34375 41.734375 -6.625 C 42.484375 -5.914062 42.859375 -4.976562 42.859375 -3.8125 C 42.859375 -2.707031 42.484375 -1.796875 41.734375 -1.078125 C 40.992188 -0.359375 40.046875 0 38.890625 0 L 10.859375 0 C 9.703125 0 8.75 -0.382812 8 -1.15625 C 7.25 -1.9375 6.875 -2.878906 6.875 -3.984375 L 6.875 -54.0625 C 6.875 -55.164062 7.257812 -56.101562 8.03125 -56.875 C 8.8125 -57.644531 9.8125 -58.03125 11.03125 -58.03125 C 12.132812 -58.03125 13.085938 -57.644531 13.890625 -56.875 C 14.691406 -56.101562 15.09375 -55.164062 15.09375 -54.0625 L 15.09375 -7.703125 Z M 38.890625 -7.703125 "/></g></g></g><g fill="#e6e6dd" fill-opacity="1"><g transform="translate(399.833368, 777.545886)"><g><path d="M 38.890625 -7.703125 C 40.046875 -7.703125 40.992188 -7.34375 41.734375 -6.625 C 42.484375 -5.914062 42.859375 -4.976562 42.859375 -3.8125 C 42.859375 -2.707031 42.484375 -1.796875 41.734375 -1.078125 C 40.992188 -0.359375 40.046875 0 38.890625 0 L 10.859375 0 C 9.703125 0 8.75 -0.382812 8 -1.15625 C 7.25 -1.9375 6.875 -2.878906 6.875 -3.984375 L 6.875 -54.0625 C 6.875 -55.164062 7.257812 -56.101562 8.03125 -56.875 C 8.8125 -57.644531 9.8125 -58.03125 11.03125 -58.03125 C 12.132812 -58.03125 13.085938 -57.644531 13.890625 -56.875 C 14.691406 -56.101562 15.09375 -55.164062 15.09375 -54.0625 L 15.09375 -7.703125 Z M 38.890625 -7.703125 "/></g></g></g><g fill="#e6e6dd" fill-opacity="1"><g transform="translate(463.832774, 777.545886)"><g/></g></g><g fill="#e6e6dd" fill-opacity="1"><g transform="translate(505.200896, 777.545886)"><g><path d="M 24.453125 0.828125 C 20.421875 0.828125 16.859375 0.265625 13.765625 -0.859375 C 10.671875 -1.992188 7.710938 -3.835938 4.890625 -6.390625 C 3.734375 -7.378906 3.15625 -8.507812 3.15625 -9.78125 C 3.15625 -10.78125 3.539062 -11.675781 4.3125 -12.46875 C 5.082031 -13.269531 5.992188 -13.671875 7.046875 -13.671875 C 7.984375 -13.671875 8.785156 -13.367188 9.453125 -12.765625 C 11.660156 -10.722656 13.9375 -9.21875 16.28125 -8.25 C 18.632812 -7.28125 21.304688 -6.796875 24.296875 -6.796875 C 27.773438 -6.796875 30.71875 -7.597656 33.125 -9.203125 C 35.53125 -10.804688 36.734375 -12.820312 36.734375 -15.25 C 36.671875 -18.125 35.460938 -20.347656 33.109375 -21.921875 C 30.765625 -23.503906 27.191406 -24.816406 22.390625 -25.859375 C 16.691406 -27.023438 12.304688 -28.929688 9.234375 -31.578125 C 6.171875 -34.234375 4.640625 -37.910156 4.640625 -42.609375 C 4.640625 -45.867188 5.492188 -48.726562 7.203125 -51.1875 C 8.921875 -53.65625 11.300781 -55.550781 14.34375 -56.875 C 17.382812 -58.195312 20.8125 -58.859375 24.625 -58.859375 C 28.050781 -58.859375 31.285156 -58.304688 34.328125 -57.203125 C 37.367188 -56.097656 39.828125 -54.632812 41.703125 -52.8125 C 42.972656 -51.707031 43.609375 -50.519531 43.609375 -49.25 C 43.609375 -48.25 43.234375 -47.363281 42.484375 -46.59375 C 41.742188 -45.820312 40.847656 -45.4375 39.796875 -45.4375 C 39.023438 -45.4375 38.390625 -45.65625 37.890625 -46.09375 C 36.453125 -47.53125 34.460938 -48.742188 31.921875 -49.734375 C 29.378906 -50.734375 26.945312 -51.234375 24.625 -51.234375 C 20.914062 -51.234375 17.96875 -50.472656 15.78125 -48.953125 C 13.601562 -47.429688 12.515625 -45.429688 12.515625 -42.953125 C 12.515625 -40.242188 13.601562 -38.171875 15.78125 -36.734375 C 17.96875 -35.296875 21.21875 -34.078125 25.53125 -33.078125 C 29.84375 -32.140625 33.363281 -31.035156 36.09375 -29.765625 C 38.832031 -28.492188 40.945312 -26.722656 42.4375 -24.453125 C 43.9375 -22.191406 44.6875 -19.238281 44.6875 -15.59375 C 44.6875 -12.382812 43.785156 -9.535156 41.984375 -7.046875 C 40.191406 -4.554688 37.75 -2.617188 34.65625 -1.234375 C 31.5625 0.140625 28.160156 0.828125 24.453125 0.828125 Z M 24.453125 0.828125 "/></g></g></g><g fill="#e6e6dd" fill-opacity="1"><g transform="translate(571.853066, 777.545886)"><g><path d="M 44.515625 -58.03125 C 45.679688 -58.03125 46.632812 -57.6875 47.375 -57 C 48.125 -56.3125 48.5 -55.382812 48.5 -54.21875 C 48.5 -53.0625 48.125 -52.148438 47.375 -51.484375 C 46.632812 -50.816406 45.679688 -50.484375 44.515625 -50.484375 L 29.765625 -50.484375 L 29.765625 -3.984375 C 29.765625 -2.878906 29.363281 -1.9375 28.5625 -1.15625 C 27.757812 -0.382812 26.75 0 25.53125 0 C 24.320312 0 23.316406 -0.382812 22.515625 -1.15625 C 21.710938 -1.9375 21.3125 -2.878906 21.3125 -3.984375 L 21.3125 -50.484375 L 6.625 -50.484375 C 5.46875 -50.484375 4.515625 -50.828125 3.765625 -51.515625 C 3.023438 -52.210938 2.65625 -53.140625 2.65625 -54.296875 C 2.65625 -55.410156 3.023438 -56.3125 3.765625 -57 C 4.515625 -57.6875 5.46875 -58.03125 6.625 -58.03125 Z M 44.515625 -58.03125 "/></g></g></g><g fill="#e6e6dd" fill-opacity="1"><g transform="translate(641.406657, 777.545886)"><g><path d="M 51.484375 -5.140625 C 51.648438 -4.640625 51.734375 -4.113281 51.734375 -3.5625 C 51.734375 -2.457031 51.359375 -1.546875 50.609375 -0.828125 C 49.867188 -0.109375 49 0.25 48 0.25 C 47.226562 0.25 46.523438 0.015625 45.890625 -0.453125 C 45.253906 -0.921875 44.742188 -1.570312 44.359375 -2.40625 L 39.21875 -14.59375 L 13.59375 -14.59375 L 8.546875 -2.328125 C 8.265625 -1.492188 7.804688 -0.851562 7.171875 -0.40625 C 6.535156 0.03125 5.832031 0.25 5.0625 0.25 C 3.894531 0.25 3.007812 -0.0507812 2.40625 -0.65625 C 1.800781 -1.269531 1.5 -2.101562 1.5 -3.15625 C 1.5 -3.375 1.550781 -3.816406 1.65625 -4.484375 L 22.796875 -55.71875 C 23.179688 -56.601562 23.71875 -57.28125 24.40625 -57.75 C 25.101562 -58.21875 25.894531 -58.394531 26.78125 -58.28125 C 27.601562 -58.28125 28.347656 -58.054688 29.015625 -57.609375 C 29.679688 -57.171875 30.148438 -56.539062 30.421875 -55.71875 Z M 16.75 -22.140625 L 36.0625 -22.140625 L 26.359375 -45.34375 Z M 16.75 -22.140625 "/></g></g></g><g fill="#e6e6dd" fill-opacity="1"><g transform="translate(713.032749, 777.545886)"><g><path d="M 48.25 -54.640625 C 49.570312 -53.921875 50.234375 -52.8125 50.234375 -51.3125 C 50.234375 -50.320312 49.90625 -49.410156 49.25 -48.578125 C 48.582031 -47.691406 47.671875 -47.25 46.515625 -47.25 C 45.734375 -47.25 44.984375 -47.445312 44.265625 -47.84375 C 40.835938 -49.769531 37.132812 -50.734375 33.15625 -50.734375 C 29.007812 -50.734375 25.347656 -49.820312 22.171875 -48 C 18.992188 -46.175781 16.519531 -43.617188 14.75 -40.328125 C 12.988281 -37.046875 12.109375 -33.273438 12.109375 -29.015625 C 12.109375 -24.429688 13.019531 -20.476562 14.84375 -17.15625 C 16.664062 -13.84375 19.175781 -11.316406 22.375 -9.578125 C 25.582031 -7.835938 29.175781 -6.96875 33.15625 -6.96875 C 37.25 -6.96875 40.953125 -7.960938 44.265625 -9.953125 C 44.929688 -10.285156 45.648438 -10.453125 46.421875 -10.453125 C 47.640625 -10.453125 48.609375 -9.976562 49.328125 -9.03125 C 49.992188 -8.207031 50.328125 -7.328125 50.328125 -6.390625 C 50.328125 -5.722656 50.144531 -5.097656 49.78125 -4.515625 C 49.425781 -3.929688 48.941406 -3.476562 48.328125 -3.15625 C 46.171875 -1.9375 43.753906 -0.96875 41.078125 -0.25 C 38.398438 0.46875 35.757812 0.828125 33.15625 0.828125 C 27.800781 0.828125 22.867188 -0.359375 18.359375 -2.734375 C 13.859375 -5.109375 10.265625 -8.5625 7.578125 -13.09375 C 4.898438 -17.625 3.5625 -22.929688 3.5625 -29.015625 C 3.5625 -34.597656 4.847656 -39.640625 7.421875 -44.140625 C 9.992188 -48.648438 13.53125 -52.1875 18.03125 -54.75 C 22.53125 -57.320312 27.570312 -58.609375 33.15625 -58.609375 C 38.519531 -58.609375 43.550781 -57.285156 48.25 -54.640625 Z M 48.25 -54.640625 "/></g></g></g><g fill="#e6e6dd" fill-opacity="1"><g transform="translate(784.327237, 777.545886)"><g><path d="M 50.984375 -6.71875 C 51.597656 -5.945312 51.90625 -5.035156 51.90625 -3.984375 C 51.90625 -2.765625 51.445312 -1.765625 50.53125 -0.984375 C 49.613281 -0.210938 48.578125 0.171875 47.421875 0.171875 C 46.316406 0.171875 45.347656 -0.328125 44.515625 -1.328125 L 24.375 -27.28125 L 15.09375 -18.484375 L 15.09375 -4.0625 C 15.09375 -2.90625 14.703125 -1.9375 13.921875 -1.15625 C 13.148438 -0.382812 12.15625 0 10.9375 0 C 9.726562 0 8.75 -0.382812 8 -1.15625 C 7.25 -1.9375 6.875 -2.90625 6.875 -4.0625 L 6.875 -54.0625 C 6.875 -55.164062 7.257812 -56.101562 8.03125 -56.875 C 8.8125 -57.644531 9.8125 -58.03125 11.03125 -58.03125 C 12.238281 -58.03125 13.21875 -57.65625 13.96875 -56.90625 C 14.71875 -56.164062 15.09375 -55.21875 15.09375 -54.0625 L 15.09375 -28.265625 L 44.515625 -56.796875 C 45.566406 -57.734375 46.617188 -58.203125 47.671875 -58.203125 C 48.660156 -58.203125 49.515625 -57.785156 50.234375 -56.953125 C 50.953125 -56.128906 51.3125 -55.242188 51.3125 -54.296875 C 51.3125 -53.472656 50.925781 -52.617188 50.15625 -51.734375 L 30.515625 -33.15625 Z M 50.984375 -6.71875 "/></g></g></g><g fill="#e6e6dd" fill-opacity="1"><g transform="translate(857.694159, 777.545886)"><g/></g></g><g fill="#e6e6dd" fill-opacity="1"><g transform="translate(899.062259, 777.545886)"><g><path d="M 31.25 -58.03125 C 36.445312 -58.03125 40.894531 -56.726562 44.59375 -54.125 C 48.300781 -51.53125 51.09375 -48.035156 52.96875 -43.640625 C 54.851562 -39.253906 55.796875 -34.378906 55.796875 -29.015625 C 55.796875 -23.597656 54.851562 -18.691406 52.96875 -14.296875 C 51.09375 -9.898438 48.300781 -6.414062 44.59375 -3.84375 C 40.894531 -1.28125 36.445312 0 31.25 0 L 10.859375 0 C 9.753906 0 8.8125 -0.382812 8.03125 -1.15625 C 7.257812 -1.9375 6.875 -2.878906 6.875 -3.984375 L 6.875 -54.0625 C 6.875 -55.164062 7.257812 -56.101562 8.03125 -56.875 C 8.8125 -57.644531 9.753906 -58.03125 10.859375 -58.03125 Z M 30.421875 -7.625 C 36.066406 -7.625 40.296875 -9.628906 43.109375 -13.640625 C 45.929688 -17.648438 47.34375 -22.773438 47.34375 -29.015625 C 47.34375 -35.203125 45.914062 -40.3125 43.0625 -44.34375 C 40.21875 -48.382812 36.003906 -50.40625 30.421875 -50.40625 L 15.09375 -50.40625 L 15.09375 -7.625 Z M 30.421875 -7.625 "/></g></g></g><g fill="#e6e6dd" fill-opacity="1"><g transform="translate(976.905742, 777.545886)"><g><path d="M 39.71875 -7.625 C 40.875 -7.625 41.820312 -7.238281 42.5625 -6.46875 C 43.3125 -5.695312 43.6875 -4.785156 43.6875 -3.734375 C 43.6875 -2.628906 43.3125 -1.726562 42.5625 -1.03125 C 41.820312 -0.34375 40.875 0 39.71875 0 L 10.859375 0 C 9.753906 0 8.8125 -0.382812 8.03125 -1.15625 C 7.257812 -1.9375 6.875 -2.878906 6.875 -3.984375 L 6.875 -54.0625 C 6.875 -55.164062 7.257812 -56.101562 8.03125 -56.875 C 8.8125 -57.644531 9.753906 -58.03125 10.859375 -58.03125 L 39.71875 -58.03125 C 40.875 -58.03125 41.820312 -57.671875 42.5625 -56.953125 C 43.3125 -56.234375 43.6875 -55.296875 43.6875 -54.140625 C 43.6875 -53.035156 43.3125 -52.132812 42.5625 -51.4375 C 41.820312 -50.75 40.875 -50.40625 39.71875 -50.40625 L 15.09375 -50.40625 L 15.09375 -33.5 L 35.984375 -33.5 C 37.140625 -33.5 38.085938 -33.140625 38.828125 -32.421875 C 39.578125 -31.703125 39.953125 -30.789062 39.953125 -29.6875 C 39.953125 -28.519531 39.578125 -27.601562 38.828125 -26.9375 C 38.085938 -26.28125 37.140625 -25.953125 35.984375 -25.953125 L 15.09375 -25.953125 L 15.09375 -7.625 Z M 39.71875 -7.625 "/></g></g></g><g fill="#e6e6dd" fill-opacity="1"><g transform="translate(1042.563146, 777.545886)"><g><path d="M 49.078125 -58.125 C 50.179688 -58.125 51.132812 -57.765625 51.9375 -57.046875 C 52.738281 -56.328125 53.140625 -55.441406 53.140625 -54.390625 C 53.140625 -53.835938 53.003906 -53.226562 52.734375 -52.5625 L 31.59375 -2.5625 C 31.195312 -1.738281 30.640625 -1.101562 29.921875 -0.65625 C 29.203125 -0.21875 28.457031 0 27.6875 0 C 26.96875 -0.0507812 26.289062 -0.285156 25.65625 -0.703125 C 25.019531 -1.117188 24.507812 -1.710938 24.125 -2.484375 L 2.984375 -52.5625 C 2.765625 -53 2.65625 -53.578125 2.65625 -54.296875 C 2.65625 -55.460938 3.066406 -56.40625 3.890625 -57.125 C 4.722656 -57.84375 5.632812 -58.203125 6.625 -58.203125 C 8.289062 -58.203125 9.507812 -57.316406 10.28125 -55.546875 L 28.359375 -12.84375 L 45.4375 -55.625 C 45.820312 -56.40625 46.332031 -57.015625 46.96875 -57.453125 C 47.601562 -57.898438 48.304688 -58.125 49.078125 -58.125 Z M 49.078125 -58.125 "/></g></g></g></svg>