<svg xmlns="http://www.w3.org/2000/svg" xmlns:xlink="http://www.w3.org/1999/xlink" width="500" zoomAndPan="magnify" viewBox="0 0 375 374.999991" height="500" preserveAspectRatio="xMidYMid meet" version="1.0"><defs><clipPath id="c3ffc24ed5"><path d="M 103.886719 113 L 271.136719 113 L 271.136719 263 L 103.886719 263 Z M 103.886719 113 " clip-rule="nonzero"/></clipPath></defs><g clip-path="url(#c3ffc24ed5)"><path fill="#00d8ff" d="M 241.335938 161.46875 C 239.605469 160.871094 237.8125 160.308594 235.957031 159.773438 C 236.265625 158.527344 236.546875 157.300781 236.792969 156.097656 C 240.859375 136.292969 238.203125 120.339844 229.113281 115.085938 C 220.394531 110.050781 206.144531 115.304688 191.746094 127.855469 C 190.363281 129.0625 188.972656 130.34375 187.589844 131.679688 C 186.664062 130.796875 185.742188 129.9375 184.824219 129.121094 C 169.734375 115.695312 154.613281 110.039062 145.535156 115.308594 C 136.828125 120.359375 134.25 135.355469 137.914062 154.121094 C 138.265625 155.933594 138.679688 157.785156 139.148438 159.667969 C 137.007812 160.277344 134.941406 160.925781 132.964844 161.617188 C 115.277344 167.796875 103.984375 177.480469 103.984375 187.527344 C 103.984375 197.898438 116.109375 208.3125 134.53125 214.621094 C 135.984375 215.117188 137.492188 215.589844 139.046875 216.035156 C 138.542969 218.066406 138.105469 220.0625 137.738281 222.011719 C 134.242188 240.453125 136.972656 255.09375 145.65625 260.109375 C 154.625 265.296875 169.675781 259.96875 184.335938 247.128906 C 185.496094 246.117188 186.65625 245.039062 187.820312 243.914062 C 189.332031 245.363281 190.839844 246.746094 192.335938 248.039062 C 206.535156 260.28125 220.558594 265.226562 229.230469 260.195312 C 238.191406 254.996094 241.109375 239.261719 237.324219 220.128906 C 237.035156 218.664062 236.695312 217.171875 236.324219 215.65625 C 237.382812 215.339844 238.417969 215.015625 239.429688 214.679688 C 258.582031 208.316406 271.039062 198.042969 271.039062 187.527344 C 271.039062 177.445312 259.378906 167.695312 241.335938 161.46875 Z M 237.1875 207.890625 C 236.273438 208.191406 235.332031 208.488281 234.378906 208.769531 C 232.265625 202.066406 229.414062 194.929688 225.914062 187.5625 C 229.25 180.367188 231.992188 173.328125 234.046875 166.664062 C 235.757812 167.160156 237.414062 167.679688 239.011719 168.234375 C 254.472656 173.566406 263.902344 181.453125 263.902344 187.527344 C 263.902344 193.996094 253.722656 202.398438 237.1875 207.890625 Z M 230.320312 221.515625 C 231.996094 229.976562 232.234375 237.628906 231.125 243.613281 C 230.132812 248.988281 228.128906 252.570312 225.65625 254.003906 C 220.386719 257.058594 209.132812 253.085938 196.992188 242.617188 C 195.597656 241.414062 194.195312 240.132812 192.792969 238.777344 C 197.496094 233.621094 202.203125 227.621094 206.796875 220.957031 C 214.867188 220.246094 222.496094 219.070312 229.421875 217.464844 C 229.757812 218.847656 230.058594 220.195312 230.320312 221.515625 Z M 160.941406 253.472656 C 155.796875 255.296875 151.699219 255.351562 149.222656 253.917969 C 143.953125 250.871094 141.761719 239.113281 144.75 223.34375 C 145.09375 221.539062 145.5 219.683594 145.96875 217.785156 C 152.8125 219.304688 160.386719 220.394531 168.484375 221.050781 C 173.105469 227.570312 177.949219 233.558594 182.824219 238.804688 C 181.757812 239.839844 180.695312 240.820312 179.636719 241.742188 C 173.160156 247.425781 166.664062 251.453125 160.941406 253.472656 Z M 136.84375 207.851562 C 128.695312 205.0625 121.96875 201.4375 117.359375 197.476562 C 113.214844 193.925781 111.121094 190.390625 111.121094 187.527344 C 111.121094 181.433594 120.191406 173.65625 135.316406 168.371094 C 137.152344 167.730469 139.074219 167.125 141.066406 166.558594 C 143.160156 173.371094 145.902344 180.5 149.210938 187.699219 C 145.859375 195.007812 143.078125 202.25 140.964844 209.148438 C 139.542969 208.734375 138.167969 208.304688 136.84375 207.851562 Z M 144.917969 152.75 C 141.78125 136.667969 143.867188 124.539062 149.113281 121.496094 C 154.699219 118.253906 167.058594 122.878906 180.082031 134.46875 C 180.917969 135.207031 181.753906 135.984375 182.59375 136.785156 C 177.738281 142.007812 172.941406 147.957031 168.359375 154.433594 C 160.503906 155.164062 152.984375 156.335938 146.066406 157.90625 C 145.632812 156.15625 145.25 154.433594 144.917969 152.75 Z M 216.976562 170.582031 C 215.324219 167.71875 213.628906 164.925781 211.898438 162.207031 C 217.230469 162.882812 222.332031 163.78125 227.128906 164.878906 C 225.695312 169.5 223.898438 174.335938 221.785156 179.292969 C 220.273438 176.410156 218.667969 173.503906 216.976562 170.582031 Z M 187.589844 141.898438 C 190.886719 145.472656 194.183594 149.460938 197.425781 153.789062 C 194.15625 153.636719 190.847656 153.554688 187.511719 153.554688 C 184.210938 153.554688 180.929688 153.632812 177.679688 153.785156 C 180.921875 149.496094 184.25 145.511719 187.589844 141.898438 Z M 158.019531 170.628906 C 156.367188 173.5 154.792969 176.390625 153.300781 179.289062 C 151.222656 174.347656 149.445312 169.492188 147.992188 164.800781 C 152.761719 163.734375 157.84375 162.859375 163.140625 162.195312 C 161.382812 164.9375 159.671875 167.753906 158.019531 170.628906 Z M 163.292969 213.367188 C 157.820312 212.757812 152.660156 211.925781 147.894531 210.886719 C 149.371094 206.113281 151.1875 201.15625 153.308594 196.109375 C 154.804688 199.003906 156.386719 201.894531 158.046875 204.773438 C 159.738281 207.703125 161.492188 210.566406 163.292969 213.367188 Z M 187.785156 233.660156 C 184.40625 230.003906 181.03125 225.953125 177.738281 221.605469 C 180.933594 221.730469 184.199219 221.796875 187.511719 221.796875 C 190.917969 221.796875 194.285156 221.71875 197.59375 221.574219 C 194.34375 226 191.054688 230.054688 187.785156 233.660156 Z M 221.851562 195.851562 C 224.082031 200.953125 225.96875 205.886719 227.464844 210.582031 C 222.621094 211.683594 217.386719 212.574219 211.878906 213.242188 C 213.617188 210.488281 215.324219 207.644531 217.007812 204.722656 C 218.710938 201.765625 220.324219 198.800781 221.851562 195.851562 Z M 210.824219 201.148438 C 208.210938 205.6875 205.53125 210.019531 202.808594 214.105469 C 197.855469 214.457031 192.734375 214.640625 187.511719 214.640625 C 182.3125 214.640625 177.253906 214.484375 172.386719 214.164062 C 169.554688 210.023438 166.816406 205.683594 164.222656 201.1875 C 161.632812 196.710938 159.253906 192.191406 157.09375 187.699219 C 159.253906 183.199219 161.628906 178.671875 164.203125 174.203125 L 164.199219 174.203125 C 166.78125 169.71875 169.496094 165.398438 172.300781 161.28125 C 177.265625 160.902344 182.363281 160.707031 187.511719 160.707031 C 192.6875 160.707031 197.785156 160.90625 202.75 161.285156 C 205.515625 165.371094 208.210938 169.679688 210.804688 174.164062 C 213.417969 178.699219 215.828125 183.191406 218 187.601562 C 215.835938 192.078125 213.433594 196.617188 210.824219 201.148438 Z M 225.542969 121.28125 C 231.144531 124.515625 233.316406 137.554688 229.800781 154.652344 C 229.578125 155.742188 229.324219 156.851562 229.046875 157.980469 C 222.117188 156.375 214.59375 155.183594 206.71875 154.441406 C 202.125 147.890625 197.367188 141.9375 192.589844 136.78125 C 193.875 135.542969 195.160156 134.363281 196.433594 133.25 C 208.765625 122.492188 220.296875 118.246094 225.542969 121.28125 Z M 187.511719 172.574219 C 195.75 172.574219 202.429688 179.265625 202.429688 187.527344 C 202.429688 195.777344 195.75 202.476562 187.511719 202.476562 C 179.277344 202.476562 172.59375 195.777344 172.59375 187.527344 C 172.59375 179.265625 179.277344 172.574219 187.511719 172.574219 Z M 187.511719 172.574219 " fill-opacity="1" fill-rule="nonzero"/></g></svg>