<svg xmlns="http://www.w3.org/2000/svg" xmlns:xlink="http://www.w3.org/1999/xlink" width="500" zoomAndPan="magnify" viewBox="0 0 375 374.999991" height="500" preserveAspectRatio="xMidYMid meet" version="1.0"><defs><clipPath id="cf2189965d"><path d="M 159 220 L 236 220 L 236 249.183594 L 159 249.183594 Z M 159 220 " clip-rule="nonzero"/></clipPath><clipPath id="e2d144d778"><path d="M 123 126.183594 L 272 126.183594 L 272 228 L 123 228 Z M 123 126.183594 " clip-rule="nonzero"/></clipPath><clipPath id="dc3836d7b3"><path d="M 88.203125 168 L 146 168 L 146 249.183594 L 88.203125 249.183594 Z M 88.203125 168 " clip-rule="nonzero"/></clipPath><clipPath id="08473488db"><path d="M 257 191 L 286.953125 191 L 286.953125 249.183594 L 257 249.183594 Z M 257 191 " clip-rule="nonzero"/></clipPath></defs><g clip-path="url(#cf2189965d)"><path fill="#6e83b7" d="M 227.945312 243.113281 C 222.929688 243.113281 218.863281 239.058594 218.863281 234.050781 L 218.863281 220.457031 L 176.472656 220.457031 L 176.472656 234.050781 C 176.472656 239.058594 172.40625 243.113281 167.390625 243.113281 L 159.820312 243.113281 L 159.820312 249.183594 L 235.515625 249.183594 L 235.515625 243.113281 Z M 227.945312 243.113281 " fill-opacity="1" fill-rule="nonzero"/></g><path fill="#466089" d="M 176.472656 227.335938 L 218.863281 227.335938 L 218.863281 231.382812 L 176.472656 231.382812 Z M 176.472656 227.335938 " fill-opacity="1" fill-rule="nonzero"/><g clip-path="url(#e2d144d778)"><path fill="#6e83b7" d="M 123.386719 126.183594 L 271.949219 126.183594 L 271.949219 227.335938 L 123.386719 227.335938 Z M 123.386719 126.183594 " fill-opacity="1" fill-rule="nonzero"/></g><path fill="#80d6fb" d="M 265.894531 132.253906 L 265.894531 215.601562 L 129.441406 215.601562 L 129.441406 132.253906 Z M 265.894531 132.253906 " fill-opacity="1" fill-rule="nonzero"/><path fill="#46bee8" d="M 265.894531 212.363281 L 265.894531 215.601562 L 129.441406 215.601562 L 129.441406 212.363281 Z M 265.894531 212.363281 " fill-opacity="1" fill-rule="nonzero"/><path fill="#edeff1" d="M 137.515625 148.640625 L 174.65625 148.640625 L 174.65625 181.007812 L 137.515625 181.007812 Z M 137.515625 148.640625 " fill-opacity="1" fill-rule="nonzero"/><path fill="#edeff1" d="M 179.097656 148.640625 L 216.238281 148.640625 L 216.238281 181.007812 L 179.097656 181.007812 Z M 179.097656 148.640625 " fill-opacity="1" fill-rule="nonzero"/><path fill="#edeff1" d="M 220.679688 148.640625 L 257.820312 148.640625 L 257.820312 181.007812 L 220.679688 181.007812 Z M 220.679688 148.640625 " fill-opacity="1" fill-rule="nonzero"/><path fill="#46bee8" d="M 137.515625 201.035156 L 174.65625 201.035156 L 174.65625 204.273438 L 137.515625 204.273438 Z M 137.515625 201.035156 " fill-opacity="1" fill-rule="nonzero"/><path fill="#46bee8" d="M 137.515625 193.550781 L 174.65625 193.550781 L 174.65625 196.789062 L 137.515625 196.789062 Z M 137.515625 193.550781 " fill-opacity="1" fill-rule="nonzero"/><path fill="#46bee8" d="M 137.515625 186.066406 L 174.65625 186.066406 L 174.65625 189.300781 L 137.515625 189.300781 Z M 137.515625 186.066406 " fill-opacity="1" fill-rule="nonzero"/><path fill="#46bee8" d="M 220.679688 201.035156 L 257.820312 201.035156 L 257.820312 204.273438 L 220.679688 204.273438 Z M 220.679688 201.035156 " fill-opacity="1" fill-rule="nonzero"/><path fill="#46bee8" d="M 220.679688 193.550781 L 257.820312 193.550781 L 257.820312 196.789062 L 220.679688 196.789062 Z M 220.679688 193.550781 " fill-opacity="1" fill-rule="nonzero"/><path fill="#46bee8" d="M 220.679688 186.066406 L 257.820312 186.066406 L 257.820312 189.300781 L 220.679688 189.300781 Z M 220.679688 186.066406 " fill-opacity="1" fill-rule="nonzero"/><path fill="#46bee8" d="M 179.097656 201.035156 L 216.238281 201.035156 L 216.238281 204.273438 L 179.097656 204.273438 Z M 179.097656 201.035156 " fill-opacity="1" fill-rule="nonzero"/><path fill="#46bee8" d="M 179.097656 193.550781 L 216.238281 193.550781 L 216.238281 196.789062 L 179.097656 196.789062 Z M 179.097656 193.550781 " fill-opacity="1" fill-rule="nonzero"/><path fill="#46bee8" d="M 179.097656 186.066406 L 216.238281 186.066406 L 216.238281 189.300781 L 179.097656 189.300781 Z M 179.097656 186.066406 " fill-opacity="1" fill-rule="nonzero"/><path fill="#6e83b7" d="M 137.515625 140.34375 L 174.65625 140.34375 L 174.65625 143.582031 L 137.515625 143.582031 Z M 137.515625 140.34375 " fill-opacity="1" fill-rule="nonzero"/><path fill="#6e83b7" d="M 220.679688 140.34375 L 257.820312 140.34375 L 257.820312 143.582031 L 220.679688 143.582031 Z M 220.679688 140.34375 " fill-opacity="1" fill-rule="nonzero"/><path fill="#6e83b7" d="M 179.097656 140.34375 L 216.238281 140.34375 L 216.238281 143.582031 L 179.097656 143.582031 Z M 179.097656 140.34375 " fill-opacity="1" fill-rule="nonzero"/><g clip-path="url(#dc3836d7b3)"><path fill="#6e83b7" d="M 88.265625 246.351562 L 88.265625 171.09375 C 88.265625 169.53125 89.53125 168.261719 91.09375 168.261719 L 142.765625 168.261719 C 144.328125 168.261719 145.59375 169.53125 145.59375 171.09375 L 145.59375 246.351562 C 145.59375 247.914062 144.328125 249.183594 142.765625 249.183594 L 91.09375 249.183594 C 89.53125 249.183594 88.265625 247.914062 88.265625 246.351562 Z M 88.265625 246.351562 " fill-opacity="1" fill-rule="nonzero"/></g><path fill="#80d6fb" d="M 139.941406 241.902344 L 93.917969 241.902344 L 93.917969 175.546875 L 139.941406 175.546875 Z M 139.941406 241.902344 " fill-opacity="1" fill-rule="nonzero"/><path fill="#edeff1" d="M 97.957031 186.875 L 114.910156 186.875 L 114.910156 211.152344 L 97.957031 211.152344 Z M 97.957031 186.875 " fill-opacity="1" fill-rule="nonzero"/><path fill="#46bee8" d="M 97.957031 234.617188 L 114.910156 234.617188 L 114.910156 237.855469 L 97.957031 237.855469 Z M 97.957031 234.617188 " fill-opacity="1" fill-rule="nonzero"/><path fill="#46bee8" d="M 97.957031 228.144531 L 114.910156 228.144531 L 114.910156 231.382812 L 97.957031 231.382812 Z M 97.957031 228.144531 " fill-opacity="1" fill-rule="nonzero"/><path fill="#46bee8" d="M 97.957031 221.671875 L 114.910156 221.671875 L 114.910156 224.90625 L 97.957031 224.90625 Z M 97.957031 221.671875 " fill-opacity="1" fill-rule="nonzero"/><path fill="#46bee8" d="M 97.957031 215.195312 L 114.910156 215.195312 L 114.910156 218.433594 L 97.957031 218.433594 Z M 97.957031 215.195312 " fill-opacity="1" fill-rule="nonzero"/><path fill="#6e83b7" d="M 97.957031 179.59375 L 114.910156 179.59375 L 114.910156 182.828125 L 97.957031 182.828125 Z M 97.957031 179.59375 " fill-opacity="1" fill-rule="nonzero"/><path fill="#edeff1" d="M 118.949219 186.875 L 135.902344 186.875 L 135.902344 211.152344 L 118.949219 211.152344 Z M 118.949219 186.875 " fill-opacity="1" fill-rule="nonzero"/><path fill="#46bee8" d="M 118.949219 234.617188 L 135.902344 234.617188 L 135.902344 237.855469 L 118.949219 237.855469 Z M 118.949219 234.617188 " fill-opacity="1" fill-rule="nonzero"/><path fill="#46bee8" d="M 118.949219 228.144531 L 135.902344 228.144531 L 135.902344 231.382812 L 118.949219 231.382812 Z M 118.949219 228.144531 " fill-opacity="1" fill-rule="nonzero"/><path fill="#46bee8" d="M 118.949219 221.671875 L 135.902344 221.671875 L 135.902344 224.90625 L 118.949219 224.90625 Z M 118.949219 221.671875 " fill-opacity="1" fill-rule="nonzero"/><path fill="#46bee8" d="M 118.949219 215.195312 L 135.902344 215.195312 L 135.902344 218.433594 L 118.949219 218.433594 Z M 118.949219 215.195312 " fill-opacity="1" fill-rule="nonzero"/><path fill="#6e83b7" d="M 118.949219 179.59375 L 135.902344 179.59375 L 135.902344 182.828125 L 118.949219 182.828125 Z M 118.949219 179.59375 " fill-opacity="1" fill-rule="nonzero"/><g clip-path="url(#08473488db)"><path fill="#6e83b7" d="M 284.46875 249.183594 L 260.246094 249.183594 C 258.90625 249.183594 257.824219 248.097656 257.824219 246.757812 L 257.824219 194.15625 C 257.824219 192.816406 258.90625 191.730469 260.246094 191.730469 L 284.46875 191.730469 C 285.804688 191.730469 286.890625 192.816406 286.890625 194.15625 L 286.890625 246.757812 C 286.890625 248.097656 285.804688 249.183594 284.46875 249.183594 Z M 284.46875 249.183594 " fill-opacity="1" fill-rule="nonzero"/></g><path fill="#80d6fb" d="M 284.265625 197.394531 L 284.265625 243.519531 L 260.445312 243.519531 L 260.445312 197.394531 Z M 284.265625 197.394531 " fill-opacity="1" fill-rule="nonzero"/><path fill="#edeff1" d="M 263.675781 207.914062 L 281.035156 207.914062 L 281.035156 226.527344 L 263.675781 226.527344 Z M 263.675781 207.914062 " fill-opacity="1" fill-rule="nonzero"/><path fill="#46bee8" d="M 263.675781 237.046875 L 281.035156 237.046875 L 281.035156 240.28125 L 263.675781 240.28125 Z M 263.675781 237.046875 " fill-opacity="1" fill-rule="nonzero"/><path fill="#46bee8" d="M 263.675781 230.570312 L 281.035156 230.570312 L 281.035156 233.808594 L 263.675781 233.808594 Z M 263.675781 230.570312 " fill-opacity="1" fill-rule="nonzero"/><path fill="#6e83b7" d="M 263.675781 200.632812 L 281.035156 200.632812 L 281.035156 203.867188 L 263.675781 203.867188 Z M 263.675781 200.632812 " fill-opacity="1" fill-rule="nonzero"/></svg>